<ttFont>
    <TTGlyph name="A" xMin="5" yMin="-7" xMax="667" yMax="889">
      <contour>
        <pt x="667" y="29" on="1"/>
        <pt x="651" y="-7" on="0"/>
        <pt x="555" y="-7" on="0"/>
        <pt x="498" y="43" on="0"/>
        <pt x="463" y="159" on="0"/>
        <pt x="451" y="255" on="1"/>
        <pt x="158" y="255" on="1"/>
        <pt x="107" y="140" on="0"/>
        <pt x="107" y="77" on="1"/>
        <pt x="107" y="48" on="0"/>
        <pt x="119" y="29" on="1"/>
        <pt x="95" y="-7" on="0"/>
        <pt x="5" y="-7" on="0"/>
        <pt x="5" y="43" on="1"/>
        <pt x="5" y="71" on="0"/>
        <pt x="40" y="180" on="0"/>
        <pt x="262" y="641" on="0"/>
        <pt x="317" y="806" on="0"/>
        <pt x="317" y="854" on="0"/>
        <pt x="314" y="866" on="1"/>
        <pt x="347" y="889" on="0"/>
        <pt x="425" y="889" on="0"/>
        <pt x="472" y="850" on="0"/>
        <pt x="507" y="738" on="0"/>
        <pt x="552" y="256" on="0"/>
        <pt x="581" y="156" on="1"/>
        <pt x="602" y="82" on="0"/>
      </contour>
      <contour>
        <pt x="386" y="737" on="1"/>
        <pt x="363" y="683" on="0"/>
        <pt x="219" y="391" on="0"/>
        <pt x="188" y="323" on="1"/>
        <pt x="444" y="323" on="1"/>
        <pt x="439" y="386" on="0"/>
        <pt x="416" y="589" on="0"/>
        <pt x="412" y="616" on="1"/>
        <pt x="400" y="687" on="0"/>
      </contour>
    </TTGlyph>
    <TTGlyph name="AE" xMin="-49" yMin="-10" xMax="915" yMax="884">
      <contour>
        <pt x="530" y="867" on="1"/>
        <pt x="755" y="865" on="1"/>
        <pt x="875" y="865" on="0"/>
        <pt x="915" y="884" on="1"/>
        <pt x="910" y="819" on="0"/>
        <pt x="857" y="776" on="0"/>
        <pt x="800" y="776" on="1"/>
        <pt x="706" y="776" on="0"/>
        <pt x="565" y="798" on="1"/>
        <pt x="565" y="724" on="0"/>
        <pt x="528" y="508" on="1"/>
        <pt x="517" y="443" on="0"/>
        <pt x="514" y="422" on="1"/>
        <pt x="705" y="428" on="0"/>
        <pt x="779" y="466" on="1"/>
        <pt x="773" y="388" on="0"/>
        <pt x="734" y="368" on="1"/>
        <pt x="713" y="358" on="0"/>
        <pt x="675" y="353" on="0"/>
        <pt x="641" y="353" on="1"/>
        <pt x="503" y="353" on="1"/>
        <pt x="480" y="194" on="0"/>
        <pt x="480" y="112" on="1"/>
        <pt x="480" y="101" on="0"/>
        <pt x="482" y="83" on="1"/>
        <pt x="562" y="79" on="0"/>
        <pt x="619" y="79" on="1"/>
        <pt x="808" y="79" on="0"/>
        <pt x="857" y="105" on="1"/>
        <pt x="854" y="65" on="0"/>
        <pt x="833" y="17" on="0"/>
        <pt x="785" y="-5" on="0"/>
        <pt x="740" y="-10" on="0"/>
        <pt x="640" y="-10" on="0"/>
        <pt x="495" y="11" on="1"/>
        <pt x="466" y="-8" on="0"/>
        <pt x="440" y="-8" on="1"/>
        <pt x="368" y="-8" on="0"/>
        <pt x="368" y="89" on="1"/>
        <pt x="368" y="155" on="0"/>
        <pt x="402" y="353" on="1"/>
        <pt x="182" y="353" on="1"/>
        <pt x="56" y="146" on="0"/>
        <pt x="56" y="64" on="1"/>
        <pt x="56" y="44" on="0"/>
        <pt x="63" y="29" on="1"/>
        <pt x="37" y="-7" on="0"/>
        <pt x="-8" y="-7" on="1"/>
        <pt x="-28" y="-7" on="0"/>
        <pt x="-49" y="17" on="0"/>
        <pt x="-49" y="49" on="1"/>
        <pt x="-49" y="112" on="0"/>
        <pt x="89" y="347" on="0"/>
        <pt x="275" y="627" on="0"/>
        <pt x="344" y="787" on="0"/>
        <pt x="344" y="836" on="1"/>
        <pt x="390" y="867" on="0"/>
      </contour>
      <contour>
        <pt x="452" y="741" on="1"/>
        <pt x="452" y="786" on="0"/>
        <pt x="443" y="810" on="1"/>
        <pt x="435" y="758" on="0"/>
        <pt x="364" y="642" on="1"/>
        <pt x="320" y="571" on="0"/>
        <pt x="238" y="444" on="0"/>
        <pt x="224" y="421" on="1"/>
        <pt x="414" y="421" on="1"/>
        <pt x="452" y="638" on="0"/>
      </contour>
    </TTGlyph>
    <TTGlyph name="Aacute" xMin="5" yMin="-7" xMax="667" yMax="1089">
      <contour>
        <pt x="386" y="737" on="1"/>
        <pt x="363" y="683" on="0"/>
        <pt x="219" y="391" on="0"/>
        <pt x="188" y="323" on="1"/>
        <pt x="444" y="323" on="1"/>
        <pt x="439" y="386" on="0"/>
        <pt x="416" y="589" on="0"/>
        <pt x="412" y="616" on="1"/>
        <pt x="400" y="687" on="0"/>
      </contour>
      <contour>
        <pt x="311" y="911" on="1"/>
        <pt x="298" y="911" on="0"/>
        <pt x="284" y="939" on="1"/>
        <pt x="364" y="999" on="0"/>
        <pt x="431" y="1060" on="0"/>
        <pt x="444" y="1084" on="1"/>
        <pt x="468" y="1089" on="0"/>
        <pt x="521" y="1089" on="0"/>
        <pt x="548" y="1072" on="0"/>
        <pt x="548" y="1051" on="0"/>
        <pt x="535" y="1037" on="0"/>
        <pt x="458" y="982" on="0"/>
        <pt x="326" y="911" on="0"/>
      </contour>
      <contour>
        <pt x="667" y="29" on="1"/>
        <pt x="651" y="-7" on="0"/>
        <pt x="555" y="-7" on="0"/>
        <pt x="498" y="43" on="0"/>
        <pt x="463" y="159" on="0"/>
        <pt x="451" y="255" on="1"/>
        <pt x="158" y="255" on="1"/>
        <pt x="107" y="140" on="0"/>
        <pt x="107" y="77" on="1"/>
        <pt x="107" y="48" on="0"/>
        <pt x="119" y="29" on="1"/>
        <pt x="95" y="-7" on="0"/>
        <pt x="5" y="-7" on="0"/>
        <pt x="5" y="43" on="1"/>
        <pt x="5" y="71" on="0"/>
        <pt x="40" y="180" on="0"/>
        <pt x="262" y="641" on="0"/>
        <pt x="317" y="806" on="0"/>
        <pt x="317" y="854" on="0"/>
        <pt x="314" y="866" on="1"/>
        <pt x="347" y="889" on="0"/>
        <pt x="425" y="889" on="0"/>
        <pt x="472" y="850" on="0"/>
        <pt x="507" y="738" on="0"/>
        <pt x="552" y="256" on="0"/>
        <pt x="581" y="156" on="1"/>
        <pt x="602" y="82" on="0"/>
      </contour>
    </TTGlyph>
    <TTGlyph name="Acircumflex" xMin="5" yMin="-7" xMax="667" yMax="1089">
      <contour>
        <pt x="386" y="737" on="1"/>
        <pt x="363" y="683" on="0"/>
        <pt x="219" y="391" on="0"/>
        <pt x="188" y="323" on="1"/>
        <pt x="444" y="323" on="1"/>
        <pt x="439" y="386" on="0"/>
        <pt x="416" y="589" on="0"/>
        <pt x="412" y="616" on="1"/>
        <pt x="400" y="687" on="0"/>
      </contour>
      <contour>
        <pt x="537" y="911" on="1"/>
        <pt x="515" y="911" on="0"/>
        <pt x="401" y="1002" on="1"/>
        <pt x="270" y="911" on="0"/>
        <pt x="242" y="911" on="1"/>
        <pt x="231" y="911" on="0"/>
        <pt x="215" y="939" on="1"/>
        <pt x="309" y="1009" on="0"/>
        <pt x="340" y="1050" on="1"/>
        <pt x="350" y="1064" on="0"/>
        <pt x="361" y="1084" on="1"/>
        <pt x="378" y="1089" on="0"/>
        <pt x="440" y="1089" on="0"/>
        <pt x="455" y="1078" on="1"/>
        <pt x="456" y="1077" on="0"/>
        <pt x="471" y="1053" on="0"/>
        <pt x="488" y="1028" on="0"/>
        <pt x="500" y="1012" on="1"/>
        <pt x="534" y="967" on="0"/>
        <pt x="564" y="939" on="1"/>
        <pt x="550" y="911" on="0"/>
      </contour>
      <contour>
        <pt x="667" y="29" on="1"/>
        <pt x="651" y="-7" on="0"/>
        <pt x="555" y="-7" on="0"/>
        <pt x="498" y="43" on="0"/>
        <pt x="463" y="159" on="0"/>
        <pt x="451" y="255" on="1"/>
        <pt x="158" y="255" on="1"/>
        <pt x="107" y="140" on="0"/>
        <pt x="107" y="77" on="1"/>
        <pt x="107" y="48" on="0"/>
        <pt x="119" y="29" on="1"/>
        <pt x="95" y="-7" on="0"/>
        <pt x="5" y="-7" on="0"/>
        <pt x="5" y="43" on="1"/>
        <pt x="5" y="71" on="0"/>
        <pt x="40" y="180" on="0"/>
        <pt x="262" y="641" on="0"/>
        <pt x="317" y="806" on="0"/>
        <pt x="317" y="854" on="0"/>
        <pt x="314" y="866" on="1"/>
        <pt x="347" y="889" on="0"/>
        <pt x="425" y="889" on="0"/>
        <pt x="472" y="850" on="0"/>
        <pt x="507" y="738" on="0"/>
        <pt x="552" y="256" on="0"/>
        <pt x="581" y="156" on="1"/>
        <pt x="602" y="82" on="0"/>
      </contour>
    </TTGlyph>
    <TTGlyph name="Adieresis" xMin="5" yMin="-7" xMax="667" yMax="1055">
      <contour>
        <pt x="350" y="1012" on="1"/>
        <pt x="350" y="992" on="0"/>
        <pt x="339" y="951" on="1"/>
        <pt x="302" y="928" on="0"/>
        <pt x="241" y="928" on="0"/>
        <pt x="216" y="950" on="0"/>
        <pt x="216" y="998" on="0"/>
        <pt x="223" y="1032" on="1"/>
        <pt x="260" y="1055" on="0"/>
        <pt x="292" y="1055" on="1"/>
        <pt x="350" y="1055" on="0"/>
      </contour>
      <contour>
        <pt x="584" y="1012" on="1"/>
        <pt x="584" y="987" on="0"/>
        <pt x="573" y="951" on="1"/>
        <pt x="536" y="928" on="0"/>
        <pt x="475" y="928" on="0"/>
        <pt x="450" y="950" on="0"/>
        <pt x="450" y="990" on="0"/>
        <pt x="457" y="1032" on="1"/>
        <pt x="495" y="1055" on="0"/>
        <pt x="526" y="1055" on="1"/>
        <pt x="584" y="1055" on="0"/>
      </contour>
      <contour>
        <pt x="667" y="29" on="1"/>
        <pt x="651" y="-7" on="0"/>
        <pt x="555" y="-7" on="0"/>
        <pt x="498" y="43" on="0"/>
        <pt x="463" y="159" on="0"/>
        <pt x="451" y="255" on="1"/>
        <pt x="158" y="255" on="1"/>
        <pt x="107" y="140" on="0"/>
        <pt x="107" y="77" on="1"/>
        <pt x="107" y="48" on="0"/>
        <pt x="119" y="29" on="1"/>
        <pt x="95" y="-7" on="0"/>
        <pt x="5" y="-7" on="0"/>
        <pt x="5" y="43" on="1"/>
        <pt x="5" y="71" on="0"/>
        <pt x="40" y="180" on="0"/>
        <pt x="262" y="641" on="0"/>
        <pt x="317" y="806" on="0"/>
        <pt x="317" y="854" on="0"/>
        <pt x="314" y="866" on="1"/>
        <pt x="347" y="889" on="0"/>
        <pt x="425" y="889" on="0"/>
        <pt x="472" y="850" on="0"/>
        <pt x="507" y="738" on="0"/>
        <pt x="552" y="256" on="0"/>
        <pt x="581" y="156" on="1"/>
        <pt x="602" y="82" on="0"/>
      </contour>
      <contour>
        <pt x="386" y="737" on="1"/>
        <pt x="363" y="683" on="0"/>
        <pt x="219" y="391" on="0"/>
        <pt x="188" y="323" on="1"/>
        <pt x="444" y="323" on="1"/>
        <pt x="439" y="386" on="0"/>
        <pt x="416" y="589" on="0"/>
        <pt x="412" y="616" on="1"/>
        <pt x="400" y="687" on="0"/>
      </contour>
    </TTGlyph>
    <TTGlyph name="Agrave" xMin="5" yMin="-7" xMax="667" yMax="1089">
      <contour>
        <pt x="667" y="29" on="1"/>
        <pt x="651" y="-7" on="0"/>
        <pt x="555" y="-7" on="0"/>
        <pt x="498" y="43" on="0"/>
        <pt x="463" y="159" on="0"/>
        <pt x="451" y="255" on="1"/>
        <pt x="158" y="255" on="1"/>
        <pt x="107" y="140" on="0"/>
        <pt x="107" y="77" on="1"/>
        <pt x="107" y="48" on="0"/>
        <pt x="119" y="29" on="1"/>
        <pt x="95" y="-7" on="0"/>
        <pt x="5" y="-7" on="0"/>
        <pt x="5" y="43" on="1"/>
        <pt x="5" y="71" on="0"/>
        <pt x="40" y="180" on="0"/>
        <pt x="262" y="641" on="0"/>
        <pt x="317" y="806" on="0"/>
        <pt x="317" y="854" on="0"/>
        <pt x="314" y="866" on="1"/>
        <pt x="347" y="889" on="0"/>
        <pt x="425" y="889" on="0"/>
        <pt x="472" y="850" on="0"/>
        <pt x="507" y="738" on="0"/>
        <pt x="552" y="256" on="0"/>
        <pt x="581" y="156" on="1"/>
        <pt x="602" y="82" on="0"/>
      </contour>
      <contour>
        <pt x="386" y="737" on="1"/>
        <pt x="363" y="683" on="0"/>
        <pt x="219" y="391" on="0"/>
        <pt x="188" y="323" on="1"/>
        <pt x="444" y="323" on="1"/>
        <pt x="439" y="386" on="0"/>
        <pt x="416" y="589" on="0"/>
        <pt x="412" y="616" on="1"/>
        <pt x="400" y="687" on="0"/>
      </contour>
      <contour>
        <pt x="298" y="1037" on="0"/>
        <pt x="285" y="1051" on="0"/>
        <pt x="285" y="1072" on="0"/>
        <pt x="312" y="1089" on="0"/>
        <pt x="365" y="1089" on="0"/>
        <pt x="389" y="1084" on="1"/>
        <pt x="402" y="1061" on="0"/>
        <pt x="469" y="1000" on="0"/>
        <pt x="550" y="939" on="1"/>
        <pt x="534" y="911" on="0"/>
        <pt x="508" y="911" on="0"/>
        <pt x="375" y="983" on="0"/>
      </contour>
    </TTGlyph>
    <TTGlyph name="Aring" xMin="5" yMin="-7" xMax="667" yMax="1145">
      <contour>
        <pt x="434" y="1145" on="1"/>
        <pt x="454" y="1145" on="0"/>
        <pt x="495" y="1125" on="0"/>
        <pt x="508" y="1114" on="1"/>
        <pt x="537" y="1086" on="0"/>
        <pt x="537" y="973" on="0"/>
        <pt x="473" y="893" on="0"/>
        <pt x="427" y="882" on="1"/>
        <pt x="466" y="869" on="0"/>
        <pt x="490" y="793" on="1"/>
        <pt x="507" y="739" on="0"/>
        <pt x="551" y="257" on="0"/>
        <pt x="581" y="156" on="1"/>
        <pt x="602" y="82" on="0"/>
        <pt x="667" y="29" on="1"/>
        <pt x="651" y="-7" on="0"/>
        <pt x="555" y="-7" on="0"/>
        <pt x="498" y="43" on="0"/>
        <pt x="463" y="159" on="0"/>
        <pt x="451" y="255" on="1"/>
        <pt x="158" y="255" on="1"/>
        <pt x="107" y="140" on="0"/>
        <pt x="107" y="77" on="1"/>
        <pt x="107" y="48" on="0"/>
        <pt x="119" y="29" on="1"/>
        <pt x="95" y="-7" on="0"/>
        <pt x="5" y="-7" on="0"/>
        <pt x="5" y="43" on="1"/>
        <pt x="5" y="71" on="0"/>
        <pt x="40" y="180" on="0"/>
        <pt x="262" y="641" on="0"/>
        <pt x="317" y="806" on="0"/>
        <pt x="317" y="854" on="0"/>
        <pt x="314" y="866" on="1"/>
        <pt x="336" y="881" on="0"/>
        <pt x="361" y="887" on="1"/>
        <pt x="294" y="913" on="0"/>
        <pt x="294" y="993" on="1"/>
        <pt x="294" y="1061" on="0"/>
        <pt x="380" y="1145" on="0"/>
      </contour>
      <contour>
        <pt x="386" y="737" on="1"/>
        <pt x="363" y="683" on="0"/>
        <pt x="219" y="391" on="0"/>
        <pt x="188" y="323" on="1"/>
        <pt x="444" y="323" on="1"/>
        <pt x="439" y="386" on="0"/>
        <pt x="416" y="589" on="0"/>
        <pt x="412" y="616" on="1"/>
        <pt x="400" y="687" on="0"/>
      </contour>
      <contour>
        <pt x="419" y="1099" on="1"/>
        <pt x="392" y="1099" on="0"/>
        <pt x="367" y="1028" on="0"/>
        <pt x="367" y="990" on="1"/>
        <pt x="367" y="926" on="0"/>
        <pt x="409" y="926" on="1"/>
        <pt x="436" y="926" on="0"/>
        <pt x="461" y="997" on="0"/>
        <pt x="461" y="1034" on="1"/>
        <pt x="461" y="1099" on="0"/>
      </contour>
    </TTGlyph>
    <TTGlyph name="Atilde" xMin="5" yMin="-7" xMax="667" yMax="1074">
      <contour>
        <pt x="386" y="737" on="1"/>
        <pt x="363" y="683" on="0"/>
        <pt x="219" y="391" on="0"/>
        <pt x="188" y="323" on="1"/>
        <pt x="444" y="323" on="1"/>
        <pt x="439" y="386" on="0"/>
        <pt x="416" y="589" on="0"/>
        <pt x="412" y="616" on="1"/>
        <pt x="400" y="687" on="0"/>
      </contour>
      <contour>
        <pt x="583" y="1042" on="1"/>
        <pt x="583" y="999" on="0"/>
        <pt x="525" y="927" on="0"/>
        <pt x="452" y="927" on="0"/>
        <pt x="401" y="960" on="0"/>
        <pt x="361" y="993" on="0"/>
        <pt x="323" y="993" on="0"/>
        <pt x="295" y="959" on="0"/>
        <pt x="290" y="926" on="1"/>
        <pt x="246" y="926" on="0"/>
        <pt x="246" y="958" on="1"/>
        <pt x="246" y="1001" on="0"/>
        <pt x="304" y="1073" on="0"/>
        <pt x="377" y="1073" on="0"/>
        <pt x="428" y="1040" on="0"/>
        <pt x="468" y="1007" on="0"/>
        <pt x="506" y="1007" on="0"/>
        <pt x="534" y="1041" on="0"/>
        <pt x="539" y="1074" on="1"/>
        <pt x="583" y="1074" on="0"/>
      </contour>
      <contour>
        <pt x="667" y="29" on="1"/>
        <pt x="651" y="-7" on="0"/>
        <pt x="555" y="-7" on="0"/>
        <pt x="498" y="43" on="0"/>
        <pt x="463" y="159" on="0"/>
        <pt x="451" y="255" on="1"/>
        <pt x="158" y="255" on="1"/>
        <pt x="107" y="140" on="0"/>
        <pt x="107" y="77" on="1"/>
        <pt x="107" y="48" on="0"/>
        <pt x="119" y="29" on="1"/>
        <pt x="95" y="-7" on="0"/>
        <pt x="5" y="-7" on="0"/>
        <pt x="5" y="43" on="1"/>
        <pt x="5" y="71" on="0"/>
        <pt x="40" y="180" on="0"/>
        <pt x="262" y="641" on="0"/>
        <pt x="317" y="806" on="0"/>
        <pt x="317" y="854" on="0"/>
        <pt x="314" y="866" on="1"/>
        <pt x="347" y="889" on="0"/>
        <pt x="425" y="889" on="0"/>
        <pt x="472" y="850" on="0"/>
        <pt x="507" y="738" on="0"/>
        <pt x="552" y="256" on="0"/>
        <pt x="581" y="156" on="1"/>
        <pt x="602" y="82" on="0"/>
      </contour>
    </TTGlyph>
    <TTGlyph name="B" xMin="98" yMin="-11" xMax="626" yMax="887">
      <contour>
        <pt x="482" y="887" on="0"/>
        <pt x="612" y="786" on="0"/>
        <pt x="612" y="646" on="0"/>
        <pt x="518" y="521" on="0"/>
        <pt x="432" y="479" on="1"/>
        <pt x="626" y="449" on="0"/>
        <pt x="626" y="290" on="1"/>
        <pt x="626" y="213" on="0"/>
        <pt x="576" y="136" on="1"/>
        <pt x="481" y="-11" on="0"/>
        <pt x="283" y="-11" on="1"/>
        <pt x="184" y="-11" on="0"/>
        <pt x="98" y="49" on="0"/>
        <pt x="98" y="171" on="0"/>
        <pt x="174" y="676" on="0"/>
        <pt x="174" y="817" on="0"/>
        <pt x="159" y="864" on="1"/>
        <pt x="282" y="887" on="0"/>
        <pt x="361" y="887" on="1"/>
      </contour>
      <contour>
        <pt x="234" y="427" on="1"/>
        <pt x="207" y="249" on="0"/>
        <pt x="207" y="114" on="0"/>
        <pt x="215" y="84" on="1"/>
        <pt x="253" y="59" on="0"/>
        <pt x="310" y="59" on="1"/>
        <pt x="405" y="59" on="0"/>
        <pt x="519" y="185" on="0"/>
        <pt x="519" y="339" on="0"/>
        <pt x="422" y="438" on="0"/>
        <pt x="320" y="441" on="1"/>
        <pt x="276" y="431" on="0"/>
      </contour>
      <contour>
        <pt x="373" y="490" on="0"/>
        <pt x="507" y="604" on="0"/>
        <pt x="507" y="743" on="0"/>
        <pt x="430" y="829" on="0"/>
        <pt x="350" y="829" on="1"/>
        <pt x="326" y="829" on="0"/>
        <pt x="287" y="822" on="1"/>
        <pt x="286" y="764" on="0"/>
        <pt x="242" y="482" on="1"/>
      </contour>
    </TTGlyph>
    <TTGlyph name="C" xMin="78" yMin="-21" xMax="618" yMax="887">
      <contour>
        <pt x="326" y="854" on="1"/>
        <pt x="389" y="887" on="0"/>
        <pt x="531" y="887" on="0"/>
        <pt x="618" y="838" on="0"/>
        <pt x="618" y="793" on="1"/>
        <pt x="618" y="768" on="0"/>
        <pt x="599" y="725" on="0"/>
        <pt x="583" y="707" on="0"/>
        <pt x="567" y="693" on="1"/>
        <pt x="542" y="750" on="0"/>
        <pt x="469" y="810" on="0"/>
        <pt x="359" y="810" on="0"/>
        <pt x="276" y="744" on="0"/>
        <pt x="229" y="646" on="0"/>
        <pt x="213" y="585" on="1"/>
        <pt x="186" y="482" on="0"/>
        <pt x="186" y="382" on="1"/>
        <pt x="186" y="221" on="0"/>
        <pt x="290" y="49" on="0"/>
        <pt x="393" y="49" on="1"/>
        <pt x="449" y="49" on="0"/>
        <pt x="536" y="119" on="0"/>
        <pt x="559" y="186" on="1"/>
        <pt x="584" y="158" on="0"/>
        <pt x="584" y="117" on="1"/>
        <pt x="584" y="65" on="0"/>
        <pt x="449" y="-21" on="0"/>
        <pt x="365" y="-21" on="1"/>
        <pt x="220" y="-21" on="0"/>
        <pt x="78" y="177" on="0"/>
        <pt x="78" y="336" on="1"/>
        <pt x="78" y="498" on="0"/>
        <pt x="140" y="638" on="1"/>
        <pt x="208" y="792" on="0"/>
      </contour>
    </TTGlyph>
    <TTGlyph name="Ccedilla" xMin="78" yMin="-272" xMax="618" yMax="887">
      <contour>
        <pt x="365" y="-21" on="1"/>
        <pt x="351" y="-20" on="1"/>
        <pt x="332" y="-69" on="1"/>
        <pt x="397" y="-76" on="0"/>
        <pt x="451" y="-114" on="0"/>
        <pt x="451" y="-198" on="0"/>
        <pt x="379" y="-272" on="0"/>
        <pt x="304" y="-272" on="1"/>
        <pt x="265" y="-272" on="0"/>
        <pt x="216" y="-238" on="0"/>
        <pt x="216" y="-216" on="1"/>
        <pt x="216" y="-191" on="0"/>
        <pt x="267" y="-172" on="1"/>
        <pt x="269" y="-194" on="0"/>
        <pt x="296" y="-223" on="0"/>
        <pt x="342" y="-223" on="0"/>
        <pt x="374" y="-183" on="0"/>
        <pt x="374" y="-158" on="1"/>
        <pt x="374" y="-119" on="0"/>
        <pt x="334" y="-113" on="1"/>
        <pt x="282" y="-105" on="1"/>
        <pt x="269" y="-103" on="0"/>
        <pt x="269" y="-91" on="0"/>
        <pt x="300" y="-15" on="1"/>
        <pt x="188" y="6" on="0"/>
        <pt x="78" y="196" on="0"/>
        <pt x="78" y="336" on="1"/>
        <pt x="78" y="498" on="0"/>
        <pt x="140" y="638" on="1"/>
        <pt x="208" y="792" on="0"/>
        <pt x="326" y="854" on="1"/>
        <pt x="389" y="887" on="0"/>
        <pt x="531" y="887" on="0"/>
        <pt x="618" y="838" on="0"/>
        <pt x="618" y="793" on="1"/>
        <pt x="618" y="768" on="0"/>
        <pt x="599" y="725" on="0"/>
        <pt x="583" y="707" on="0"/>
        <pt x="567" y="693" on="1"/>
        <pt x="542" y="750" on="0"/>
        <pt x="469" y="810" on="0"/>
        <pt x="359" y="810" on="0"/>
        <pt x="276" y="744" on="0"/>
        <pt x="229" y="646" on="0"/>
        <pt x="213" y="585" on="1"/>
        <pt x="186" y="482" on="0"/>
        <pt x="186" y="382" on="1"/>
        <pt x="186" y="221" on="0"/>
        <pt x="290" y="49" on="0"/>
        <pt x="393" y="49" on="1"/>
        <pt x="449" y="49" on="0"/>
        <pt x="536" y="119" on="0"/>
        <pt x="559" y="186" on="1"/>
        <pt x="584" y="158" on="0"/>
        <pt x="584" y="117" on="1"/>
        <pt x="584" y="65" on="0"/>
        <pt x="449" y="-21" on="0"/>
      </contour>
    </TTGlyph>
    <TTGlyph name="D" xMin="98" yMin="-11" xMax="691" yMax="880">
      <contour>
        <pt x="283" y="-11" on="1"/>
        <pt x="184" y="-11" on="0"/>
        <pt x="98" y="49" on="0"/>
        <pt x="98" y="182" on="0"/>
        <pt x="174" y="658" on="0"/>
        <pt x="174" y="809" on="0"/>
        <pt x="159" y="854" on="1"/>
        <pt x="278" y="880" on="0"/>
        <pt x="373" y="880" on="1"/>
        <pt x="528" y="880" on="0"/>
        <pt x="691" y="733" on="0"/>
        <pt x="691" y="405" on="0"/>
        <pt x="593" y="147" on="0"/>
        <pt x="404" y="-11" on="0"/>
      </contour>
      <contour>
        <pt x="207" y="160" on="1"/>
        <pt x="207" y="115" on="0"/>
        <pt x="215" y="85" on="1"/>
        <pt x="257" y="59" on="0"/>
        <pt x="384" y="59" on="0"/>
        <pt x="496" y="148" on="0"/>
        <pt x="526" y="218" on="1"/>
        <pt x="586" y="358" on="0"/>
        <pt x="586" y="684" on="0"/>
        <pt x="488" y="819" on="0"/>
        <pt x="364" y="819" on="1"/>
        <pt x="326" y="819" on="0"/>
        <pt x="288" y="812" on="1"/>
        <pt x="288" y="761" on="0"/>
        <pt x="207" y="264" on="0"/>
      </contour>
    </TTGlyph>
    <TTGlyph name="Delta" xMin="5" yMin="-7" xMax="647" yMax="889">
      <contour>
        <pt x="604" y="-7" on="1"/>
        <pt x="51" y="-7" on="1"/>
        <pt x="5" y="-7" on="0"/>
        <pt x="5" y="43" on="1"/>
        <pt x="5" y="71" on="0"/>
        <pt x="39" y="177" on="0"/>
        <pt x="193" y="493" on="0"/>
        <pt x="317" y="782" on="0"/>
        <pt x="317" y="840" on="1"/>
        <pt x="317" y="854" on="0"/>
        <pt x="314" y="866" on="1"/>
        <pt x="321" y="875" on="0"/>
        <pt x="362" y="889" on="0"/>
        <pt x="378" y="889" on="1"/>
        <pt x="425" y="889" on="0"/>
        <pt x="473" y="850" on="0"/>
        <pt x="507" y="738" on="0"/>
        <pt x="552" y="256" on="0"/>
        <pt x="606" y="68" on="0"/>
        <pt x="647" y="29" on="1"/>
        <pt x="647" y="14" on="0"/>
        <pt x="618" y="-7" on="0"/>
      </contour>
      <contour>
        <pt x="107" y="77" on="1"/>
        <pt x="107" y="72" on="1"/>
        <pt x="206" y="63" on="0"/>
        <pt x="405" y="63" on="0"/>
        <pt x="492" y="71" on="1"/>
        <pt x="484" y="89" on="0"/>
        <pt x="476" y="115" on="1"/>
        <pt x="459" y="170" on="0"/>
        <pt x="413" y="648" on="0"/>
        <pt x="386" y="738" on="1"/>
        <pt x="372" y="705" on="0"/>
        <pt x="155" y="264" on="0"/>
        <pt x="124" y="166" on="1"/>
        <pt x="107" y="113" on="0"/>
      </contour>
    </TTGlyph>
    <TTGlyph name="E" xMin="90" yMin="-10" xMax="643" yMax="884">
      <contour>
        <pt x="321" y="867" on="1"/>
        <pt x="483" y="865" on="1"/>
        <pt x="603" y="865" on="0"/>
        <pt x="643" y="884" on="1"/>
        <pt x="638" y="819" on="0"/>
        <pt x="585" y="776" on="0"/>
        <pt x="528" y="776" on="1"/>
        <pt x="434" y="776" on="0"/>
        <pt x="293" y="798" on="1"/>
        <pt x="293" y="731" on="0"/>
        <pt x="251" y="479" on="1"/>
        <pt x="447" y="481" on="0"/>
        <pt x="507" y="512" on="1"/>
        <pt x="501" y="433" on="0"/>
        <pt x="462" y="414" on="1"/>
        <pt x="441" y="403" on="0"/>
        <pt x="403" y="398" on="0"/>
        <pt x="349" y="398" on="0"/>
        <pt x="239" y="407" on="1"/>
        <pt x="208" y="208" on="0"/>
        <pt x="208" y="112" on="1"/>
        <pt x="208" y="92" on="0"/>
        <pt x="209" y="83" on="1"/>
        <pt x="291" y="79" on="0"/>
        <pt x="347" y="79" on="1"/>
        <pt x="536" y="79" on="0"/>
        <pt x="585" y="105" on="1"/>
        <pt x="582" y="65" on="0"/>
        <pt x="561" y="17" on="0"/>
        <pt x="513" y="-5" on="0"/>
        <pt x="468" y="-10" on="0"/>
        <pt x="369" y="-10" on="0"/>
        <pt x="222" y="11" on="1"/>
        <pt x="195" y="-8" on="0"/>
        <pt x="168" y="-8" on="1"/>
        <pt x="96" y="-8" on="0"/>
        <pt x="96" y="89" on="1"/>
        <pt x="96" y="152" on="0"/>
        <pt x="141" y="412" on="1"/>
        <pt x="125" y="413" on="0"/>
        <pt x="90" y="413" on="1"/>
        <pt x="95" y="450" on="0"/>
        <pt x="117" y="475" on="0"/>
        <pt x="152" y="478" on="1"/>
        <pt x="180" y="655" on="0"/>
        <pt x="180" y="794" on="0"/>
        <pt x="165" y="839" on="1"/>
        <pt x="200" y="867" on="0"/>
      </contour>
    </TTGlyph>
    <TTGlyph name="Eacute" xMin="90" yMin="-10" xMax="643" yMax="1089">
      <contour>
        <pt x="321" y="867" on="1"/>
        <pt x="483" y="865" on="1"/>
        <pt x="603" y="865" on="0"/>
        <pt x="643" y="884" on="1"/>
        <pt x="638" y="819" on="0"/>
        <pt x="585" y="776" on="0"/>
        <pt x="528" y="776" on="1"/>
        <pt x="434" y="776" on="0"/>
        <pt x="293" y="798" on="1"/>
        <pt x="293" y="731" on="0"/>
        <pt x="251" y="479" on="1"/>
        <pt x="447" y="481" on="0"/>
        <pt x="507" y="512" on="1"/>
        <pt x="501" y="433" on="0"/>
        <pt x="462" y="414" on="1"/>
        <pt x="441" y="403" on="0"/>
        <pt x="403" y="398" on="0"/>
        <pt x="349" y="398" on="0"/>
        <pt x="239" y="407" on="1"/>
        <pt x="208" y="208" on="0"/>
        <pt x="208" y="112" on="1"/>
        <pt x="208" y="92" on="0"/>
        <pt x="209" y="83" on="1"/>
        <pt x="291" y="79" on="0"/>
        <pt x="347" y="79" on="1"/>
        <pt x="536" y="79" on="0"/>
        <pt x="585" y="105" on="1"/>
        <pt x="582" y="65" on="0"/>
        <pt x="561" y="17" on="0"/>
        <pt x="513" y="-5" on="0"/>
        <pt x="468" y="-10" on="0"/>
        <pt x="369" y="-10" on="0"/>
        <pt x="222" y="11" on="1"/>
        <pt x="195" y="-8" on="0"/>
        <pt x="168" y="-8" on="1"/>
        <pt x="96" y="-8" on="0"/>
        <pt x="96" y="89" on="1"/>
        <pt x="96" y="152" on="0"/>
        <pt x="141" y="412" on="1"/>
        <pt x="125" y="413" on="0"/>
        <pt x="90" y="413" on="1"/>
        <pt x="95" y="450" on="0"/>
        <pt x="117" y="475" on="0"/>
        <pt x="152" y="478" on="1"/>
        <pt x="180" y="655" on="0"/>
        <pt x="180" y="794" on="0"/>
        <pt x="165" y="839" on="1"/>
        <pt x="200" y="867" on="0"/>
      </contour>
      <contour>
        <pt x="306" y="911" on="1"/>
        <pt x="293" y="911" on="0"/>
        <pt x="279" y="939" on="1"/>
        <pt x="359" y="999" on="0"/>
        <pt x="426" y="1060" on="0"/>
        <pt x="439" y="1084" on="1"/>
        <pt x="463" y="1089" on="0"/>
        <pt x="516" y="1089" on="0"/>
        <pt x="543" y="1072" on="0"/>
        <pt x="543" y="1051" on="0"/>
        <pt x="530" y="1037" on="0"/>
        <pt x="453" y="982" on="0"/>
        <pt x="321" y="911" on="0"/>
      </contour>
    </TTGlyph>
    <TTGlyph name="Ecircumflex" xMin="90" yMin="-10" xMax="643" yMax="1089">
      <contour>
        <pt x="321" y="867" on="1"/>
        <pt x="483" y="865" on="1"/>
        <pt x="603" y="865" on="0"/>
        <pt x="643" y="884" on="1"/>
        <pt x="638" y="819" on="0"/>
        <pt x="585" y="776" on="0"/>
        <pt x="528" y="776" on="1"/>
        <pt x="434" y="776" on="0"/>
        <pt x="293" y="798" on="1"/>
        <pt x="293" y="731" on="0"/>
        <pt x="251" y="479" on="1"/>
        <pt x="447" y="481" on="0"/>
        <pt x="507" y="512" on="1"/>
        <pt x="501" y="433" on="0"/>
        <pt x="462" y="414" on="1"/>
        <pt x="441" y="403" on="0"/>
        <pt x="403" y="398" on="0"/>
        <pt x="349" y="398" on="0"/>
        <pt x="239" y="407" on="1"/>
        <pt x="208" y="208" on="0"/>
        <pt x="208" y="112" on="1"/>
        <pt x="208" y="92" on="0"/>
        <pt x="209" y="83" on="1"/>
        <pt x="291" y="79" on="0"/>
        <pt x="347" y="79" on="1"/>
        <pt x="536" y="79" on="0"/>
        <pt x="585" y="105" on="1"/>
        <pt x="582" y="65" on="0"/>
        <pt x="561" y="17" on="0"/>
        <pt x="513" y="-5" on="0"/>
        <pt x="468" y="-10" on="0"/>
        <pt x="369" y="-10" on="0"/>
        <pt x="222" y="11" on="1"/>
        <pt x="195" y="-8" on="0"/>
        <pt x="168" y="-8" on="1"/>
        <pt x="96" y="-8" on="0"/>
        <pt x="96" y="89" on="1"/>
        <pt x="96" y="152" on="0"/>
        <pt x="141" y="412" on="1"/>
        <pt x="125" y="413" on="0"/>
        <pt x="90" y="413" on="1"/>
        <pt x="95" y="450" on="0"/>
        <pt x="117" y="475" on="0"/>
        <pt x="152" y="478" on="1"/>
        <pt x="180" y="655" on="0"/>
        <pt x="180" y="794" on="0"/>
        <pt x="165" y="839" on="1"/>
        <pt x="200" y="867" on="0"/>
      </contour>
      <contour>
        <pt x="544" y="911" on="1"/>
        <pt x="522" y="911" on="0"/>
        <pt x="408" y="1002" on="1"/>
        <pt x="277" y="911" on="0"/>
        <pt x="249" y="911" on="1"/>
        <pt x="238" y="911" on="0"/>
        <pt x="222" y="939" on="1"/>
        <pt x="315" y="1009" on="0"/>
        <pt x="346" y="1050" on="1"/>
        <pt x="357" y="1064" on="0"/>
        <pt x="368" y="1084" on="1"/>
        <pt x="385" y="1089" on="0"/>
        <pt x="447" y="1089" on="0"/>
        <pt x="462" y="1078" on="1"/>
        <pt x="463" y="1077" on="0"/>
        <pt x="478" y="1053" on="0"/>
        <pt x="495" y="1028" on="0"/>
        <pt x="508" y="1012" on="1"/>
        <pt x="541" y="967" on="0"/>
        <pt x="571" y="939" on="1"/>
        <pt x="557" y="911" on="0"/>
      </contour>
    </TTGlyph>
    <TTGlyph name="Edieresis" xMin="90" yMin="-10" xMax="643" yMax="1055">
      <contour>
        <pt x="321" y="867" on="1"/>
        <pt x="483" y="865" on="1"/>
        <pt x="603" y="865" on="0"/>
        <pt x="643" y="884" on="1"/>
        <pt x="638" y="819" on="0"/>
        <pt x="585" y="776" on="0"/>
        <pt x="528" y="776" on="1"/>
        <pt x="434" y="776" on="0"/>
        <pt x="293" y="798" on="1"/>
        <pt x="293" y="731" on="0"/>
        <pt x="251" y="479" on="1"/>
        <pt x="447" y="481" on="0"/>
        <pt x="507" y="512" on="1"/>
        <pt x="501" y="433" on="0"/>
        <pt x="462" y="414" on="1"/>
        <pt x="441" y="403" on="0"/>
        <pt x="403" y="398" on="0"/>
        <pt x="349" y="398" on="0"/>
        <pt x="239" y="407" on="1"/>
        <pt x="208" y="208" on="0"/>
        <pt x="208" y="112" on="1"/>
        <pt x="208" y="92" on="0"/>
        <pt x="209" y="83" on="1"/>
        <pt x="291" y="79" on="0"/>
        <pt x="347" y="79" on="1"/>
        <pt x="536" y="79" on="0"/>
        <pt x="585" y="105" on="1"/>
        <pt x="582" y="65" on="0"/>
        <pt x="561" y="17" on="0"/>
        <pt x="513" y="-5" on="0"/>
        <pt x="468" y="-10" on="0"/>
        <pt x="369" y="-10" on="0"/>
        <pt x="222" y="11" on="1"/>
        <pt x="195" y="-8" on="0"/>
        <pt x="168" y="-8" on="1"/>
        <pt x="96" y="-8" on="0"/>
        <pt x="96" y="89" on="1"/>
        <pt x="96" y="152" on="0"/>
        <pt x="141" y="412" on="1"/>
        <pt x="125" y="413" on="0"/>
        <pt x="90" y="413" on="1"/>
        <pt x="95" y="450" on="0"/>
        <pt x="117" y="475" on="0"/>
        <pt x="152" y="478" on="1"/>
        <pt x="180" y="655" on="0"/>
        <pt x="180" y="794" on="0"/>
        <pt x="165" y="839" on="1"/>
        <pt x="200" y="867" on="0"/>
      </contour>
      <contour>
        <pt x="373" y="1012" on="1"/>
        <pt x="373" y="992" on="0"/>
        <pt x="362" y="951" on="1"/>
        <pt x="325" y="928" on="0"/>
        <pt x="264" y="928" on="0"/>
        <pt x="239" y="950" on="0"/>
        <pt x="239" y="998" on="0"/>
        <pt x="246" y="1032" on="1"/>
        <pt x="283" y="1055" on="0"/>
        <pt x="315" y="1055" on="1"/>
        <pt x="373" y="1055" on="0"/>
      </contour>
      <contour>
        <pt x="607" y="1012" on="1"/>
        <pt x="607" y="987" on="0"/>
        <pt x="596" y="951" on="1"/>
        <pt x="559" y="928" on="0"/>
        <pt x="498" y="928" on="0"/>
        <pt x="473" y="950" on="0"/>
        <pt x="473" y="990" on="0"/>
        <pt x="480" y="1032" on="1"/>
        <pt x="518" y="1055" on="0"/>
        <pt x="549" y="1055" on="1"/>
        <pt x="607" y="1055" on="0"/>
      </contour>
    </TTGlyph>
    <TTGlyph name="Egrave" xMin="90" yMin="-10" xMax="643" yMax="1089">
      <contour>
        <pt x="321" y="867" on="1"/>
        <pt x="483" y="865" on="1"/>
        <pt x="603" y="865" on="0"/>
        <pt x="643" y="884" on="1"/>
        <pt x="638" y="819" on="0"/>
        <pt x="585" y="776" on="0"/>
        <pt x="528" y="776" on="1"/>
        <pt x="434" y="776" on="0"/>
        <pt x="293" y="798" on="1"/>
        <pt x="293" y="731" on="0"/>
        <pt x="251" y="479" on="1"/>
        <pt x="447" y="481" on="0"/>
        <pt x="507" y="512" on="1"/>
        <pt x="501" y="433" on="0"/>
        <pt x="462" y="414" on="1"/>
        <pt x="441" y="403" on="0"/>
        <pt x="403" y="398" on="0"/>
        <pt x="349" y="398" on="0"/>
        <pt x="239" y="407" on="1"/>
        <pt x="208" y="208" on="0"/>
        <pt x="208" y="112" on="1"/>
        <pt x="208" y="92" on="0"/>
        <pt x="209" y="83" on="1"/>
        <pt x="291" y="79" on="0"/>
        <pt x="347" y="79" on="1"/>
        <pt x="536" y="79" on="0"/>
        <pt x="585" y="105" on="1"/>
        <pt x="582" y="65" on="0"/>
        <pt x="561" y="17" on="0"/>
        <pt x="513" y="-5" on="0"/>
        <pt x="468" y="-10" on="0"/>
        <pt x="369" y="-10" on="0"/>
        <pt x="222" y="11" on="1"/>
        <pt x="195" y="-8" on="0"/>
        <pt x="168" y="-8" on="1"/>
        <pt x="96" y="-8" on="0"/>
        <pt x="96" y="89" on="1"/>
        <pt x="96" y="152" on="0"/>
        <pt x="141" y="412" on="1"/>
        <pt x="125" y="413" on="0"/>
        <pt x="90" y="413" on="1"/>
        <pt x="95" y="450" on="0"/>
        <pt x="117" y="475" on="0"/>
        <pt x="152" y="478" on="1"/>
        <pt x="180" y="655" on="0"/>
        <pt x="180" y="794" on="0"/>
        <pt x="165" y="839" on="1"/>
        <pt x="200" y="867" on="0"/>
      </contour>
      <contour>
        <pt x="292" y="1037" on="0"/>
        <pt x="279" y="1051" on="0"/>
        <pt x="279" y="1072" on="0"/>
        <pt x="306" y="1089" on="0"/>
        <pt x="359" y="1089" on="0"/>
        <pt x="383" y="1084" on="1"/>
        <pt x="396" y="1061" on="0"/>
        <pt x="463" y="1000" on="0"/>
        <pt x="544" y="939" on="1"/>
        <pt x="528" y="911" on="0"/>
        <pt x="502" y="911" on="0"/>
        <pt x="369" y="983" on="0"/>
      </contour>
    </TTGlyph>
    <TTGlyph name="Eth" xMin="44" yMin="-11" xMax="691" yMax="880">
      <contour>
        <pt x="63" y="376" on="1"/>
        <pt x="44" y="406" on="0"/>
        <pt x="44" y="432" on="1"/>
        <pt x="44" y="478" on="0"/>
        <pt x="100" y="478" on="1"/>
        <pt x="105" y="478" on="0"/>
        <pt x="145" y="476" on="1"/>
        <pt x="174" y="671" on="0"/>
        <pt x="174" y="809" on="0"/>
        <pt x="159" y="854" on="1"/>
        <pt x="278" y="880" on="0"/>
        <pt x="373" y="880" on="1"/>
        <pt x="528" y="880" on="0"/>
        <pt x="691" y="733" on="0"/>
        <pt x="691" y="405" on="0"/>
        <pt x="593" y="147" on="0"/>
        <pt x="404" y="-11" on="0"/>
        <pt x="283" y="-11" on="1"/>
        <pt x="184" y="-11" on="0"/>
        <pt x="98" y="49" on="0"/>
        <pt x="98" y="185" on="0"/>
        <pt x="132" y="393" on="1"/>
        <pt x="85" y="389" on="0"/>
      </contour>
      <contour>
        <pt x="229" y="393" on="1"/>
        <pt x="207" y="247" on="0"/>
        <pt x="207" y="115" on="0"/>
        <pt x="215" y="85" on="1"/>
        <pt x="257" y="59" on="0"/>
        <pt x="384" y="59" on="0"/>
        <pt x="496" y="148" on="0"/>
        <pt x="526" y="218" on="1"/>
        <pt x="586" y="358" on="0"/>
        <pt x="586" y="684" on="0"/>
        <pt x="488" y="819" on="0"/>
        <pt x="364" y="819" on="1"/>
        <pt x="326" y="819" on="0"/>
        <pt x="288" y="812" on="1"/>
        <pt x="288" y="761" on="0"/>
        <pt x="240" y="469" on="1"/>
        <pt x="294" y="467" on="0"/>
        <pt x="334" y="467" on="0"/>
        <pt x="418" y="479" on="0"/>
        <pt x="433" y="488" on="1"/>
        <pt x="448" y="469" on="0"/>
        <pt x="448" y="442" on="1"/>
        <pt x="448" y="391" on="0"/>
        <pt x="342" y="391" on="1"/>
        <pt x="317" y="391" on="0"/>
      </contour>
    </TTGlyph>
    <TTGlyph name="Euro" xMin="-34" yMin="-21" xMax="618" yMax="887">
      <contour>
        <pt x="-3" y="462" on="1"/>
        <pt x="-24" y="493" on="0"/>
        <pt x="-24" y="518" on="1"/>
        <pt x="-24" y="564" on="0"/>
        <pt x="38" y="564" on="1"/>
        <pt x="64" y="564" on="0"/>
        <pt x="111" y="561" on="1"/>
        <pt x="155" y="704" on="0"/>
        <pt x="336" y="887" on="0"/>
        <pt x="463" y="887" on="1"/>
        <pt x="531" y="887" on="0"/>
        <pt x="618" y="838" on="0"/>
        <pt x="618" y="793" on="1"/>
        <pt x="618" y="768" on="0"/>
        <pt x="599" y="725" on="0"/>
        <pt x="583" y="707" on="0"/>
        <pt x="567" y="693" on="1"/>
        <pt x="542" y="750" on="0"/>
        <pt x="469" y="810" on="0"/>
        <pt x="411" y="810" on="1"/>
        <pt x="329" y="810" on="0"/>
        <pt x="229" y="664" on="0"/>
        <pt x="205" y="555" on="1"/>
        <pt x="229" y="553" on="0"/>
        <pt x="295" y="553" on="0"/>
        <pt x="387" y="565" on="0"/>
        <pt x="404" y="574" on="1"/>
        <pt x="421" y="556" on="0"/>
        <pt x="421" y="528" on="1"/>
        <pt x="421" y="477" on="0"/>
        <pt x="304" y="477" on="1"/>
        <pt x="238" y="477" on="0"/>
        <pt x="192" y="478" on="1"/>
        <pt x="186" y="422" on="0"/>
        <pt x="186" y="382" on="1"/>
        <pt x="186" y="361" on="1"/>
        <pt x="242" y="359" on="0"/>
        <pt x="285" y="359" on="0"/>
        <pt x="377" y="371" on="0"/>
        <pt x="394" y="380" on="1"/>
        <pt x="411" y="362" on="0"/>
        <pt x="411" y="334" on="1"/>
        <pt x="411" y="283" on="0"/>
        <pt x="294" y="283" on="1"/>
        <pt x="289" y="283" on="0"/>
        <pt x="216" y="284" on="0"/>
        <pt x="191" y="284" on="1"/>
        <pt x="221" y="49" on="0"/>
        <pt x="393" y="49" on="1"/>
        <pt x="449" y="49" on="0"/>
        <pt x="536" y="119" on="0"/>
        <pt x="559" y="186" on="1"/>
        <pt x="584" y="158" on="0"/>
        <pt x="584" y="117" on="1"/>
        <pt x="584" y="65" on="0"/>
        <pt x="449" y="-21" on="0"/>
        <pt x="365" y="-21" on="1"/>
        <pt x="231" y="-21" on="0"/>
        <pt x="90" y="147" on="0"/>
        <pt x="80" y="286" on="1"/>
        <pt x="16" y="284" on="0"/>
        <pt x="-13" y="268" on="1"/>
        <pt x="-34" y="299" on="0"/>
        <pt x="-34" y="324" on="1"/>
        <pt x="-34" y="370" on="0"/>
        <pt x="28" y="370" on="1"/>
        <pt x="36" y="370" on="0"/>
        <pt x="78" y="368" on="1"/>
        <pt x="81" y="419" on="0"/>
        <pt x="92" y="480" on="1"/>
        <pt x="26" y="478" on="0"/>
      </contour>
    </TTGlyph>
    <TTGlyph name="F" xMin="90" yMin="-7" xMax="619" yMax="884">
      <contour>
        <pt x="319" y="867" on="1"/>
        <pt x="470" y="865" on="1"/>
        <pt x="581" y="865" on="0"/>
        <pt x="619" y="884" on="1"/>
        <pt x="614" y="820" on="0"/>
        <pt x="560" y="776" on="0"/>
        <pt x="420" y="776" on="0"/>
        <pt x="293" y="798" on="1"/>
        <pt x="292" y="741" on="0"/>
        <pt x="250" y="479" on="1"/>
        <pt x="446" y="481" on="0"/>
        <pt x="507" y="512" on="1"/>
        <pt x="501" y="433" on="0"/>
        <pt x="462" y="414" on="1"/>
        <pt x="441" y="403" on="0"/>
        <pt x="403" y="398" on="0"/>
        <pt x="350" y="398" on="0"/>
        <pt x="238" y="407" on="1"/>
        <pt x="214" y="245" on="0"/>
        <pt x="214" y="72" on="0"/>
        <pt x="253" y="29" on="1"/>
        <pt x="222" y="-7" on="0"/>
        <pt x="184" y="-7" on="1"/>
        <pt x="106" y="-7" on="0"/>
        <pt x="106" y="125" on="1"/>
        <pt x="106" y="186" on="0"/>
        <pt x="142" y="412" on="1"/>
        <pt x="126" y="413" on="0"/>
        <pt x="90" y="413" on="1"/>
        <pt x="95" y="450" on="0"/>
        <pt x="117" y="475" on="0"/>
        <pt x="153" y="478" on="1"/>
        <pt x="180" y="665" on="0"/>
        <pt x="180" y="794" on="0"/>
        <pt x="165" y="839" on="1"/>
        <pt x="200" y="867" on="0"/>
      </contour>
    </TTGlyph>
    <TTGlyph name="G" xMin="78" yMin="-21" xMax="645" yMax="887">
      <contour>
        <pt x="326" y="854" on="1"/>
        <pt x="389" y="887" on="0"/>
        <pt x="531" y="887" on="0"/>
        <pt x="618" y="838" on="0"/>
        <pt x="618" y="793" on="1"/>
        <pt x="618" y="768" on="0"/>
        <pt x="599" y="725" on="0"/>
        <pt x="583" y="707" on="0"/>
        <pt x="567" y="693" on="1"/>
        <pt x="542" y="750" on="0"/>
        <pt x="469" y="810" on="0"/>
        <pt x="359" y="810" on="0"/>
        <pt x="276" y="744" on="0"/>
        <pt x="229" y="646" on="0"/>
        <pt x="213" y="585" on="1"/>
        <pt x="186" y="482" on="0"/>
        <pt x="186" y="382" on="1"/>
        <pt x="186" y="226" on="0"/>
        <pt x="276" y="49" on="0"/>
        <pt x="350" y="49" on="1"/>
        <pt x="400" y="49" on="0"/>
        <pt x="490" y="100" on="0"/>
        <pt x="521" y="144" on="1"/>
        <pt x="524" y="179" on="0"/>
        <pt x="547" y="323" on="0"/>
        <pt x="547" y="402" on="0"/>
        <pt x="532" y="435" on="1"/>
        <pt x="554" y="454" on="0"/>
        <pt x="618" y="454" on="0"/>
        <pt x="645" y="419" on="0"/>
        <pt x="645" y="348" on="0"/>
        <pt x="611" y="146" on="0"/>
        <pt x="611" y="59" on="0"/>
        <pt x="641" y="24" on="1"/>
        <pt x="615" y="-6" on="0"/>
        <pt x="581" y="-6" on="1"/>
        <pt x="526" y="-6" on="0"/>
        <pt x="519" y="70" on="1"/>
        <pt x="432" y="-21" on="0"/>
        <pt x="205" y="-21" on="0"/>
        <pt x="78" y="181" on="0"/>
        <pt x="78" y="336" on="1"/>
        <pt x="78" y="498" on="0"/>
        <pt x="140" y="638" on="1"/>
        <pt x="208" y="792" on="0"/>
      </contour>
    </TTGlyph>
    <TTGlyph name="H" xMin="98" yMin="-7" xMax="708" yMax="889">
      <contour>
        <pt x="250" y="889" on="0"/>
        <pt x="284" y="840" on="0"/>
        <pt x="284" y="710" on="0"/>
        <pt x="240" y="468" on="1"/>
        <pt x="567" y="468" on="1"/>
        <pt x="594" y="655" on="0"/>
        <pt x="594" y="824" on="0"/>
        <pt x="573" y="866" on="1"/>
        <pt x="583" y="875" on="0"/>
        <pt x="624" y="889" on="0"/>
        <pt x="640" y="889" on="1"/>
        <pt x="675" y="889" on="0"/>
        <pt x="708" y="841" on="0"/>
        <pt x="708" y="730" on="0"/>
        <pt x="631" y="267" on="0"/>
        <pt x="631" y="72" on="0"/>
        <pt x="669" y="29" on="1"/>
        <pt x="639" y="-7" on="0"/>
        <pt x="600" y="-7" on="1"/>
        <pt x="522" y="-7" on="0"/>
        <pt x="522" y="125" on="1"/>
        <pt x="522" y="175" on="0"/>
        <pt x="556" y="395" on="1"/>
        <pt x="229" y="395" on="1"/>
        <pt x="207" y="255" on="0"/>
        <pt x="207" y="70" on="0"/>
        <pt x="245" y="29" on="1"/>
        <pt x="214" y="-7" on="0"/>
        <pt x="176" y="-7" on="1"/>
        <pt x="98" y="-7" on="0"/>
        <pt x="98" y="125" on="1"/>
        <pt x="98" y="180" on="0"/>
        <pt x="169" y="641" on="0"/>
        <pt x="169" y="824" on="0"/>
        <pt x="148" y="866" on="1"/>
        <pt x="175" y="889" on="0"/>
      </contour>
    </TTGlyph>
    <TTGlyph name="I" xMin="98" yMin="-7" xMax="284" yMax="889">
      <contour>
        <pt x="284" y="730" on="0"/>
        <pt x="207" y="267" on="0"/>
        <pt x="207" y="70" on="0"/>
        <pt x="245" y="29" on="1"/>
        <pt x="214" y="-7" on="0"/>
        <pt x="176" y="-7" on="1"/>
        <pt x="98" y="-7" on="0"/>
        <pt x="98" y="125" on="1"/>
        <pt x="98" y="180" on="0"/>
        <pt x="169" y="641" on="0"/>
        <pt x="169" y="824" on="0"/>
        <pt x="148" y="866" on="1"/>
        <pt x="175" y="889" on="0"/>
        <pt x="250" y="889" on="0"/>
        <pt x="284" y="840" on="0"/>
      </contour>
    </TTGlyph>
    <TTGlyph name="Iacute" xMin="89" yMin="-7" xMax="353" yMax="1089">
      <contour>
        <pt x="284" y="730" on="0"/>
        <pt x="207" y="267" on="0"/>
        <pt x="207" y="70" on="0"/>
        <pt x="245" y="29" on="1"/>
        <pt x="214" y="-7" on="0"/>
        <pt x="176" y="-7" on="1"/>
        <pt x="98" y="-7" on="0"/>
        <pt x="98" y="125" on="1"/>
        <pt x="98" y="180" on="0"/>
        <pt x="169" y="641" on="0"/>
        <pt x="169" y="824" on="0"/>
        <pt x="148" y="866" on="1"/>
        <pt x="175" y="889" on="0"/>
        <pt x="250" y="889" on="0"/>
        <pt x="284" y="840" on="0"/>
      </contour>
      <contour>
        <pt x="116" y="911" on="1"/>
        <pt x="103" y="911" on="0"/>
        <pt x="89" y="939" on="1"/>
        <pt x="169" y="999" on="0"/>
        <pt x="236" y="1060" on="0"/>
        <pt x="249" y="1084" on="1"/>
        <pt x="273" y="1089" on="0"/>
        <pt x="326" y="1089" on="0"/>
        <pt x="353" y="1072" on="0"/>
        <pt x="353" y="1051" on="0"/>
        <pt x="340" y="1037" on="0"/>
        <pt x="263" y="982" on="0"/>
        <pt x="131" y="911" on="0"/>
      </contour>
    </TTGlyph>
    <TTGlyph name="Icircumflex" xMin="35" yMin="-7" xMax="384" yMax="1089">
      <contour>
        <pt x="284" y="730" on="0"/>
        <pt x="207" y="267" on="0"/>
        <pt x="207" y="70" on="0"/>
        <pt x="245" y="29" on="1"/>
        <pt x="214" y="-7" on="0"/>
        <pt x="176" y="-7" on="1"/>
        <pt x="98" y="-7" on="0"/>
        <pt x="98" y="125" on="1"/>
        <pt x="98" y="180" on="0"/>
        <pt x="169" y="641" on="0"/>
        <pt x="169" y="824" on="0"/>
        <pt x="148" y="866" on="1"/>
        <pt x="175" y="889" on="0"/>
        <pt x="250" y="889" on="0"/>
        <pt x="284" y="840" on="0"/>
      </contour>
      <contour>
        <pt x="357" y="911" on="1"/>
        <pt x="335" y="911" on="0"/>
        <pt x="221" y="1002" on="1"/>
        <pt x="90" y="911" on="0"/>
        <pt x="62" y="911" on="1"/>
        <pt x="51" y="911" on="0"/>
        <pt x="35" y="939" on="1"/>
        <pt x="128" y="1009" on="0"/>
        <pt x="160" y="1050" on="1"/>
        <pt x="170" y="1064" on="0"/>
        <pt x="181" y="1084" on="1"/>
        <pt x="198" y="1089" on="0"/>
        <pt x="260" y="1089" on="0"/>
        <pt x="275" y="1078" on="1"/>
        <pt x="276" y="1077" on="0"/>
        <pt x="291" y="1053" on="0"/>
        <pt x="308" y="1028" on="0"/>
        <pt x="320" y="1012" on="1"/>
        <pt x="354" y="967" on="0"/>
        <pt x="384" y="939" on="1"/>
        <pt x="370" y="911" on="0"/>
      </contour>
    </TTGlyph>
    <TTGlyph name="Idieresis" xMin="65" yMin="-7" xMax="433" yMax="1055">
      <contour>
        <pt x="199" y="1012" on="1"/>
        <pt x="199" y="992" on="0"/>
        <pt x="188" y="951" on="1"/>
        <pt x="151" y="928" on="0"/>
        <pt x="90" y="928" on="0"/>
        <pt x="65" y="950" on="0"/>
        <pt x="65" y="998" on="0"/>
        <pt x="72" y="1032" on="1"/>
        <pt x="109" y="1055" on="0"/>
        <pt x="141" y="1055" on="1"/>
        <pt x="199" y="1055" on="0"/>
      </contour>
      <contour>
        <pt x="433" y="1012" on="1"/>
        <pt x="433" y="987" on="0"/>
        <pt x="422" y="951" on="1"/>
        <pt x="385" y="928" on="0"/>
        <pt x="324" y="928" on="0"/>
        <pt x="299" y="950" on="0"/>
        <pt x="299" y="990" on="0"/>
        <pt x="306" y="1032" on="1"/>
        <pt x="344" y="1055" on="0"/>
        <pt x="375" y="1055" on="1"/>
        <pt x="433" y="1055" on="0"/>
      </contour>
      <contour>
        <pt x="284" y="730" on="0"/>
        <pt x="207" y="267" on="0"/>
        <pt x="207" y="70" on="0"/>
        <pt x="245" y="29" on="1"/>
        <pt x="214" y="-7" on="0"/>
        <pt x="176" y="-7" on="1"/>
        <pt x="98" y="-7" on="0"/>
        <pt x="98" y="125" on="1"/>
        <pt x="98" y="180" on="0"/>
        <pt x="169" y="641" on="0"/>
        <pt x="169" y="824" on="0"/>
        <pt x="148" y="866" on="1"/>
        <pt x="175" y="889" on="0"/>
        <pt x="250" y="889" on="0"/>
        <pt x="284" y="840" on="0"/>
      </contour>
    </TTGlyph>
    <TTGlyph name="Igrave" xMin="91" yMin="-7" xMax="356" yMax="1089">
      <contour>
        <pt x="284" y="730" on="0"/>
        <pt x="207" y="267" on="0"/>
        <pt x="207" y="70" on="0"/>
        <pt x="245" y="29" on="1"/>
        <pt x="214" y="-7" on="0"/>
        <pt x="176" y="-7" on="1"/>
        <pt x="98" y="-7" on="0"/>
        <pt x="98" y="125" on="1"/>
        <pt x="98" y="180" on="0"/>
        <pt x="169" y="641" on="0"/>
        <pt x="169" y="824" on="0"/>
        <pt x="148" y="866" on="1"/>
        <pt x="175" y="889" on="0"/>
        <pt x="250" y="889" on="0"/>
        <pt x="284" y="840" on="0"/>
      </contour>
      <contour>
        <pt x="104" y="1037" on="0"/>
        <pt x="91" y="1051" on="0"/>
        <pt x="91" y="1072" on="0"/>
        <pt x="118" y="1089" on="0"/>
        <pt x="171" y="1089" on="0"/>
        <pt x="195" y="1084" on="1"/>
        <pt x="208" y="1061" on="0"/>
        <pt x="275" y="1000" on="0"/>
        <pt x="356" y="939" on="1"/>
        <pt x="340" y="911" on="0"/>
        <pt x="314" y="911" on="0"/>
        <pt x="181" y="983" on="0"/>
      </contour>
    </TTGlyph>
    <TTGlyph name="J" xMin="-212" yMin="-229" xMax="276" yMax="889">
      <contour>
        <pt x="276" y="783" on="1"/>
        <pt x="276" y="576" on="0"/>
        <pt x="246" y="352" on="1"/>
        <pt x="217" y="126" on="0"/>
        <pt x="134" y="-50" on="1"/>
        <pt x="95" y="-133" on="0"/>
        <pt x="-21" y="-229" on="0"/>
        <pt x="-92" y="-229" on="1"/>
        <pt x="-139" y="-229" on="0"/>
        <pt x="-212" y="-183" on="0"/>
        <pt x="-212" y="-85" on="0"/>
        <pt x="-176" y="-51" on="1"/>
        <pt x="-159" y="-100" on="0"/>
        <pt x="-111" y="-149" on="0"/>
        <pt x="-19" y="-149" on="0"/>
        <pt x="54" y="-61" on="0"/>
        <pt x="102" y="91" on="0"/>
        <pt x="136" y="270" on="0"/>
        <pt x="145" y="374" on="1"/>
        <pt x="162" y="569" on="0"/>
        <pt x="162" y="731" on="1"/>
        <pt x="162" y="824" on="0"/>
        <pt x="141" y="866" on="1"/>
        <pt x="151" y="875" on="0"/>
        <pt x="192" y="889" on="0"/>
        <pt x="208" y="889" on="1"/>
        <pt x="242" y="889" on="0"/>
        <pt x="276" y="840" on="0"/>
      </contour>
    </TTGlyph>
    <TTGlyph name="K" xMin="98" yMin="-10" xMax="661" yMax="889">
      <contour>
        <pt x="222" y="346" on="1"/>
        <pt x="207" y="238" on="0"/>
        <pt x="207" y="70" on="0"/>
        <pt x="245" y="29" on="1"/>
        <pt x="214" y="-7" on="0"/>
        <pt x="176" y="-7" on="1"/>
        <pt x="98" y="-7" on="0"/>
        <pt x="98" y="125" on="1"/>
        <pt x="98" y="180" on="0"/>
        <pt x="169" y="641" on="0"/>
        <pt x="169" y="824" on="0"/>
        <pt x="148" y="866" on="1"/>
        <pt x="175" y="889" on="0"/>
        <pt x="250" y="889" on="0"/>
        <pt x="284" y="840" on="0"/>
        <pt x="284" y="783" on="1"/>
        <pt x="284" y="718" on="0"/>
        <pt x="236" y="440" on="1"/>
        <pt x="366" y="569" on="0"/>
        <pt x="559" y="834" on="0"/>
        <pt x="571" y="879" on="1"/>
        <pt x="612" y="879" on="0"/>
        <pt x="661" y="853" on="0"/>
        <pt x="661" y="816" on="0"/>
        <pt x="467" y="588" on="0"/>
        <pt x="354" y="472" on="1"/>
        <pt x="362" y="457" on="0"/>
        <pt x="422" y="335" on="0"/>
        <pt x="441" y="298" on="1"/>
        <pt x="495" y="191" on="0"/>
        <pt x="523" y="151" on="1"/>
        <pt x="572" y="83" on="0"/>
        <pt x="632" y="74" on="1"/>
        <pt x="625" y="28" on="0"/>
        <pt x="576" y="-10" on="0"/>
        <pt x="553" y="-10" on="1"/>
        <pt x="503" y="-10" on="0"/>
        <pt x="458" y="57" on="1"/>
        <pt x="437" y="88" on="0"/>
        <pt x="283" y="403" on="1"/>
        <pt x="241" y="363" on="0"/>
      </contour>
    </TTGlyph>
    <TTGlyph name="L" xMin="86" yMin="-10" xMax="562" yMax="889">
      <contour>
        <pt x="250" y="889" on="0"/>
        <pt x="284" y="840" on="0"/>
        <pt x="284" y="722" on="0"/>
        <pt x="199" y="215" on="0"/>
        <pt x="199" y="112" on="1"/>
        <pt x="199" y="92" on="0"/>
        <pt x="200" y="82" on="1"/>
        <pt x="257" y="79" on="0"/>
        <pt x="329" y="79" on="1"/>
        <pt x="515" y="79" on="0"/>
        <pt x="562" y="105" on="1"/>
        <pt x="559" y="65" on="0"/>
        <pt x="539" y="17" on="0"/>
        <pt x="494" y="-5" on="0"/>
        <pt x="451" y="-10" on="0"/>
        <pt x="357" y="-10" on="0"/>
        <pt x="214" y="11" on="1"/>
        <pt x="187" y="-8" on="0"/>
        <pt x="158" y="-8" on="1"/>
        <pt x="86" y="-8" on="0"/>
        <pt x="86" y="89" on="1"/>
        <pt x="86" y="153" on="0"/>
        <pt x="169" y="629" on="0"/>
        <pt x="169" y="824" on="0"/>
        <pt x="148" y="866" on="1"/>
        <pt x="175" y="889" on="0"/>
      </contour>
    </TTGlyph>
    <TTGlyph name="Lslash" xMin="17" yMin="-10" xMax="562" yMax="889">
      <contour>
        <pt x="17" y="405" on="1"/>
        <pt x="17" y="432" on="0"/>
        <pt x="58" y="454" on="1"/>
        <pt x="91" y="472" on="0"/>
        <pt x="145" y="494" on="1"/>
        <pt x="169" y="651" on="0"/>
        <pt x="169" y="824" on="0"/>
        <pt x="148" y="866" on="1"/>
        <pt x="175" y="889" on="0"/>
        <pt x="250" y="889" on="0"/>
        <pt x="284" y="840" on="0"/>
        <pt x="284" y="722" on="0"/>
        <pt x="255" y="550" on="1"/>
        <pt x="311" y="586" on="0"/>
        <pt x="323" y="609" on="1"/>
        <pt x="342" y="600" on="0"/>
        <pt x="367" y="567" on="0"/>
        <pt x="367" y="550" on="1"/>
        <pt x="367" y="500" on="0"/>
        <pt x="237" y="445" on="1"/>
        <pt x="199" y="219" on="0"/>
        <pt x="199" y="112" on="1"/>
        <pt x="199" y="92" on="0"/>
        <pt x="200" y="82" on="1"/>
        <pt x="257" y="79" on="0"/>
        <pt x="329" y="79" on="1"/>
        <pt x="515" y="79" on="0"/>
        <pt x="562" y="105" on="1"/>
        <pt x="559" y="65" on="0"/>
        <pt x="539" y="17" on="0"/>
        <pt x="494" y="-5" on="0"/>
        <pt x="451" y="-10" on="0"/>
        <pt x="357" y="-10" on="0"/>
        <pt x="214" y="11" on="1"/>
        <pt x="187" y="-8" on="0"/>
        <pt x="158" y="-8" on="1"/>
        <pt x="86" y="-8" on="0"/>
        <pt x="86" y="89" on="1"/>
        <pt x="86" y="146" on="0"/>
        <pt x="127" y="390" on="1"/>
        <pt x="85" y="362" on="0"/>
        <pt x="70" y="338" on="1"/>
        <pt x="17" y="368" on="0"/>
      </contour>
    </TTGlyph>
    <TTGlyph name="M" xMin="98" yMin="-7" xMax="838" yMax="889">
      <contour>
        <pt x="838" y="730" on="0"/>
        <pt x="761" y="267" on="0"/>
        <pt x="761" y="72" on="0"/>
        <pt x="799" y="29" on="1"/>
        <pt x="768" y="-7" on="0"/>
        <pt x="730" y="-7" on="1"/>
        <pt x="652" y="-7" on="0"/>
        <pt x="652" y="125" on="1"/>
        <pt x="652" y="179" on="0"/>
        <pt x="724" y="644" on="0"/>
        <pt x="724" y="740" on="1"/>
        <pt x="577" y="445" on="0"/>
        <pt x="527" y="290" on="0"/>
        <pt x="527" y="254" on="1"/>
        <pt x="527" y="246" on="0"/>
        <pt x="529" y="230" on="1"/>
        <pt x="522" y="221" on="0"/>
        <pt x="481" y="207" on="0"/>
        <pt x="460" y="207" on="1"/>
        <pt x="416" y="207" on="0"/>
        <pt x="369" y="264" on="0"/>
        <pt x="331" y="419" on="0"/>
        <pt x="281" y="639" on="0"/>
        <pt x="260" y="716" on="1"/>
        <pt x="258" y="697" on="0"/>
        <pt x="187" y="260" on="0"/>
        <pt x="187" y="72" on="0"/>
        <pt x="226" y="29" on="1"/>
        <pt x="212" y="-7" on="0"/>
        <pt x="171" y="-7" on="1"/>
        <pt x="98" y="-7" on="0"/>
        <pt x="98" y="125" on="1"/>
        <pt x="98" y="180" on="0"/>
        <pt x="169" y="641" on="0"/>
        <pt x="169" y="824" on="0"/>
        <pt x="148" y="866" on="1"/>
        <pt x="171" y="889" on="0"/>
        <pt x="265" y="888" on="0"/>
        <pt x="332" y="835" on="0"/>
        <pt x="369" y="714" on="0"/>
        <pt x="430" y="426" on="0"/>
        <pt x="460" y="330" on="1"/>
        <pt x="482" y="390" on="0"/>
        <pt x="598" y="633" on="0"/>
        <pt x="678" y="820" on="0"/>
        <pt x="678" y="861" on="1"/>
        <pt x="710" y="889" on="0"/>
        <pt x="770" y="889" on="1"/>
        <pt x="804" y="889" on="0"/>
        <pt x="838" y="840" on="0"/>
      </contour>
    </TTGlyph>
    <TTGlyph name="N" xMin="98" yMin="-7" xMax="721" yMax="889">
      <contour>
        <pt x="721" y="730" on="0"/>
        <pt x="644" y="267" on="0"/>
        <pt x="644" y="74" on="0"/>
        <pt x="685" y="29" on="1"/>
        <pt x="671" y="-7" on="0"/>
        <pt x="575" y="-7" on="0"/>
        <pt x="509" y="44" on="0"/>
        <pt x="444" y="170" on="0"/>
        <pt x="300" y="618" on="0"/>
        <pt x="259" y="707" on="1"/>
        <pt x="258" y="698" on="0"/>
        <pt x="187" y="259" on="0"/>
        <pt x="187" y="72" on="0"/>
        <pt x="226" y="29" on="1"/>
        <pt x="212" y="-7" on="0"/>
        <pt x="171" y="-7" on="1"/>
        <pt x="98" y="-7" on="0"/>
        <pt x="98" y="125" on="1"/>
        <pt x="98" y="180" on="0"/>
        <pt x="169" y="641" on="0"/>
        <pt x="169" y="824" on="0"/>
        <pt x="148" y="866" on="1"/>
        <pt x="153" y="875" on="0"/>
        <pt x="191" y="889" on="0"/>
        <pt x="257" y="889" on="0"/>
        <pt x="311" y="849" on="0"/>
        <pt x="368" y="739" on="0"/>
        <pt x="511" y="280" on="0"/>
        <pt x="558" y="180" on="1"/>
        <pt x="562" y="219" on="0"/>
        <pt x="626" y="646" on="0"/>
        <pt x="626" y="824" on="0"/>
        <pt x="605" y="866" on="1"/>
        <pt x="613" y="875" on="0"/>
        <pt x="652" y="889" on="0"/>
        <pt x="665" y="889" on="1"/>
        <pt x="694" y="889" on="0"/>
        <pt x="721" y="841" on="0"/>
      </contour>
    </TTGlyph>
    <TTGlyph name="Ntilde" xMin="98" yMin="-7" xMax="721" yMax="1074">
      <contour>
        <pt x="721" y="730" on="0"/>
        <pt x="644" y="267" on="0"/>
        <pt x="644" y="74" on="0"/>
        <pt x="685" y="29" on="1"/>
        <pt x="671" y="-7" on="0"/>
        <pt x="575" y="-7" on="0"/>
        <pt x="509" y="44" on="0"/>
        <pt x="444" y="170" on="0"/>
        <pt x="300" y="618" on="0"/>
        <pt x="259" y="707" on="1"/>
        <pt x="258" y="698" on="0"/>
        <pt x="187" y="259" on="0"/>
        <pt x="187" y="72" on="0"/>
        <pt x="226" y="29" on="1"/>
        <pt x="212" y="-7" on="0"/>
        <pt x="171" y="-7" on="1"/>
        <pt x="98" y="-7" on="0"/>
        <pt x="98" y="125" on="1"/>
        <pt x="98" y="180" on="0"/>
        <pt x="169" y="641" on="0"/>
        <pt x="169" y="824" on="0"/>
        <pt x="148" y="866" on="1"/>
        <pt x="153" y="875" on="0"/>
        <pt x="191" y="889" on="0"/>
        <pt x="257" y="889" on="0"/>
        <pt x="311" y="849" on="0"/>
        <pt x="368" y="739" on="0"/>
        <pt x="511" y="280" on="0"/>
        <pt x="558" y="180" on="1"/>
        <pt x="562" y="219" on="0"/>
        <pt x="626" y="646" on="0"/>
        <pt x="626" y="824" on="0"/>
        <pt x="605" y="866" on="1"/>
        <pt x="613" y="875" on="0"/>
        <pt x="652" y="889" on="0"/>
        <pt x="665" y="889" on="1"/>
        <pt x="694" y="889" on="0"/>
        <pt x="721" y="841" on="0"/>
      </contour>
      <contour>
        <pt x="637" y="1042" on="1"/>
        <pt x="637" y="999" on="0"/>
        <pt x="579" y="927" on="0"/>
        <pt x="506" y="927" on="0"/>
        <pt x="455" y="960" on="0"/>
        <pt x="415" y="993" on="0"/>
        <pt x="377" y="993" on="0"/>
        <pt x="349" y="959" on="0"/>
        <pt x="344" y="926" on="1"/>
        <pt x="300" y="926" on="0"/>
        <pt x="300" y="958" on="1"/>
        <pt x="300" y="1001" on="0"/>
        <pt x="358" y="1073" on="0"/>
        <pt x="431" y="1073" on="0"/>
        <pt x="482" y="1040" on="0"/>
        <pt x="522" y="1007" on="0"/>
        <pt x="560" y="1007" on="0"/>
        <pt x="588" y="1041" on="0"/>
        <pt x="593" y="1074" on="1"/>
        <pt x="637" y="1074" on="0"/>
      </contour>
    </TTGlyph>
    <TTGlyph name="O" xMin="78" yMin="-21" xMax="738" yMax="889">
      <contour>
        <pt x="630" y="487" on="1"/>
        <pt x="630" y="644" on="0"/>
        <pt x="513" y="810" on="0"/>
        <pt x="411" y="810" on="1"/>
        <pt x="359" y="810" on="0"/>
        <pt x="277" y="743" on="0"/>
        <pt x="229" y="646" on="0"/>
        <pt x="213" y="584" on="1"/>
        <pt x="186" y="481" on="0"/>
        <pt x="186" y="380" on="1"/>
        <pt x="186" y="223" on="0"/>
        <pt x="303" y="57" on="0"/>
        <pt x="405" y="57" on="1"/>
        <pt x="457" y="57" on="0"/>
        <pt x="539" y="124" on="0"/>
        <pt x="587" y="221" on="0"/>
        <pt x="603" y="282" on="1"/>
        <pt x="630" y="386" on="0"/>
      </contour>
      <contour>
        <pt x="344" y="-21" on="1"/>
        <pt x="219" y="-21" on="0"/>
        <pt x="78" y="181" on="0"/>
        <pt x="78" y="336" on="1"/>
        <pt x="78" y="536" on="0"/>
        <pt x="176" y="706" on="1"/>
        <pt x="223" y="787" on="0"/>
        <pt x="378" y="889" on="0"/>
        <pt x="472" y="889" on="1"/>
        <pt x="597" y="889" on="0"/>
        <pt x="738" y="686" on="0"/>
        <pt x="738" y="531" on="1"/>
        <pt x="738" y="370" on="0"/>
        <pt x="674" y="229" on="1"/>
        <pt x="604" y="73" on="0"/>
        <pt x="486" y="12" on="1"/>
        <pt x="420" y="-21" on="0"/>
      </contour>
    </TTGlyph>
    <TTGlyph name="OE" xMin="78" yMin="-26" xMax="1030" yMax="889">
      <contour>
        <pt x="708" y="867" on="1"/>
        <pt x="870" y="865" on="1"/>
        <pt x="990" y="865" on="0"/>
        <pt x="1030" y="884" on="1"/>
        <pt x="1025" y="819" on="0"/>
        <pt x="972" y="776" on="0"/>
        <pt x="915" y="776" on="1"/>
        <pt x="821" y="776" on="0"/>
        <pt x="680" y="798" on="1"/>
        <pt x="680" y="731" on="0"/>
        <pt x="638" y="479" on="1"/>
        <pt x="831" y="481" on="0"/>
        <pt x="894" y="512" on="1"/>
        <pt x="888" y="433" on="0"/>
        <pt x="849" y="414" on="1"/>
        <pt x="828" y="403" on="0"/>
        <pt x="790" y="398" on="0"/>
        <pt x="724" y="398" on="0"/>
        <pt x="626" y="406" on="1"/>
        <pt x="595" y="209" on="0"/>
        <pt x="595" y="112" on="1"/>
        <pt x="595" y="92" on="0"/>
        <pt x="596" y="83" on="1"/>
        <pt x="678" y="79" on="0"/>
        <pt x="734" y="79" on="1"/>
        <pt x="923" y="79" on="0"/>
        <pt x="972" y="105" on="1"/>
        <pt x="969" y="65" on="0"/>
        <pt x="948" y="17" on="0"/>
        <pt x="900" y="-5" on="0"/>
        <pt x="855" y="-10" on="0"/>
        <pt x="745" y="-10" on="0"/>
        <pt x="581" y="15" on="1"/>
        <pt x="504" y="-26" on="0"/>
        <pt x="284" y="-26" on="0"/>
        <pt x="212" y="24" on="1"/>
        <pt x="78" y="118" on="0"/>
        <pt x="78" y="336" on="1"/>
        <pt x="78" y="536" on="0"/>
        <pt x="176" y="706" on="1"/>
        <pt x="223" y="787" on="0"/>
        <pt x="378" y="889" on="0"/>
        <pt x="472" y="889" on="1"/>
        <pt x="541" y="889" on="0"/>
        <pt x="593" y="857" on="1"/>
        <pt x="634" y="867" on="0"/>
      </contour>
      <contour>
        <pt x="405" y="57" on="1"/>
        <pt x="441" y="57" on="0"/>
        <pt x="483" y="71" on="1"/>
        <pt x="483" y="89" on="1"/>
        <pt x="483" y="153" on="0"/>
        <pt x="566" y="631" on="0"/>
        <pt x="567" y="733" on="1"/>
        <pt x="510" y="810" on="0"/>
        <pt x="411" y="810" on="1"/>
        <pt x="359" y="810" on="0"/>
        <pt x="277" y="743" on="0"/>
        <pt x="229" y="646" on="0"/>
        <pt x="213" y="584" on="1"/>
        <pt x="186" y="481" on="0"/>
        <pt x="186" y="380" on="1"/>
        <pt x="186" y="223" on="0"/>
        <pt x="303" y="57" on="0"/>
      </contour>
    </TTGlyph>
    <TTGlyph name="Oacute" xMin="78" yMin="-21" xMax="738" yMax="1089">
      <contour>
        <pt x="630" y="487" on="1"/>
        <pt x="630" y="644" on="0"/>
        <pt x="513" y="810" on="0"/>
        <pt x="411" y="810" on="1"/>
        <pt x="359" y="810" on="0"/>
        <pt x="277" y="743" on="0"/>
        <pt x="229" y="646" on="0"/>
        <pt x="213" y="584" on="1"/>
        <pt x="186" y="481" on="0"/>
        <pt x="186" y="380" on="1"/>
        <pt x="186" y="223" on="0"/>
        <pt x="303" y="57" on="0"/>
        <pt x="405" y="57" on="1"/>
        <pt x="457" y="57" on="0"/>
        <pt x="539" y="124" on="0"/>
        <pt x="587" y="221" on="0"/>
        <pt x="603" y="282" on="1"/>
        <pt x="630" y="386" on="0"/>
      </contour>
      <contour>
        <pt x="344" y="-21" on="1"/>
        <pt x="219" y="-21" on="0"/>
        <pt x="78" y="181" on="0"/>
        <pt x="78" y="336" on="1"/>
        <pt x="78" y="536" on="0"/>
        <pt x="176" y="706" on="1"/>
        <pt x="223" y="787" on="0"/>
        <pt x="378" y="889" on="0"/>
        <pt x="472" y="889" on="1"/>
        <pt x="597" y="889" on="0"/>
        <pt x="738" y="686" on="0"/>
        <pt x="738" y="531" on="1"/>
        <pt x="738" y="370" on="0"/>
        <pt x="674" y="229" on="1"/>
        <pt x="604" y="73" on="0"/>
        <pt x="486" y="12" on="1"/>
        <pt x="420" y="-21" on="0"/>
      </contour>
      <contour>
        <pt x="367" y="911" on="1"/>
        <pt x="354" y="911" on="0"/>
        <pt x="340" y="939" on="1"/>
        <pt x="420" y="999" on="0"/>
        <pt x="487" y="1060" on="0"/>
        <pt x="500" y="1084" on="1"/>
        <pt x="524" y="1089" on="0"/>
        <pt x="577" y="1089" on="0"/>
        <pt x="604" y="1072" on="0"/>
        <pt x="604" y="1051" on="0"/>
        <pt x="591" y="1037" on="0"/>
        <pt x="514" y="982" on="0"/>
        <pt x="382" y="911" on="0"/>
      </contour>
    </TTGlyph>
    <TTGlyph name="Ocircumflex" xMin="78" yMin="-21" xMax="738" yMax="1089">
      <contour>
        <pt x="630" y="487" on="1"/>
        <pt x="630" y="644" on="0"/>
        <pt x="513" y="810" on="0"/>
        <pt x="411" y="810" on="1"/>
        <pt x="359" y="810" on="0"/>
        <pt x="277" y="743" on="0"/>
        <pt x="229" y="646" on="0"/>
        <pt x="213" y="584" on="1"/>
        <pt x="186" y="481" on="0"/>
        <pt x="186" y="380" on="1"/>
        <pt x="186" y="223" on="0"/>
        <pt x="303" y="57" on="0"/>
        <pt x="405" y="57" on="1"/>
        <pt x="457" y="57" on="0"/>
        <pt x="539" y="124" on="0"/>
        <pt x="587" y="221" on="0"/>
        <pt x="603" y="282" on="1"/>
        <pt x="630" y="386" on="0"/>
      </contour>
      <contour>
        <pt x="344" y="-21" on="1"/>
        <pt x="219" y="-21" on="0"/>
        <pt x="78" y="181" on="0"/>
        <pt x="78" y="336" on="1"/>
        <pt x="78" y="536" on="0"/>
        <pt x="176" y="706" on="1"/>
        <pt x="223" y="787" on="0"/>
        <pt x="378" y="889" on="0"/>
        <pt x="472" y="889" on="1"/>
        <pt x="597" y="889" on="0"/>
        <pt x="738" y="686" on="0"/>
        <pt x="738" y="531" on="1"/>
        <pt x="738" y="370" on="0"/>
        <pt x="674" y="229" on="1"/>
        <pt x="604" y="73" on="0"/>
        <pt x="486" y="12" on="1"/>
        <pt x="420" y="-21" on="0"/>
      </contour>
      <contour>
        <pt x="611" y="911" on="1"/>
        <pt x="589" y="911" on="0"/>
        <pt x="475" y="1002" on="1"/>
        <pt x="344" y="911" on="0"/>
        <pt x="316" y="911" on="1"/>
        <pt x="305" y="911" on="0"/>
        <pt x="289" y="939" on="1"/>
        <pt x="383" y="1009" on="0"/>
        <pt x="414" y="1050" on="1"/>
        <pt x="424" y="1064" on="0"/>
        <pt x="435" y="1084" on="1"/>
        <pt x="452" y="1089" on="0"/>
        <pt x="514" y="1089" on="0"/>
        <pt x="529" y="1078" on="1"/>
        <pt x="530" y="1077" on="0"/>
        <pt x="545" y="1053" on="0"/>
        <pt x="562" y="1028" on="0"/>
        <pt x="574" y="1012" on="1"/>
        <pt x="608" y="967" on="0"/>
        <pt x="638" y="939" on="1"/>
        <pt x="624" y="911" on="0"/>
      </contour>
    </TTGlyph>
    <TTGlyph name="Odieresis" xMin="78" yMin="-21" xMax="738" yMax="1055">
      <contour>
        <pt x="630" y="487" on="1"/>
        <pt x="630" y="644" on="0"/>
        <pt x="513" y="810" on="0"/>
        <pt x="411" y="810" on="1"/>
        <pt x="359" y="810" on="0"/>
        <pt x="277" y="743" on="0"/>
        <pt x="229" y="646" on="0"/>
        <pt x="213" y="584" on="1"/>
        <pt x="186" y="481" on="0"/>
        <pt x="186" y="380" on="1"/>
        <pt x="186" y="223" on="0"/>
        <pt x="303" y="57" on="0"/>
        <pt x="405" y="57" on="1"/>
        <pt x="457" y="57" on="0"/>
        <pt x="539" y="124" on="0"/>
        <pt x="587" y="221" on="0"/>
        <pt x="603" y="282" on="1"/>
        <pt x="630" y="386" on="0"/>
      </contour>
      <contour>
        <pt x="344" y="-21" on="1"/>
        <pt x="219" y="-21" on="0"/>
        <pt x="78" y="181" on="0"/>
        <pt x="78" y="336" on="1"/>
        <pt x="78" y="536" on="0"/>
        <pt x="176" y="706" on="1"/>
        <pt x="223" y="787" on="0"/>
        <pt x="378" y="889" on="0"/>
        <pt x="472" y="889" on="1"/>
        <pt x="597" y="889" on="0"/>
        <pt x="738" y="686" on="0"/>
        <pt x="738" y="531" on="1"/>
        <pt x="738" y="370" on="0"/>
        <pt x="674" y="229" on="1"/>
        <pt x="604" y="73" on="0"/>
        <pt x="486" y="12" on="1"/>
        <pt x="420" y="-21" on="0"/>
      </contour>
      <contour>
        <pt x="423" y="1012" on="1"/>
        <pt x="423" y="992" on="0"/>
        <pt x="412" y="951" on="1"/>
        <pt x="375" y="928" on="0"/>
        <pt x="314" y="928" on="0"/>
        <pt x="289" y="950" on="0"/>
        <pt x="289" y="998" on="0"/>
        <pt x="296" y="1032" on="1"/>
        <pt x="333" y="1055" on="0"/>
        <pt x="365" y="1055" on="1"/>
        <pt x="423" y="1055" on="0"/>
      </contour>
      <contour>
        <pt x="657" y="1012" on="1"/>
        <pt x="657" y="987" on="0"/>
        <pt x="646" y="951" on="1"/>
        <pt x="609" y="928" on="0"/>
        <pt x="548" y="928" on="0"/>
        <pt x="523" y="950" on="0"/>
        <pt x="523" y="990" on="0"/>
        <pt x="530" y="1032" on="1"/>
        <pt x="568" y="1055" on="0"/>
        <pt x="599" y="1055" on="1"/>
        <pt x="657" y="1055" on="0"/>
      </contour>
    </TTGlyph>
    <TTGlyph name="Ograve" xMin="78" yMin="-21" xMax="738" yMax="1089">
      <contour>
        <pt x="630" y="487" on="1"/>
        <pt x="630" y="644" on="0"/>
        <pt x="513" y="810" on="0"/>
        <pt x="411" y="810" on="1"/>
        <pt x="359" y="810" on="0"/>
        <pt x="277" y="743" on="0"/>
        <pt x="229" y="646" on="0"/>
        <pt x="213" y="584" on="1"/>
        <pt x="186" y="481" on="0"/>
        <pt x="186" y="380" on="1"/>
        <pt x="186" y="223" on="0"/>
        <pt x="303" y="57" on="0"/>
        <pt x="405" y="57" on="1"/>
        <pt x="457" y="57" on="0"/>
        <pt x="539" y="124" on="0"/>
        <pt x="587" y="221" on="0"/>
        <pt x="603" y="282" on="1"/>
        <pt x="630" y="386" on="0"/>
      </contour>
      <contour>
        <pt x="344" y="-21" on="1"/>
        <pt x="219" y="-21" on="0"/>
        <pt x="78" y="181" on="0"/>
        <pt x="78" y="336" on="1"/>
        <pt x="78" y="536" on="0"/>
        <pt x="176" y="706" on="1"/>
        <pt x="223" y="787" on="0"/>
        <pt x="378" y="889" on="0"/>
        <pt x="472" y="889" on="1"/>
        <pt x="597" y="889" on="0"/>
        <pt x="738" y="686" on="0"/>
        <pt x="738" y="531" on="1"/>
        <pt x="738" y="370" on="0"/>
        <pt x="674" y="229" on="1"/>
        <pt x="604" y="73" on="0"/>
        <pt x="486" y="12" on="1"/>
        <pt x="420" y="-21" on="0"/>
      </contour>
      <contour>
        <pt x="357" y="1037" on="0"/>
        <pt x="344" y="1051" on="0"/>
        <pt x="344" y="1072" on="0"/>
        <pt x="371" y="1089" on="0"/>
        <pt x="424" y="1089" on="0"/>
        <pt x="448" y="1084" on="1"/>
        <pt x="461" y="1061" on="0"/>
        <pt x="528" y="1000" on="0"/>
        <pt x="609" y="939" on="1"/>
        <pt x="593" y="911" on="0"/>
        <pt x="567" y="911" on="0"/>
        <pt x="434" y="983" on="0"/>
      </contour>
    </TTGlyph>
    <TTGlyph name="Omega" xMin="31" yMin="0" xMax="738" yMax="887">
      <contour>
        <pt x="142" y="685" on="1"/>
        <pt x="213" y="810" on="0"/>
        <pt x="330" y="860" on="1"/>
        <pt x="396" y="887" on="0"/>
        <pt x="472" y="887" on="1"/>
        <pt x="597" y="887" on="0"/>
        <pt x="738" y="719" on="0"/>
        <pt x="738" y="590" on="1"/>
        <pt x="738" y="421" on="0"/>
        <pt x="643" y="290" on="1"/>
        <pt x="593" y="221" on="0"/>
        <pt x="523" y="188" on="1"/>
        <pt x="516" y="121" on="0"/>
        <pt x="516" y="64" on="1"/>
        <pt x="637" y="75" on="0"/>
        <pt x="697" y="98" on="1"/>
        <pt x="701" y="85" on="0"/>
        <pt x="701" y="41" on="0"/>
        <pt x="664" y="0" on="0"/>
        <pt x="633" y="0" on="1"/>
        <pt x="507" y="0" on="1"/>
        <pt x="482" y="0" on="0"/>
        <pt x="447" y="33" on="0"/>
        <pt x="447" y="67" on="1"/>
        <pt x="447" y="78" on="0"/>
        <pt x="463" y="206" on="1"/>
        <pt x="517" y="233" on="0"/>
        <pt x="556" y="292" on="1"/>
        <pt x="630" y="402" on="0"/>
        <pt x="630" y="551" on="1"/>
        <pt x="630" y="675" on="0"/>
        <pt x="522" y="820" on="0"/>
        <pt x="441" y="820" on="1"/>
        <pt x="381" y="820" on="0"/>
        <pt x="286" y="764" on="0"/>
        <pt x="233" y="684" on="0"/>
        <pt x="216" y="632" on="1"/>
        <pt x="186" y="546" on="0"/>
        <pt x="186" y="466" on="1"/>
        <pt x="186" y="273" on="0"/>
        <pt x="296" y="214" on="1"/>
        <pt x="293" y="159" on="0"/>
        <pt x="280" y="67" on="1"/>
        <pt x="276" y="33" on="0"/>
        <pt x="239" y="0" on="0"/>
        <pt x="214" y="0" on="1"/>
        <pt x="88" y="0" on="1"/>
        <pt x="60" y="0" on="0"/>
        <pt x="31" y="32" on="0"/>
        <pt x="31" y="76" on="0"/>
        <pt x="39" y="98" on="1"/>
        <pt x="93" y="76" on="0"/>
        <pt x="214" y="64" on="1"/>
        <pt x="221" y="88" on="0"/>
        <pt x="236" y="161" on="1"/>
        <pt x="166" y="201" on="0"/>
        <pt x="78" y="353" on="0"/>
        <pt x="78" y="574" on="0"/>
      </contour>
    </TTGlyph>
    <TTGlyph name="Oslash" xMin="78" yMin="-128" xMax="738" yMax="947">
      <contour>
        <pt x="738" y="531" on="1"/>
        <pt x="738" y="372" on="0"/>
        <pt x="675" y="230" on="1"/>
        <pt x="606" y="75" on="0"/>
        <pt x="487" y="14" on="1"/>
        <pt x="422" y="-20" on="0"/>
        <pt x="347" y="-21" on="1"/>
        <pt x="326" y="-79" on="0"/>
        <pt x="280" y="-128" on="0"/>
        <pt x="216" y="-128" on="0"/>
        <pt x="190" y="-101" on="1"/>
        <pt x="229" y="-55" on="0"/>
        <pt x="251" y="-3" on="1"/>
        <pt x="168" y="31" on="0"/>
        <pt x="78" y="214" on="0"/>
        <pt x="78" y="433" on="0"/>
        <pt x="129" y="624" on="0"/>
        <pt x="223" y="787" on="0"/>
        <pt x="378" y="889" on="0"/>
        <pt x="472" y="889" on="1"/>
        <pt x="483" y="889" on="0"/>
        <pt x="489" y="888" on="1"/>
        <pt x="526" y="947" on="0"/>
        <pt x="574" y="947" on="1"/>
        <pt x="592" y="947" on="0"/>
        <pt x="626" y="926" on="0"/>
        <pt x="627" y="903" on="1"/>
        <pt x="600" y="889" on="0"/>
        <pt x="580" y="864" on="1"/>
        <pt x="656" y="826" on="0"/>
        <pt x="738" y="647" on="0"/>
      </contour>
      <contour>
        <pt x="630" y="487" on="1"/>
        <pt x="630" y="691" on="0"/>
        <pt x="532" y="770" on="1"/>
        <pt x="488" y="641" on="0"/>
        <pt x="375" y="74" on="0"/>
        <pt x="371" y="59" on="1"/>
        <pt x="393" y="57" on="0"/>
        <pt x="405" y="57" on="1"/>
        <pt x="457" y="57" on="0"/>
        <pt x="539" y="124" on="0"/>
        <pt x="587" y="221" on="0"/>
        <pt x="603" y="282" on="1"/>
        <pt x="630" y="386" on="0"/>
      </contour>
      <contour>
        <pt x="186" y="380" on="1"/>
        <pt x="186" y="173" on="0"/>
        <pt x="285" y="96" on="1"/>
        <pt x="317" y="206" on="0"/>
        <pt x="425" y="735" on="0"/>
        <pt x="450" y="806" on="1"/>
        <pt x="424" y="810" on="0"/>
        <pt x="411" y="810" on="1"/>
        <pt x="359" y="810" on="0"/>
        <pt x="277" y="743" on="0"/>
        <pt x="229" y="646" on="0"/>
        <pt x="213" y="584" on="1"/>
        <pt x="186" y="481" on="0"/>
      </contour>
    </TTGlyph>
    <TTGlyph name="Otilde" xMin="78" yMin="-21" xMax="738" yMax="1074">
      <contour>
        <pt x="630" y="487" on="1"/>
        <pt x="630" y="644" on="0"/>
        <pt x="513" y="810" on="0"/>
        <pt x="411" y="810" on="1"/>
        <pt x="359" y="810" on="0"/>
        <pt x="277" y="743" on="0"/>
        <pt x="229" y="646" on="0"/>
        <pt x="213" y="584" on="1"/>
        <pt x="186" y="481" on="0"/>
        <pt x="186" y="380" on="1"/>
        <pt x="186" y="223" on="0"/>
        <pt x="303" y="57" on="0"/>
        <pt x="405" y="57" on="1"/>
        <pt x="457" y="57" on="0"/>
        <pt x="539" y="124" on="0"/>
        <pt x="587" y="221" on="0"/>
        <pt x="603" y="282" on="1"/>
        <pt x="630" y="386" on="0"/>
      </contour>
      <contour>
        <pt x="344" y="-21" on="1"/>
        <pt x="219" y="-21" on="0"/>
        <pt x="78" y="181" on="0"/>
        <pt x="78" y="336" on="1"/>
        <pt x="78" y="536" on="0"/>
        <pt x="176" y="706" on="1"/>
        <pt x="223" y="787" on="0"/>
        <pt x="378" y="889" on="0"/>
        <pt x="472" y="889" on="1"/>
        <pt x="597" y="889" on="0"/>
        <pt x="738" y="686" on="0"/>
        <pt x="738" y="531" on="1"/>
        <pt x="738" y="370" on="0"/>
        <pt x="674" y="229" on="1"/>
        <pt x="604" y="73" on="0"/>
        <pt x="486" y="12" on="1"/>
        <pt x="420" y="-21" on="0"/>
      </contour>
      <contour>
        <pt x="643" y="1042" on="1"/>
        <pt x="643" y="999" on="0"/>
        <pt x="585" y="927" on="0"/>
        <pt x="512" y="927" on="0"/>
        <pt x="461" y="960" on="0"/>
        <pt x="421" y="993" on="0"/>
        <pt x="383" y="993" on="0"/>
        <pt x="355" y="959" on="0"/>
        <pt x="350" y="926" on="1"/>
        <pt x="306" y="926" on="0"/>
        <pt x="306" y="958" on="1"/>
        <pt x="306" y="1001" on="0"/>
        <pt x="364" y="1073" on="0"/>
        <pt x="437" y="1073" on="0"/>
        <pt x="488" y="1040" on="0"/>
        <pt x="528" y="1007" on="0"/>
        <pt x="566" y="1007" on="0"/>
        <pt x="594" y="1041" on="0"/>
        <pt x="599" y="1074" on="1"/>
        <pt x="643" y="1074" on="0"/>
      </contour>
    </TTGlyph>
    <TTGlyph name="P" xMin="98" yMin="-7" xMax="624" yMax="889">
      <contour>
        <pt x="624" y="684" on="1"/>
        <pt x="624" y="620" on="0"/>
        <pt x="568" y="509" on="0"/>
        <pt x="484" y="432" on="0"/>
        <pt x="427" y="400" on="1"/>
        <pt x="330" y="347" on="0"/>
        <pt x="218" y="319" on="1"/>
        <pt x="207" y="229" on="0"/>
        <pt x="207" y="166" on="1"/>
        <pt x="207" y="70" on="0"/>
        <pt x="245" y="29" on="1"/>
        <pt x="214" y="-7" on="0"/>
        <pt x="176" y="-7" on="1"/>
        <pt x="98" y="-7" on="0"/>
        <pt x="98" y="125" on="1"/>
        <pt x="98" y="180" on="0"/>
        <pt x="174" y="676" on="0"/>
        <pt x="174" y="817" on="0"/>
        <pt x="159" y="864" on="1"/>
        <pt x="294" y="889" on="0"/>
        <pt x="377" y="889" on="1"/>
        <pt x="624" y="889" on="0"/>
      </contour>
      <contour>
        <pt x="519" y="663" on="1"/>
        <pt x="519" y="828" on="0"/>
        <pt x="355" y="828" on="1"/>
        <pt x="323" y="828" on="0"/>
        <pt x="287" y="822" on="1"/>
        <pt x="287" y="760" on="0"/>
        <pt x="234" y="433" on="0"/>
        <pt x="227" y="387" on="1"/>
        <pt x="343" y="411" on="0"/>
        <pt x="427" y="474" on="1"/>
        <pt x="470" y="507" on="0"/>
        <pt x="519" y="604" on="0"/>
      </contour>
    </TTGlyph>
    <TTGlyph name="Q" xMin="73" yMin="-205" xMax="773" yMax="889">
      <contour>
        <pt x="339" y="-21" on="1"/>
        <pt x="214" y="-21" on="0"/>
        <pt x="73" y="181" on="0"/>
        <pt x="73" y="336" on="1"/>
        <pt x="73" y="536" on="0"/>
        <pt x="171" y="706" on="1"/>
        <pt x="218" y="787" on="0"/>
        <pt x="373" y="889" on="0"/>
        <pt x="467" y="889" on="1"/>
        <pt x="592" y="889" on="0"/>
        <pt x="733" y="686" on="0"/>
        <pt x="733" y="531" on="1"/>
        <pt x="733" y="288" on="0"/>
        <pt x="604" y="119" on="1"/>
        <pt x="537" y="31" on="0"/>
        <pt x="446" y="-2" on="1"/>
        <pt x="535" y="-51" on="0"/>
        <pt x="667" y="-104" on="0"/>
        <pt x="730" y="-104" on="1"/>
        <pt x="754" y="-104" on="0"/>
        <pt x="773" y="-100" on="1"/>
        <pt x="773" y="-145" on="0"/>
        <pt x="715" y="-205" on="0"/>
        <pt x="625" y="-205" on="0"/>
        <pt x="538" y="-155" on="0"/>
        <pt x="401" y="-38" on="0"/>
        <pt x="375" y="-19" on="1"/>
        <pt x="351" y="-21" on="0"/>
      </contour>
      <contour>
        <pt x="625" y="487" on="1"/>
        <pt x="625" y="644" on="0"/>
        <pt x="508" y="810" on="0"/>
        <pt x="406" y="810" on="1"/>
        <pt x="354" y="810" on="0"/>
        <pt x="272" y="743" on="0"/>
        <pt x="224" y="646" on="0"/>
        <pt x="208" y="584" on="1"/>
        <pt x="181" y="481" on="0"/>
        <pt x="181" y="380" on="1"/>
        <pt x="181" y="223" on="0"/>
        <pt x="298" y="57" on="0"/>
        <pt x="400" y="57" on="1"/>
        <pt x="452" y="57" on="0"/>
        <pt x="534" y="124" on="0"/>
        <pt x="582" y="221" on="0"/>
        <pt x="598" y="282" on="1"/>
        <pt x="625" y="386" on="0"/>
      </contour>
    </TTGlyph>
    <TTGlyph name="R" xMin="98" yMin="-10" xMax="638" yMax="889">
      <contour>
        <pt x="638" y="692" on="1"/>
        <pt x="638" y="512" on="0"/>
        <pt x="394" y="401" on="1"/>
        <pt x="407" y="375" on="0"/>
        <pt x="457" y="272" on="0"/>
        <pt x="483" y="222" on="0"/>
        <pt x="527" y="148" on="0"/>
        <pt x="544" y="130" on="1"/>
        <pt x="590" y="81" on="0"/>
        <pt x="637" y="74" on="1"/>
        <pt x="630" y="28" on="0"/>
        <pt x="581" y="-10" on="0"/>
        <pt x="558" y="-10" on="1"/>
        <pt x="507" y="-10" on="0"/>
        <pt x="463" y="57" on="1"/>
        <pt x="437" y="94" on="0"/>
        <pt x="306" y="367" on="1"/>
        <pt x="289" y="361" on="0"/>
        <pt x="221" y="343" on="1"/>
        <pt x="207" y="240" on="0"/>
        <pt x="207" y="70" on="0"/>
        <pt x="245" y="29" on="1"/>
        <pt x="214" y="-7" on="0"/>
        <pt x="176" y="-7" on="1"/>
        <pt x="98" y="-7" on="0"/>
        <pt x="98" y="125" on="1"/>
        <pt x="98" y="180" on="0"/>
        <pt x="174" y="676" on="0"/>
        <pt x="174" y="817" on="0"/>
        <pt x="159" y="864" on="1"/>
        <pt x="294" y="889" on="0"/>
        <pt x="382" y="889" on="1"/>
        <pt x="638" y="889" on="0"/>
      </contour>
      <contour>
        <pt x="533" y="672" on="1"/>
        <pt x="533" y="753" on="0"/>
        <pt x="437" y="828" on="0"/>
        <pt x="358" y="828" on="1"/>
        <pt x="323" y="828" on="0"/>
        <pt x="287" y="822" on="1"/>
        <pt x="287" y="766" on="0"/>
        <pt x="274" y="685" on="1"/>
        <pt x="259" y="586" on="0"/>
        <pt x="231" y="412" on="1"/>
        <pt x="350" y="436" on="0"/>
        <pt x="436" y="494" on="1"/>
        <pt x="481" y="525" on="0"/>
        <pt x="533" y="616" on="0"/>
      </contour>
    </TTGlyph>
    <TTGlyph name="S" xMin="32" yMin="-17" xMax="535" yMax="889">
      <contour>
        <pt x="470" y="745" on="0"/>
        <pt x="376" y="815" on="0"/>
        <pt x="261" y="815" on="0"/>
        <pt x="187" y="746" on="0"/>
        <pt x="187" y="684" on="1"/>
        <pt x="187" y="656" on="0"/>
        <pt x="196" y="620" on="0"/>
        <pt x="235" y="577" on="0"/>
        <pt x="272" y="547" on="0"/>
        <pt x="372" y="467" on="0"/>
        <pt x="477" y="378" on="0"/>
        <pt x="533" y="284" on="0"/>
        <pt x="533" y="211" on="1"/>
        <pt x="533" y="115" on="0"/>
        <pt x="380" y="-17" on="0"/>
        <pt x="262" y="-17" on="1"/>
        <pt x="170" y="-17" on="0"/>
        <pt x="32" y="56" on="0"/>
        <pt x="32" y="123" on="1"/>
        <pt x="32" y="152" on="0"/>
        <pt x="58" y="198" on="0"/>
        <pt x="83" y="227" on="1"/>
        <pt x="127" y="49" on="0"/>
        <pt x="288" y="49" on="1"/>
        <pt x="346" y="49" on="0"/>
        <pt x="434" y="115" on="0"/>
        <pt x="434" y="180" on="1"/>
        <pt x="434" y="217" on="0"/>
        <pt x="416" y="256" on="0"/>
        <pt x="405" y="278" on="0"/>
        <pt x="377" y="309" on="0"/>
        <pt x="359" y="328" on="0"/>
        <pt x="315" y="365" on="0"/>
        <pt x="290" y="386" on="0"/>
        <pt x="230" y="433" on="0"/>
        <pt x="213" y="447" on="1"/>
        <pt x="155" y="494" on="0"/>
        <pt x="94" y="588" on="0"/>
        <pt x="94" y="654" on="1"/>
        <pt x="94" y="765" on="0"/>
        <pt x="244" y="889" on="0"/>
        <pt x="365" y="889" on="1"/>
        <pt x="437" y="889" on="0"/>
        <pt x="535" y="833" on="0"/>
        <pt x="535" y="735" on="0"/>
        <pt x="490" y="695" on="1"/>
      </contour>
    </TTGlyph>
    <TTGlyph name="Scaron" xMin="32" yMin="-17" xMax="535" yMax="1089">
      <contour>
        <pt x="470" y="745" on="0"/>
        <pt x="376" y="815" on="0"/>
        <pt x="261" y="815" on="0"/>
        <pt x="187" y="746" on="0"/>
        <pt x="187" y="684" on="1"/>
        <pt x="187" y="656" on="0"/>
        <pt x="196" y="620" on="0"/>
        <pt x="235" y="577" on="0"/>
        <pt x="272" y="547" on="0"/>
        <pt x="372" y="467" on="0"/>
        <pt x="477" y="378" on="0"/>
        <pt x="533" y="284" on="0"/>
        <pt x="533" y="211" on="1"/>
        <pt x="533" y="115" on="0"/>
        <pt x="380" y="-17" on="0"/>
        <pt x="262" y="-17" on="1"/>
        <pt x="170" y="-17" on="0"/>
        <pt x="32" y="56" on="0"/>
        <pt x="32" y="123" on="1"/>
        <pt x="32" y="152" on="0"/>
        <pt x="58" y="198" on="0"/>
        <pt x="83" y="227" on="1"/>
        <pt x="127" y="49" on="0"/>
        <pt x="288" y="49" on="1"/>
        <pt x="346" y="49" on="0"/>
        <pt x="434" y="115" on="0"/>
        <pt x="434" y="180" on="1"/>
        <pt x="434" y="217" on="0"/>
        <pt x="416" y="256" on="0"/>
        <pt x="405" y="278" on="0"/>
        <pt x="377" y="309" on="0"/>
        <pt x="359" y="328" on="0"/>
        <pt x="315" y="365" on="0"/>
        <pt x="290" y="386" on="0"/>
        <pt x="230" y="433" on="0"/>
        <pt x="213" y="447" on="1"/>
        <pt x="155" y="494" on="0"/>
        <pt x="94" y="588" on="0"/>
        <pt x="94" y="654" on="1"/>
        <pt x="94" y="765" on="0"/>
        <pt x="244" y="889" on="0"/>
        <pt x="365" y="889" on="1"/>
        <pt x="437" y="889" on="0"/>
        <pt x="535" y="833" on="0"/>
        <pt x="535" y="735" on="0"/>
        <pt x="490" y="695" on="1"/>
      </contour>
      <contour>
        <pt x="209" y="1089" on="1"/>
        <pt x="232" y="1089" on="0"/>
        <pt x="345" y="999" on="1"/>
        <pt x="480" y="1089" on="0"/>
        <pt x="504" y="1089" on="1"/>
        <pt x="517" y="1089" on="0"/>
        <pt x="531" y="1061" on="1"/>
        <pt x="435" y="990" on="0"/>
        <pt x="407" y="950" on="1"/>
        <pt x="397" y="936" on="0"/>
        <pt x="386" y="916" on="1"/>
        <pt x="369" y="911" on="0"/>
        <pt x="307" y="911" on="0"/>
        <pt x="292" y="922" on="1"/>
        <pt x="290" y="924" on="0"/>
        <pt x="269" y="956" on="0"/>
        <pt x="257" y="973" on="1"/>
        <pt x="221" y="1023" on="0"/>
        <pt x="182" y="1061" on="1"/>
        <pt x="198" y="1089" on="0"/>
      </contour>
    </TTGlyph>
    <TTGlyph name="T" xMin="43" yMin="-7" xMax="637" yMax="884">
      <contour>
        <pt x="540" y="776" on="1"/>
        <pt x="385" y="788" on="1"/>
        <pt x="383" y="724" on="0"/>
        <pt x="306" y="261" on="0"/>
        <pt x="306" y="72" on="0"/>
        <pt x="345" y="29" on="1"/>
        <pt x="314" y="-7" on="0"/>
        <pt x="275" y="-7" on="1"/>
        <pt x="198" y="-7" on="0"/>
        <pt x="198" y="125" on="1"/>
        <pt x="198" y="180" on="0"/>
        <pt x="271" y="651" on="0"/>
        <pt x="271" y="741" on="1"/>
        <pt x="271" y="772" on="0"/>
        <pt x="270" y="789" on="1"/>
        <pt x="131" y="788" on="0"/>
        <pt x="43" y="757" on="1"/>
        <pt x="47" y="822" on="0"/>
        <pt x="94" y="869" on="0"/>
        <pt x="141" y="869" on="1"/>
        <pt x="513" y="865" on="1"/>
        <pt x="606" y="865" on="0"/>
        <pt x="637" y="884" on="1"/>
        <pt x="633" y="819" on="0"/>
        <pt x="588" y="776" on="0"/>
      </contour>
    </TTGlyph>
    <TTGlyph name="Thorn" xMin="98" yMin="-7" xMax="615" yMax="889">
      <contour>
        <pt x="207" y="166" on="1"/>
        <pt x="207" y="70" on="0"/>
        <pt x="245" y="29" on="1"/>
        <pt x="214" y="-7" on="0"/>
        <pt x="176" y="-7" on="1"/>
        <pt x="98" y="-7" on="0"/>
        <pt x="98" y="125" on="1"/>
        <pt x="98" y="180" on="0"/>
        <pt x="169" y="641" on="0"/>
        <pt x="169" y="824" on="0"/>
        <pt x="148" y="866" on="1"/>
        <pt x="175" y="889" on="0"/>
        <pt x="250" y="889" on="0"/>
        <pt x="284" y="840" on="0"/>
        <pt x="284" y="783" on="1"/>
        <pt x="284" y="763" on="0"/>
        <pt x="283" y="751" on="1"/>
        <pt x="331" y="756" on="0"/>
        <pt x="369" y="756" on="1"/>
        <pt x="615" y="756" on="0"/>
        <pt x="615" y="551" on="1"/>
        <pt x="615" y="487" on="0"/>
        <pt x="558" y="375" on="0"/>
        <pt x="474" y="298" on="0"/>
        <pt x="416" y="266" on="1"/>
        <pt x="323" y="214" on="0"/>
        <pt x="207" y="185" on="1"/>
      </contour>
      <contour>
        <pt x="336" y="699" on="1"/>
        <pt x="311" y="699" on="0"/>
        <pt x="276" y="694" on="1"/>
        <pt x="272" y="663" on="0"/>
        <pt x="218" y="335" on="0"/>
        <pt x="211" y="252" on="1"/>
        <pt x="331" y="276" on="0"/>
        <pt x="415" y="338" on="1"/>
        <pt x="459" y="371" on="0"/>
        <pt x="510" y="470" on="0"/>
        <pt x="510" y="530" on="1"/>
        <pt x="510" y="614" on="0"/>
        <pt x="421" y="699" on="0"/>
      </contour>
    </TTGlyph>
    <TTGlyph name="U" xMin="98" yMin="-16" xMax="694" yMax="889">
      <contour>
        <pt x="252" y="80" on="1"/>
        <pt x="299" y="80" on="0"/>
        <pt x="477" y="261" on="0"/>
        <pt x="537" y="367" on="1"/>
        <pt x="539" y="380" on="0"/>
        <pt x="558" y="503" on="0"/>
        <pt x="564" y="550" on="0"/>
        <pt x="570" y="596" on="1"/>
        <pt x="580" y="671" on="0"/>
        <pt x="580" y="824" on="0"/>
        <pt x="559" y="866" on="1"/>
        <pt x="569" y="875" on="0"/>
        <pt x="610" y="889" on="0"/>
        <pt x="625" y="889" on="1"/>
        <pt x="660" y="889" on="0"/>
        <pt x="694" y="840" on="0"/>
        <pt x="694" y="730" on="0"/>
        <pt x="617" y="267" on="0"/>
        <pt x="617" y="72" on="0"/>
        <pt x="655" y="29" on="1"/>
        <pt x="624" y="-7" on="0"/>
        <pt x="586" y="-7" on="1"/>
        <pt x="508" y="-7" on="0"/>
        <pt x="508" y="125" on="1"/>
        <pt x="508" y="169" on="0"/>
        <pt x="519" y="243" on="1"/>
        <pt x="451" y="137" on="0"/>
        <pt x="280" y="-16" on="0"/>
        <pt x="223" y="-16" on="1"/>
        <pt x="98" y="-16" on="0"/>
        <pt x="98" y="153" on="1"/>
        <pt x="98" y="207" on="0"/>
        <pt x="165" y="641" on="0"/>
        <pt x="165" y="824" on="0"/>
        <pt x="144" y="866" on="1"/>
        <pt x="171" y="889" on="0"/>
        <pt x="246" y="889" on="0"/>
        <pt x="280" y="840" on="0"/>
        <pt x="280" y="730" on="0"/>
        <pt x="202" y="259" on="0"/>
        <pt x="202" y="158" on="1"/>
        <pt x="202" y="80" on="0"/>
      </contour>
    </TTGlyph>
    <TTGlyph name="Uacute" xMin="98" yMin="-16" xMax="694" yMax="1089">
      <contour>
        <pt x="252" y="80" on="1"/>
        <pt x="299" y="80" on="0"/>
        <pt x="477" y="261" on="0"/>
        <pt x="537" y="367" on="1"/>
        <pt x="539" y="380" on="0"/>
        <pt x="558" y="503" on="0"/>
        <pt x="564" y="550" on="0"/>
        <pt x="570" y="596" on="1"/>
        <pt x="580" y="671" on="0"/>
        <pt x="580" y="824" on="0"/>
        <pt x="559" y="866" on="1"/>
        <pt x="569" y="875" on="0"/>
        <pt x="610" y="889" on="0"/>
        <pt x="625" y="889" on="1"/>
        <pt x="660" y="889" on="0"/>
        <pt x="694" y="840" on="0"/>
        <pt x="694" y="730" on="0"/>
        <pt x="617" y="267" on="0"/>
        <pt x="617" y="72" on="0"/>
        <pt x="655" y="29" on="1"/>
        <pt x="624" y="-7" on="0"/>
        <pt x="586" y="-7" on="1"/>
        <pt x="508" y="-7" on="0"/>
        <pt x="508" y="125" on="1"/>
        <pt x="508" y="169" on="0"/>
        <pt x="519" y="243" on="1"/>
        <pt x="451" y="137" on="0"/>
        <pt x="280" y="-16" on="0"/>
        <pt x="223" y="-16" on="1"/>
        <pt x="98" y="-16" on="0"/>
        <pt x="98" y="153" on="1"/>
        <pt x="98" y="207" on="0"/>
        <pt x="165" y="641" on="0"/>
        <pt x="165" y="824" on="0"/>
        <pt x="144" y="866" on="1"/>
        <pt x="171" y="889" on="0"/>
        <pt x="246" y="889" on="0"/>
        <pt x="280" y="840" on="0"/>
        <pt x="280" y="730" on="0"/>
        <pt x="202" y="259" on="0"/>
        <pt x="202" y="158" on="1"/>
        <pt x="202" y="80" on="0"/>
      </contour>
      <contour>
        <pt x="362" y="911" on="1"/>
        <pt x="349" y="911" on="0"/>
        <pt x="335" y="939" on="1"/>
        <pt x="415" y="999" on="0"/>
        <pt x="482" y="1060" on="0"/>
        <pt x="495" y="1084" on="1"/>
        <pt x="519" y="1089" on="0"/>
        <pt x="572" y="1089" on="0"/>
        <pt x="599" y="1072" on="0"/>
        <pt x="599" y="1051" on="0"/>
        <pt x="586" y="1037" on="0"/>
        <pt x="509" y="982" on="0"/>
        <pt x="377" y="911" on="0"/>
      </contour>
    </TTGlyph>
    <TTGlyph name="Ucircumflex" xMin="98" yMin="-16" xMax="694" yMax="1089">
      <contour>
        <pt x="252" y="80" on="1"/>
        <pt x="299" y="80" on="0"/>
        <pt x="477" y="261" on="0"/>
        <pt x="537" y="367" on="1"/>
        <pt x="539" y="380" on="0"/>
        <pt x="558" y="503" on="0"/>
        <pt x="564" y="550" on="0"/>
        <pt x="570" y="596" on="1"/>
        <pt x="580" y="671" on="0"/>
        <pt x="580" y="824" on="0"/>
        <pt x="559" y="866" on="1"/>
        <pt x="569" y="875" on="0"/>
        <pt x="610" y="889" on="0"/>
        <pt x="625" y="889" on="1"/>
        <pt x="660" y="889" on="0"/>
        <pt x="694" y="840" on="0"/>
        <pt x="694" y="730" on="0"/>
        <pt x="617" y="267" on="0"/>
        <pt x="617" y="72" on="0"/>
        <pt x="655" y="29" on="1"/>
        <pt x="624" y="-7" on="0"/>
        <pt x="586" y="-7" on="1"/>
        <pt x="508" y="-7" on="0"/>
        <pt x="508" y="125" on="1"/>
        <pt x="508" y="169" on="0"/>
        <pt x="519" y="243" on="1"/>
        <pt x="451" y="137" on="0"/>
        <pt x="280" y="-16" on="0"/>
        <pt x="223" y="-16" on="1"/>
        <pt x="98" y="-16" on="0"/>
        <pt x="98" y="153" on="1"/>
        <pt x="98" y="207" on="0"/>
        <pt x="165" y="641" on="0"/>
        <pt x="165" y="824" on="0"/>
        <pt x="144" y="866" on="1"/>
        <pt x="171" y="889" on="0"/>
        <pt x="246" y="889" on="0"/>
        <pt x="280" y="840" on="0"/>
        <pt x="280" y="730" on="0"/>
        <pt x="202" y="259" on="0"/>
        <pt x="202" y="158" on="1"/>
        <pt x="202" y="80" on="0"/>
      </contour>
      <contour>
        <pt x="578" y="911" on="1"/>
        <pt x="556" y="911" on="0"/>
        <pt x="442" y="1002" on="1"/>
        <pt x="311" y="911" on="0"/>
        <pt x="283" y="911" on="1"/>
        <pt x="272" y="911" on="0"/>
        <pt x="256" y="939" on="1"/>
        <pt x="349" y="1009" on="0"/>
        <pt x="380" y="1050" on="1"/>
        <pt x="391" y="1064" on="0"/>
        <pt x="402" y="1084" on="1"/>
        <pt x="419" y="1089" on="0"/>
        <pt x="481" y="1089" on="0"/>
        <pt x="496" y="1078" on="1"/>
        <pt x="497" y="1077" on="0"/>
        <pt x="512" y="1053" on="0"/>
        <pt x="529" y="1028" on="0"/>
        <pt x="542" y="1012" on="1"/>
        <pt x="575" y="967" on="0"/>
        <pt x="605" y="939" on="1"/>
        <pt x="591" y="911" on="0"/>
      </contour>
    </TTGlyph>
    <TTGlyph name="Udieresis" xMin="98" yMin="-16" xMax="694" yMax="1055">
      <contour>
        <pt x="252" y="80" on="1"/>
        <pt x="299" y="80" on="0"/>
        <pt x="477" y="261" on="0"/>
        <pt x="537" y="367" on="1"/>
        <pt x="539" y="380" on="0"/>
        <pt x="558" y="503" on="0"/>
        <pt x="564" y="550" on="0"/>
        <pt x="570" y="596" on="1"/>
        <pt x="580" y="671" on="0"/>
        <pt x="580" y="824" on="0"/>
        <pt x="559" y="866" on="1"/>
        <pt x="569" y="875" on="0"/>
        <pt x="610" y="889" on="0"/>
        <pt x="625" y="889" on="1"/>
        <pt x="660" y="889" on="0"/>
        <pt x="694" y="840" on="0"/>
        <pt x="694" y="730" on="0"/>
        <pt x="617" y="267" on="0"/>
        <pt x="617" y="72" on="0"/>
        <pt x="655" y="29" on="1"/>
        <pt x="624" y="-7" on="0"/>
        <pt x="586" y="-7" on="1"/>
        <pt x="508" y="-7" on="0"/>
        <pt x="508" y="125" on="1"/>
        <pt x="508" y="169" on="0"/>
        <pt x="519" y="243" on="1"/>
        <pt x="451" y="137" on="0"/>
        <pt x="280" y="-16" on="0"/>
        <pt x="223" y="-16" on="1"/>
        <pt x="98" y="-16" on="0"/>
        <pt x="98" y="153" on="1"/>
        <pt x="98" y="207" on="0"/>
        <pt x="165" y="641" on="0"/>
        <pt x="165" y="824" on="0"/>
        <pt x="144" y="866" on="1"/>
        <pt x="171" y="889" on="0"/>
        <pt x="246" y="889" on="0"/>
        <pt x="280" y="840" on="0"/>
        <pt x="280" y="730" on="0"/>
        <pt x="202" y="259" on="0"/>
        <pt x="202" y="158" on="1"/>
        <pt x="202" y="80" on="0"/>
      </contour>
      <contour>
        <pt x="389" y="1012" on="1"/>
        <pt x="389" y="992" on="0"/>
        <pt x="378" y="951" on="1"/>
        <pt x="341" y="928" on="0"/>
        <pt x="280" y="928" on="0"/>
        <pt x="255" y="950" on="0"/>
        <pt x="255" y="998" on="0"/>
        <pt x="262" y="1032" on="1"/>
        <pt x="299" y="1055" on="0"/>
        <pt x="331" y="1055" on="1"/>
        <pt x="389" y="1055" on="0"/>
      </contour>
      <contour>
        <pt x="623" y="1012" on="1"/>
        <pt x="623" y="987" on="0"/>
        <pt x="612" y="951" on="1"/>
        <pt x="575" y="928" on="0"/>
        <pt x="514" y="928" on="0"/>
        <pt x="489" y="950" on="0"/>
        <pt x="489" y="990" on="0"/>
        <pt x="496" y="1032" on="1"/>
        <pt x="534" y="1055" on="0"/>
        <pt x="565" y="1055" on="1"/>
        <pt x="623" y="1055" on="0"/>
      </contour>
    </TTGlyph>
    <TTGlyph name="Ugrave" xMin="98" yMin="-16" xMax="694" yMax="1089">
      <contour>
        <pt x="252" y="80" on="1"/>
        <pt x="299" y="80" on="0"/>
        <pt x="477" y="261" on="0"/>
        <pt x="537" y="367" on="1"/>
        <pt x="539" y="380" on="0"/>
        <pt x="558" y="503" on="0"/>
        <pt x="564" y="550" on="0"/>
        <pt x="570" y="596" on="1"/>
        <pt x="580" y="671" on="0"/>
        <pt x="580" y="824" on="0"/>
        <pt x="559" y="866" on="1"/>
        <pt x="569" y="875" on="0"/>
        <pt x="610" y="889" on="0"/>
        <pt x="625" y="889" on="1"/>
        <pt x="660" y="889" on="0"/>
        <pt x="694" y="840" on="0"/>
        <pt x="694" y="730" on="0"/>
        <pt x="617" y="267" on="0"/>
        <pt x="617" y="72" on="0"/>
        <pt x="655" y="29" on="1"/>
        <pt x="624" y="-7" on="0"/>
        <pt x="586" y="-7" on="1"/>
        <pt x="508" y="-7" on="0"/>
        <pt x="508" y="125" on="1"/>
        <pt x="508" y="169" on="0"/>
        <pt x="519" y="243" on="1"/>
        <pt x="451" y="137" on="0"/>
        <pt x="280" y="-16" on="0"/>
        <pt x="223" y="-16" on="1"/>
        <pt x="98" y="-16" on="0"/>
        <pt x="98" y="153" on="1"/>
        <pt x="98" y="207" on="0"/>
        <pt x="165" y="641" on="0"/>
        <pt x="165" y="824" on="0"/>
        <pt x="144" y="866" on="1"/>
        <pt x="171" y="889" on="0"/>
        <pt x="246" y="889" on="0"/>
        <pt x="280" y="840" on="0"/>
        <pt x="280" y="730" on="0"/>
        <pt x="202" y="259" on="0"/>
        <pt x="202" y="158" on="1"/>
        <pt x="202" y="80" on="0"/>
      </contour>
      <contour>
        <pt x="289" y="1037" on="0"/>
        <pt x="276" y="1051" on="0"/>
        <pt x="276" y="1072" on="0"/>
        <pt x="303" y="1089" on="0"/>
        <pt x="356" y="1089" on="0"/>
        <pt x="380" y="1084" on="1"/>
        <pt x="393" y="1061" on="0"/>
        <pt x="460" y="1000" on="0"/>
        <pt x="541" y="939" on="1"/>
        <pt x="525" y="911" on="0"/>
        <pt x="499" y="911" on="0"/>
        <pt x="366" y="983" on="0"/>
      </contour>
    </TTGlyph>
    <TTGlyph name="V" xMin="24" yMin="-7" xMax="686" yMax="889">
      <contour>
        <pt x="90" y="889" on="1"/>
        <pt x="137" y="889" on="0"/>
        <pt x="196" y="838" on="0"/>
        <pt x="234" y="712" on="0"/>
        <pt x="280" y="236" on="0"/>
        <pt x="307" y="146" on="1"/>
        <pt x="332" y="206" on="0"/>
        <pt x="486" y="511" on="0"/>
        <pt x="584" y="743" on="0"/>
        <pt x="584" y="804" on="1"/>
        <pt x="584" y="833" on="0"/>
        <pt x="572" y="853" on="1"/>
        <pt x="596" y="889" on="0"/>
        <pt x="686" y="889" on="0"/>
        <pt x="686" y="791" on="0"/>
        <pt x="588" y="565" on="0"/>
        <pt x="472" y="338" on="0"/>
        <pt x="374" y="99" on="0"/>
        <pt x="374" y="40" on="1"/>
        <pt x="374" y="30" on="0"/>
        <pt x="376" y="16" on="1"/>
        <pt x="360" y="-7" on="0"/>
        <pt x="264" y="-7" on="0"/>
        <pt x="218" y="32" on="0"/>
        <pt x="184" y="143" on="0"/>
        <pt x="139" y="625" on="0"/>
        <pt x="110" y="725" on="1"/>
        <pt x="89" y="799" on="0"/>
        <pt x="24" y="853" on="1"/>
        <pt x="33" y="870" on="0"/>
        <pt x="73" y="889" on="0"/>
      </contour>
    </TTGlyph>
    <TTGlyph name="W" xMin="24" yMin="-7" xMax="992" yMax="889">
      <contour>
        <pt x="92" y="889" on="1"/>
        <pt x="139" y="889" on="0"/>
        <pt x="195" y="838" on="0"/>
        <pt x="230" y="712" on="0"/>
        <pt x="258" y="249" on="0"/>
        <pt x="280" y="158" on="1"/>
        <pt x="300" y="209" on="0"/>
        <pt x="457" y="559" on="0"/>
        <pt x="487" y="645" on="1"/>
        <pt x="469" y="745" on="0"/>
        <pt x="435" y="763" on="1"/>
        <pt x="448" y="784" on="0"/>
        <pt x="497" y="812" on="0"/>
        <pt x="522" y="812" on="1"/>
        <pt x="567" y="812" on="0"/>
        <pt x="580" y="766" on="1"/>
        <pt x="594" y="712" on="0"/>
        <pt x="622" y="250" on="0"/>
        <pt x="644" y="159" on="1"/>
        <pt x="666" y="214" on="0"/>
        <pt x="807" y="522" on="0"/>
        <pt x="890" y="744" on="0"/>
        <pt x="890" y="804" on="1"/>
        <pt x="890" y="833" on="0"/>
        <pt x="878" y="853" on="1"/>
        <pt x="902" y="889" on="0"/>
        <pt x="992" y="889" on="0"/>
        <pt x="992" y="791" on="0"/>
        <pt x="904" y="565" on="0"/>
        <pt x="797" y="338" on="0"/>
        <pt x="709" y="99" on="0"/>
        <pt x="709" y="40" on="1"/>
        <pt x="709" y="26" on="0"/>
        <pt x="712" y="16" on="1"/>
        <pt x="703" y="6" on="0"/>
        <pt x="664" y="-7" on="0"/>
        <pt x="648" y="-7" on="1"/>
        <pt x="601" y="-7" on="0"/>
        <pt x="555" y="31" on="0"/>
        <pt x="529" y="124" on="0"/>
        <pt x="518" y="245" on="0"/>
        <pt x="508" y="445" on="0"/>
        <pt x="504" y="493" on="1"/>
        <pt x="450" y="371" on="0"/>
        <pt x="401" y="254" on="0"/>
        <pt x="345" y="85" on="0"/>
        <pt x="345" y="40" on="1"/>
        <pt x="345" y="30" on="0"/>
        <pt x="347" y="16" on="1"/>
        <pt x="326" y="-7" on="0"/>
        <pt x="237" y="-7" on="0"/>
        <pt x="190" y="31" on="0"/>
        <pt x="159" y="143" on="0"/>
        <pt x="131" y="625" on="0"/>
        <pt x="106" y="725" on="1"/>
        <pt x="88" y="798" on="0"/>
        <pt x="24" y="853" on="1"/>
        <pt x="34" y="870" on="0"/>
        <pt x="75" y="889" on="0"/>
      </contour>
    </TTGlyph>
    <TTGlyph name="X" xMin="41" yMin="-13" xMax="638" yMax="871">
      <contour>
        <pt x="514" y="803" on="1"/>
        <pt x="514" y="824" on="0"/>
        <pt x="505" y="838" on="1"/>
        <pt x="531" y="869" on="0"/>
        <pt x="572" y="869" on="1"/>
        <pt x="618" y="869" on="0"/>
        <pt x="618" y="812" on="1"/>
        <pt x="618" y="777" on="0"/>
        <pt x="461" y="528" on="0"/>
        <pt x="365" y="409" on="1"/>
        <pt x="437" y="270" on="0"/>
        <pt x="585" y="71" on="0"/>
        <pt x="638" y="51" on="1"/>
        <pt x="625" y="-13" on="0"/>
        <pt x="511" y="-13" on="0"/>
        <pt x="360" y="178" on="0"/>
        <pt x="284" y="326" on="1"/>
        <pt x="227" y="244" on="0"/>
        <pt x="145" y="87" on="0"/>
        <pt x="145" y="32" on="0"/>
        <pt x="154" y="18" on="1"/>
        <pt x="127" y="-13" on="0"/>
        <pt x="86" y="-13" on="1"/>
        <pt x="41" y="-13" on="0"/>
        <pt x="41" y="43" on="1"/>
        <pt x="41" y="74" on="0"/>
        <pt x="166" y="280" on="0"/>
        <pt x="251" y="392" on="1"/>
        <pt x="193" y="514" on="0"/>
        <pt x="116" y="735" on="0"/>
        <pt x="116" y="814" on="0"/>
        <pt x="151" y="856" on="0"/>
        <pt x="200" y="871" on="1"/>
        <pt x="215" y="716" on="0"/>
        <pt x="333" y="472" on="1"/>
        <pt x="400" y="561" on="0"/>
        <pt x="514" y="762" on="0"/>
      </contour>
    </TTGlyph>
    <TTGlyph name="Y" xMin="27" yMin="-7" xMax="591" yMax="889">
      <contour>
        <pt x="432" y="645" on="0"/>
        <pt x="484" y="756" on="0"/>
        <pt x="484" y="830" on="0"/>
        <pt x="474" y="849" on="1"/>
        <pt x="500" y="885" on="0"/>
        <pt x="591" y="885" on="0"/>
        <pt x="591" y="837" on="1"/>
        <pt x="591" y="800" on="0"/>
        <pt x="504" y="641" on="0"/>
        <pt x="469" y="579" on="0"/>
        <pt x="377" y="425" on="0"/>
        <pt x="370" y="414" on="1"/>
        <pt x="335" y="355" on="0"/>
        <pt x="326" y="306" on="1"/>
        <pt x="314" y="210" on="0"/>
        <pt x="314" y="155" on="1"/>
        <pt x="314" y="69" on="0"/>
        <pt x="350" y="29" on="1"/>
        <pt x="319" y="-7" on="0"/>
        <pt x="243" y="-7" on="0"/>
        <pt x="205" y="50" on="0"/>
        <pt x="205" y="166" on="0"/>
        <pt x="228" y="309" on="1"/>
        <pt x="125" y="823" on="0"/>
        <pt x="27" y="823" on="1"/>
        <pt x="38" y="857" on="0"/>
        <pt x="88" y="889" on="0"/>
        <pt x="111" y="889" on="1"/>
        <pt x="171" y="889" on="0"/>
        <pt x="208" y="785" on="1"/>
        <pt x="251" y="658" on="0"/>
        <pt x="302" y="419" on="1"/>
        <pt x="330" y="476" on="0"/>
      </contour>
    </TTGlyph>
    <TTGlyph name="Yacute" xMin="27" yMin="-7" xMax="591" yMax="1089">
      <contour>
        <pt x="432" y="645" on="0"/>
        <pt x="484" y="756" on="0"/>
        <pt x="484" y="830" on="0"/>
        <pt x="474" y="849" on="1"/>
        <pt x="500" y="885" on="0"/>
        <pt x="591" y="885" on="0"/>
        <pt x="591" y="837" on="1"/>
        <pt x="591" y="800" on="0"/>
        <pt x="504" y="641" on="0"/>
        <pt x="469" y="579" on="0"/>
        <pt x="377" y="425" on="0"/>
        <pt x="370" y="414" on="1"/>
        <pt x="335" y="355" on="0"/>
        <pt x="326" y="306" on="1"/>
        <pt x="314" y="210" on="0"/>
        <pt x="314" y="155" on="1"/>
        <pt x="314" y="69" on="0"/>
        <pt x="350" y="29" on="1"/>
        <pt x="319" y="-7" on="0"/>
        <pt x="243" y="-7" on="0"/>
        <pt x="205" y="50" on="0"/>
        <pt x="205" y="166" on="0"/>
        <pt x="228" y="309" on="1"/>
        <pt x="125" y="823" on="0"/>
        <pt x="27" y="823" on="1"/>
        <pt x="38" y="857" on="0"/>
        <pt x="88" y="889" on="0"/>
        <pt x="111" y="889" on="1"/>
        <pt x="171" y="889" on="0"/>
        <pt x="208" y="785" on="1"/>
        <pt x="251" y="658" on="0"/>
        <pt x="302" y="419" on="1"/>
        <pt x="330" y="476" on="0"/>
      </contour>
      <contour>
        <pt x="273" y="911" on="1"/>
        <pt x="260" y="911" on="0"/>
        <pt x="246" y="939" on="1"/>
        <pt x="326" y="999" on="0"/>
        <pt x="393" y="1060" on="0"/>
        <pt x="406" y="1084" on="1"/>
        <pt x="430" y="1089" on="0"/>
        <pt x="483" y="1089" on="0"/>
        <pt x="510" y="1072" on="0"/>
        <pt x="510" y="1051" on="0"/>
        <pt x="497" y="1037" on="0"/>
        <pt x="420" y="982" on="0"/>
        <pt x="288" y="911" on="0"/>
      </contour>
    </TTGlyph>
    <TTGlyph name="Ydieresis" xMin="27" yMin="-7" xMax="591" yMax="1055">
      <contour>
        <pt x="432" y="645" on="0"/>
        <pt x="484" y="756" on="0"/>
        <pt x="484" y="830" on="0"/>
        <pt x="474" y="849" on="1"/>
        <pt x="500" y="885" on="0"/>
        <pt x="591" y="885" on="0"/>
        <pt x="591" y="837" on="1"/>
        <pt x="591" y="800" on="0"/>
        <pt x="504" y="641" on="0"/>
        <pt x="469" y="579" on="0"/>
        <pt x="377" y="425" on="0"/>
        <pt x="370" y="414" on="1"/>
        <pt x="335" y="355" on="0"/>
        <pt x="326" y="306" on="1"/>
        <pt x="314" y="210" on="0"/>
        <pt x="314" y="155" on="1"/>
        <pt x="314" y="69" on="0"/>
        <pt x="350" y="29" on="1"/>
        <pt x="319" y="-7" on="0"/>
        <pt x="243" y="-7" on="0"/>
        <pt x="205" y="50" on="0"/>
        <pt x="205" y="166" on="0"/>
        <pt x="228" y="309" on="1"/>
        <pt x="125" y="823" on="0"/>
        <pt x="27" y="823" on="1"/>
        <pt x="38" y="857" on="0"/>
        <pt x="88" y="889" on="0"/>
        <pt x="111" y="889" on="1"/>
        <pt x="171" y="889" on="0"/>
        <pt x="208" y="785" on="1"/>
        <pt x="251" y="658" on="0"/>
        <pt x="302" y="419" on="1"/>
        <pt x="330" y="476" on="0"/>
      </contour>
      <contour>
        <pt x="314" y="1012" on="1"/>
        <pt x="314" y="992" on="0"/>
        <pt x="303" y="951" on="1"/>
        <pt x="266" y="928" on="0"/>
        <pt x="205" y="928" on="0"/>
        <pt x="180" y="950" on="0"/>
        <pt x="180" y="998" on="0"/>
        <pt x="187" y="1032" on="1"/>
        <pt x="224" y="1055" on="0"/>
        <pt x="256" y="1055" on="1"/>
        <pt x="314" y="1055" on="0"/>
      </contour>
      <contour>
        <pt x="548" y="1012" on="1"/>
        <pt x="548" y="987" on="0"/>
        <pt x="537" y="951" on="1"/>
        <pt x="500" y="928" on="0"/>
        <pt x="439" y="928" on="0"/>
        <pt x="414" y="950" on="0"/>
        <pt x="414" y="990" on="0"/>
        <pt x="421" y="1032" on="1"/>
        <pt x="459" y="1055" on="0"/>
        <pt x="490" y="1055" on="1"/>
        <pt x="548" y="1055" on="0"/>
      </contour>
    </TTGlyph>
    <TTGlyph name="Z" xMin="10" yMin="-23" xMax="601" yMax="884">
      <contour>
        <pt x="238" y="732" on="1"/>
        <pt x="89" y="732" on="0"/>
        <pt x="89" y="809" on="1"/>
        <pt x="89" y="852" on="0"/>
        <pt x="113" y="884" on="1"/>
        <pt x="209" y="825" on="0"/>
        <pt x="345" y="825" on="1"/>
        <pt x="402" y="825" on="0"/>
        <pt x="452" y="830" on="1"/>
        <pt x="486" y="866" on="0"/>
        <pt x="525" y="866" on="1"/>
        <pt x="601" y="866" on="0"/>
        <pt x="601" y="789" on="1"/>
        <pt x="569" y="784" on="0"/>
        <pt x="478" y="684" on="0"/>
        <pt x="392" y="550" on="0"/>
        <pt x="336" y="446" on="1"/>
        <pt x="262" y="311" on="0"/>
        <pt x="150" y="78" on="1"/>
        <pt x="289" y="116" on="0"/>
        <pt x="480" y="116" on="0"/>
        <pt x="551" y="78" on="0"/>
        <pt x="551" y="12" on="1"/>
        <pt x="551" y="1" on="0"/>
        <pt x="549" y="-23" on="1"/>
        <pt x="494" y="-1" on="0"/>
        <pt x="390" y="19" on="0"/>
        <pt x="196" y="19" on="0"/>
        <pt x="107" y="-1" on="1"/>
        <pt x="87" y="-21" on="0"/>
        <pt x="64" y="-21" on="1"/>
        <pt x="28" y="-21" on="0"/>
        <pt x="10" y="17" on="1"/>
        <pt x="97" y="208" on="0"/>
        <pt x="397" y="749" on="1"/>
        <pt x="303" y="732" on="0"/>
      </contour>
    </TTGlyph>
    <TTGlyph name="Zcaron" xMin="10" yMin="-23" xMax="601" yMax="1089">
      <contour>
        <pt x="238" y="732" on="1"/>
        <pt x="89" y="732" on="0"/>
        <pt x="89" y="809" on="1"/>
        <pt x="89" y="852" on="0"/>
        <pt x="113" y="884" on="1"/>
        <pt x="209" y="825" on="0"/>
        <pt x="345" y="825" on="1"/>
        <pt x="402" y="825" on="0"/>
        <pt x="452" y="830" on="1"/>
        <pt x="486" y="866" on="0"/>
        <pt x="525" y="866" on="1"/>
        <pt x="601" y="866" on="0"/>
        <pt x="601" y="789" on="1"/>
        <pt x="569" y="784" on="0"/>
        <pt x="478" y="684" on="0"/>
        <pt x="392" y="550" on="0"/>
        <pt x="336" y="446" on="1"/>
        <pt x="262" y="311" on="0"/>
        <pt x="150" y="78" on="1"/>
        <pt x="289" y="116" on="0"/>
        <pt x="480" y="116" on="0"/>
        <pt x="551" y="78" on="0"/>
        <pt x="551" y="12" on="1"/>
        <pt x="551" y="1" on="0"/>
        <pt x="549" y="-23" on="1"/>
        <pt x="494" y="-1" on="0"/>
        <pt x="390" y="19" on="0"/>
        <pt x="196" y="19" on="0"/>
        <pt x="107" y="-1" on="1"/>
        <pt x="87" y="-21" on="0"/>
        <pt x="64" y="-21" on="1"/>
        <pt x="28" y="-21" on="0"/>
        <pt x="10" y="17" on="1"/>
        <pt x="97" y="208" on="0"/>
        <pt x="397" y="749" on="1"/>
        <pt x="303" y="732" on="0"/>
      </contour>
      <contour>
        <pt x="229" y="1089" on="1"/>
        <pt x="252" y="1089" on="0"/>
        <pt x="365" y="999" on="1"/>
        <pt x="500" y="1089" on="0"/>
        <pt x="524" y="1089" on="1"/>
        <pt x="537" y="1089" on="0"/>
        <pt x="551" y="1061" on="1"/>
        <pt x="455" y="990" on="0"/>
        <pt x="427" y="950" on="1"/>
        <pt x="417" y="936" on="0"/>
        <pt x="406" y="916" on="1"/>
        <pt x="389" y="911" on="0"/>
        <pt x="327" y="911" on="0"/>
        <pt x="312" y="922" on="1"/>
        <pt x="310" y="924" on="0"/>
        <pt x="289" y="956" on="0"/>
        <pt x="277" y="973" on="1"/>
        <pt x="241" y="1023" on="0"/>
        <pt x="202" y="1061" on="1"/>
        <pt x="218" y="1089" on="0"/>
      </contour>
    </TTGlyph>
    <TTGlyph name="a" xMin="68" yMin="-14" xMax="613" yMax="684">
      <contour>
        <pt x="215" y="-14" on="1"/>
        <pt x="147" y="-14" on="0"/>
        <pt x="68" y="120" on="0"/>
        <pt x="68" y="237" on="1"/>
        <pt x="68" y="425" on="0"/>
        <pt x="237" y="684" on="0"/>
        <pt x="361" y="684" on="1"/>
        <pt x="446" y="684" on="0"/>
        <pt x="502" y="617" on="1"/>
        <pt x="510" y="648" on="0"/>
        <pt x="535" y="674" on="0"/>
        <pt x="588" y="674" on="0"/>
        <pt x="611" y="648" on="1"/>
        <pt x="593" y="600" on="0"/>
        <pt x="567" y="374" on="0"/>
        <pt x="567" y="179" on="0"/>
        <pt x="588" y="72" on="0"/>
        <pt x="613" y="30" on="1"/>
        <pt x="584" y="-7" on="0"/>
        <pt x="545" y="-7" on="1"/>
        <pt x="459" y="-7" on="0"/>
        <pt x="459" y="204" on="1"/>
        <pt x="459" y="238" on="0"/>
        <pt x="467" y="323" on="1"/>
        <pt x="415" y="178" on="0"/>
        <pt x="272" y="-14" on="0"/>
      </contour>
      <contour>
        <pt x="365" y="615" on="1"/>
        <pt x="280" y="615" on="0"/>
        <pt x="173" y="417" on="0"/>
        <pt x="173" y="262" on="1"/>
        <pt x="173" y="183" on="0"/>
        <pt x="214" y="92" on="0"/>
        <pt x="285" y="92" on="0"/>
        <pt x="394" y="248" on="0"/>
        <pt x="484" y="473" on="0"/>
        <pt x="494" y="563" on="1"/>
        <pt x="426" y="615" on="0"/>
      </contour>
    </TTGlyph>
    <TTGlyph name="aacute" xMin="68" yMin="-14" xMax="613" yMax="918">
      <contour>
        <pt x="215" y="-14" on="1"/>
        <pt x="147" y="-14" on="0"/>
        <pt x="68" y="120" on="0"/>
        <pt x="68" y="237" on="1"/>
        <pt x="68" y="425" on="0"/>
        <pt x="237" y="684" on="0"/>
        <pt x="361" y="684" on="1"/>
        <pt x="446" y="684" on="0"/>
        <pt x="502" y="617" on="1"/>
        <pt x="510" y="648" on="0"/>
        <pt x="535" y="674" on="0"/>
        <pt x="588" y="674" on="0"/>
        <pt x="611" y="648" on="1"/>
        <pt x="593" y="600" on="0"/>
        <pt x="567" y="374" on="0"/>
        <pt x="567" y="179" on="0"/>
        <pt x="588" y="72" on="0"/>
        <pt x="613" y="30" on="1"/>
        <pt x="584" y="-7" on="0"/>
        <pt x="545" y="-7" on="1"/>
        <pt x="459" y="-7" on="0"/>
        <pt x="459" y="204" on="1"/>
        <pt x="459" y="238" on="0"/>
        <pt x="467" y="323" on="1"/>
        <pt x="415" y="178" on="0"/>
        <pt x="272" y="-14" on="0"/>
      </contour>
      <contour>
        <pt x="365" y="615" on="1"/>
        <pt x="280" y="615" on="0"/>
        <pt x="173" y="417" on="0"/>
        <pt x="173" y="262" on="1"/>
        <pt x="173" y="183" on="0"/>
        <pt x="214" y="92" on="0"/>
        <pt x="285" y="92" on="0"/>
        <pt x="394" y="248" on="0"/>
        <pt x="484" y="473" on="0"/>
        <pt x="494" y="563" on="1"/>
        <pt x="426" y="615" on="0"/>
      </contour>
      <contour>
        <pt x="333" y="740" on="1"/>
        <pt x="320" y="740" on="0"/>
        <pt x="306" y="768" on="1"/>
        <pt x="386" y="828" on="0"/>
        <pt x="453" y="889" on="0"/>
        <pt x="466" y="913" on="1"/>
        <pt x="490" y="918" on="0"/>
        <pt x="543" y="918" on="0"/>
        <pt x="570" y="901" on="0"/>
        <pt x="570" y="880" on="0"/>
        <pt x="557" y="866" on="0"/>
        <pt x="480" y="811" on="0"/>
        <pt x="348" y="740" on="0"/>
      </contour>
    </TTGlyph>
    <TTGlyph name="acircumflex" xMin="68" yMin="-14" xMax="613" yMax="918">
      <contour>
        <pt x="215" y="-14" on="1"/>
        <pt x="147" y="-14" on="0"/>
        <pt x="68" y="120" on="0"/>
        <pt x="68" y="237" on="1"/>
        <pt x="68" y="425" on="0"/>
        <pt x="237" y="684" on="0"/>
        <pt x="361" y="684" on="1"/>
        <pt x="446" y="684" on="0"/>
        <pt x="502" y="617" on="1"/>
        <pt x="510" y="648" on="0"/>
        <pt x="535" y="674" on="0"/>
        <pt x="588" y="674" on="0"/>
        <pt x="611" y="648" on="1"/>
        <pt x="593" y="600" on="0"/>
        <pt x="567" y="374" on="0"/>
        <pt x="567" y="179" on="0"/>
        <pt x="588" y="72" on="0"/>
        <pt x="613" y="30" on="1"/>
        <pt x="584" y="-7" on="0"/>
        <pt x="545" y="-7" on="1"/>
        <pt x="459" y="-7" on="0"/>
        <pt x="459" y="204" on="1"/>
        <pt x="459" y="238" on="0"/>
        <pt x="467" y="323" on="1"/>
        <pt x="415" y="178" on="0"/>
        <pt x="272" y="-14" on="0"/>
      </contour>
      <contour>
        <pt x="365" y="615" on="1"/>
        <pt x="280" y="615" on="0"/>
        <pt x="173" y="417" on="0"/>
        <pt x="173" y="262" on="1"/>
        <pt x="173" y="183" on="0"/>
        <pt x="214" y="92" on="0"/>
        <pt x="285" y="92" on="0"/>
        <pt x="394" y="248" on="0"/>
        <pt x="484" y="473" on="0"/>
        <pt x="494" y="563" on="1"/>
        <pt x="426" y="615" on="0"/>
      </contour>
      <contour>
        <pt x="541" y="740" on="1"/>
        <pt x="519" y="740" on="0"/>
        <pt x="405" y="831" on="1"/>
        <pt x="274" y="740" on="0"/>
        <pt x="246" y="740" on="1"/>
        <pt x="235" y="740" on="0"/>
        <pt x="219" y="768" on="1"/>
        <pt x="312" y="838" on="0"/>
        <pt x="344" y="879" on="1"/>
        <pt x="354" y="893" on="0"/>
        <pt x="365" y="913" on="1"/>
        <pt x="382" y="918" on="0"/>
        <pt x="444" y="918" on="0"/>
        <pt x="459" y="907" on="1"/>
        <pt x="460" y="906" on="0"/>
        <pt x="475" y="882" on="0"/>
        <pt x="492" y="857" on="0"/>
        <pt x="504" y="840" on="1"/>
        <pt x="538" y="796" on="0"/>
        <pt x="568" y="768" on="1"/>
        <pt x="554" y="740" on="0"/>
      </contour>
    </TTGlyph>
    <TTGlyph name="acute" xMin="117" yMin="740" xMax="381" yMax="918">
      <contour>
        <pt x="144" y="740" on="1"/>
        <pt x="131" y="740" on="0"/>
        <pt x="117" y="768" on="1"/>
        <pt x="197" y="828" on="0"/>
        <pt x="264" y="889" on="0"/>
        <pt x="277" y="913" on="1"/>
        <pt x="301" y="918" on="0"/>
        <pt x="354" y="918" on="0"/>
        <pt x="381" y="901" on="0"/>
        <pt x="381" y="880" on="0"/>
        <pt x="368" y="866" on="0"/>
        <pt x="291" y="811" on="0"/>
        <pt x="159" y="740" on="0"/>
      </contour>
    </TTGlyph>
    <TTGlyph name="acute.case" xMin="117" yMin="911" xMax="381" yMax="1089">
      <contour>
        <pt x="144" y="911" on="1"/>
        <pt x="131" y="911" on="0"/>
        <pt x="117" y="939" on="1"/>
        <pt x="197" y="999" on="0"/>
        <pt x="264" y="1060" on="0"/>
        <pt x="277" y="1084" on="1"/>
        <pt x="301" y="1089" on="0"/>
        <pt x="354" y="1089" on="0"/>
        <pt x="381" y="1072" on="0"/>
        <pt x="381" y="1051" on="0"/>
        <pt x="368" y="1037" on="0"/>
        <pt x="291" y="982" on="0"/>
        <pt x="159" y="911" on="0"/>
      </contour>
    </TTGlyph>
    <TTGlyph name="adieresis" xMin="68" yMin="-14" xMax="613" yMax="884">
      <contour>
        <pt x="215" y="-14" on="1"/>
        <pt x="147" y="-14" on="0"/>
        <pt x="68" y="120" on="0"/>
        <pt x="68" y="237" on="1"/>
        <pt x="68" y="425" on="0"/>
        <pt x="237" y="684" on="0"/>
        <pt x="361" y="684" on="1"/>
        <pt x="446" y="684" on="0"/>
        <pt x="502" y="617" on="1"/>
        <pt x="510" y="648" on="0"/>
        <pt x="535" y="674" on="0"/>
        <pt x="588" y="674" on="0"/>
        <pt x="611" y="648" on="1"/>
        <pt x="593" y="600" on="0"/>
        <pt x="567" y="374" on="0"/>
        <pt x="567" y="179" on="0"/>
        <pt x="588" y="72" on="0"/>
        <pt x="613" y="30" on="1"/>
        <pt x="584" y="-7" on="0"/>
        <pt x="545" y="-7" on="1"/>
        <pt x="459" y="-7" on="0"/>
        <pt x="459" y="204" on="1"/>
        <pt x="459" y="238" on="0"/>
        <pt x="467" y="323" on="1"/>
        <pt x="415" y="178" on="0"/>
        <pt x="272" y="-14" on="0"/>
      </contour>
      <contour>
        <pt x="365" y="615" on="1"/>
        <pt x="280" y="615" on="0"/>
        <pt x="173" y="417" on="0"/>
        <pt x="173" y="262" on="1"/>
        <pt x="173" y="183" on="0"/>
        <pt x="214" y="92" on="0"/>
        <pt x="285" y="92" on="0"/>
        <pt x="394" y="248" on="0"/>
        <pt x="484" y="473" on="0"/>
        <pt x="494" y="563" on="1"/>
        <pt x="426" y="615" on="0"/>
      </contour>
      <contour>
        <pt x="367" y="841" on="1"/>
        <pt x="367" y="821" on="0"/>
        <pt x="356" y="780" on="1"/>
        <pt x="319" y="757" on="0"/>
        <pt x="258" y="757" on="0"/>
        <pt x="233" y="779" on="0"/>
        <pt x="233" y="827" on="0"/>
        <pt x="240" y="861" on="1"/>
        <pt x="277" y="884" on="0"/>
        <pt x="309" y="884" on="1"/>
        <pt x="367" y="884" on="0"/>
      </contour>
      <contour>
        <pt x="601" y="841" on="1"/>
        <pt x="601" y="816" on="0"/>
        <pt x="590" y="780" on="1"/>
        <pt x="553" y="757" on="0"/>
        <pt x="492" y="757" on="0"/>
        <pt x="467" y="779" on="0"/>
        <pt x="467" y="819" on="0"/>
        <pt x="474" y="861" on="1"/>
        <pt x="512" y="884" on="0"/>
        <pt x="543" y="884" on="1"/>
        <pt x="601" y="884" on="0"/>
      </contour>
    </TTGlyph>
    <TTGlyph name="ae" xMin="68" yMin="-17" xMax="895" yMax="684">
      <contour>
        <pt x="361" y="684" on="1"/>
        <pt x="458" y="684" on="0"/>
        <pt x="541" y="594" on="1"/>
        <pt x="628" y="684" on="0"/>
        <pt x="738" y="684" on="1"/>
        <pt x="815" y="684" on="0"/>
        <pt x="895" y="608" on="0"/>
        <pt x="895" y="503" on="0"/>
        <pt x="850" y="410" on="0"/>
        <pt x="771" y="331" on="0"/>
        <pt x="647" y="281" on="0"/>
        <pt x="576" y="281" on="1"/>
        <pt x="546" y="281" on="0"/>
        <pt x="521" y="285" on="1"/>
        <pt x="522" y="174" on="0"/>
        <pt x="603" y="57" on="0"/>
        <pt x="676" y="57" on="1"/>
        <pt x="780" y="57" on="0"/>
        <pt x="827" y="158" on="1"/>
        <pt x="851" y="135" on="0"/>
        <pt x="851" y="102" on="1"/>
        <pt x="851" y="46" on="0"/>
        <pt x="726" y="-17" on="0"/>
        <pt x="657" y="-17" on="1"/>
        <pt x="550" y="-17" on="0"/>
        <pt x="430" y="104" on="0"/>
        <pt x="417" y="205" on="1"/>
        <pt x="369" y="106" on="0"/>
        <pt x="259" y="-14" on="0"/>
        <pt x="215" y="-14" on="1"/>
        <pt x="147" y="-14" on="0"/>
        <pt x="68" y="120" on="0"/>
        <pt x="68" y="237" on="1"/>
        <pt x="68" y="425" on="0"/>
        <pt x="237" y="684" on="0"/>
      </contour>
      <contour>
        <pt x="173" y="183" on="0"/>
        <pt x="214" y="92" on="0"/>
        <pt x="281" y="92" on="0"/>
        <pt x="371" y="212" on="0"/>
        <pt x="417" y="308" on="1"/>
        <pt x="430" y="444" on="0"/>
        <pt x="507" y="552" on="1"/>
        <pt x="436" y="615" on="0"/>
        <pt x="365" y="615" on="1"/>
        <pt x="280" y="615" on="0"/>
        <pt x="173" y="417" on="0"/>
        <pt x="173" y="262" on="1"/>
      </contour>
      <contour>
        <pt x="790" y="556" on="0"/>
        <pt x="739" y="609" on="0"/>
        <pt x="649" y="609" on="0"/>
        <pt x="584" y="559" on="0"/>
        <pt x="566" y="516" on="1"/>
        <pt x="532" y="436" on="0"/>
        <pt x="524" y="348" on="1"/>
        <pt x="548" y="345" on="0"/>
        <pt x="569" y="345" on="1"/>
        <pt x="671" y="345" on="0"/>
        <pt x="790" y="450" on="0"/>
        <pt x="790" y="515" on="1"/>
      </contour>
    </TTGlyph>
    <TTGlyph name="agrave" xMin="68" yMin="-14" xMax="613" yMax="918">
      <contour>
        <pt x="215" y="-14" on="1"/>
        <pt x="147" y="-14" on="0"/>
        <pt x="68" y="120" on="0"/>
        <pt x="68" y="237" on="1"/>
        <pt x="68" y="425" on="0"/>
        <pt x="237" y="684" on="0"/>
        <pt x="361" y="684" on="1"/>
        <pt x="446" y="684" on="0"/>
        <pt x="502" y="617" on="1"/>
        <pt x="510" y="648" on="0"/>
        <pt x="535" y="674" on="0"/>
        <pt x="588" y="674" on="0"/>
        <pt x="611" y="648" on="1"/>
        <pt x="593" y="600" on="0"/>
        <pt x="567" y="374" on="0"/>
        <pt x="567" y="179" on="0"/>
        <pt x="588" y="72" on="0"/>
        <pt x="613" y="30" on="1"/>
        <pt x="584" y="-7" on="0"/>
        <pt x="545" y="-7" on="1"/>
        <pt x="459" y="-7" on="0"/>
        <pt x="459" y="204" on="1"/>
        <pt x="459" y="238" on="0"/>
        <pt x="467" y="323" on="1"/>
        <pt x="415" y="178" on="0"/>
        <pt x="272" y="-14" on="0"/>
      </contour>
      <contour>
        <pt x="365" y="615" on="1"/>
        <pt x="280" y="615" on="0"/>
        <pt x="173" y="417" on="0"/>
        <pt x="173" y="262" on="1"/>
        <pt x="173" y="183" on="0"/>
        <pt x="214" y="92" on="0"/>
        <pt x="285" y="92" on="0"/>
        <pt x="394" y="248" on="0"/>
        <pt x="484" y="473" on="0"/>
        <pt x="494" y="563" on="1"/>
        <pt x="426" y="615" on="0"/>
      </contour>
      <contour>
        <pt x="276" y="866" on="0"/>
        <pt x="263" y="880" on="0"/>
        <pt x="263" y="901" on="0"/>
        <pt x="290" y="918" on="0"/>
        <pt x="343" y="918" on="0"/>
        <pt x="367" y="913" on="1"/>
        <pt x="380" y="890" on="0"/>
        <pt x="447" y="829" on="0"/>
        <pt x="528" y="768" on="1"/>
        <pt x="512" y="740" on="0"/>
        <pt x="486" y="740" on="0"/>
        <pt x="353" y="812" on="0"/>
      </contour>
    </TTGlyph>
    <TTGlyph name="ampersand" xMin="91" yMin="-19" xMax="757" yMax="887">
      <contour>
        <pt x="325" y="438" on="0"/>
        <pt x="202" y="303" on="0"/>
        <pt x="202" y="152" on="0"/>
        <pt x="286" y="55" on="0"/>
        <pt x="439" y="55" on="0"/>
        <pt x="554" y="169" on="0"/>
        <pt x="554" y="255" on="1"/>
        <pt x="554" y="285" on="0"/>
        <pt x="547" y="314" on="1"/>
        <pt x="410" y="273" on="0"/>
        <pt x="366" y="238" on="1"/>
        <pt x="345" y="221" on="0"/>
        <pt x="334" y="200" on="1"/>
        <pt x="325" y="227" on="0"/>
        <pt x="325" y="299" on="0"/>
        <pt x="395" y="354" on="0"/>
        <pt x="504" y="388" on="0"/>
        <pt x="562" y="404" on="1"/>
        <pt x="708" y="445" on="0"/>
        <pt x="748" y="506" on="1"/>
        <pt x="757" y="473" on="0"/>
        <pt x="757" y="451" on="1"/>
        <pt x="757" y="384" on="0"/>
        <pt x="635" y="342" on="1"/>
        <pt x="643" y="299" on="0"/>
        <pt x="643" y="266" on="1"/>
        <pt x="643" y="135" on="0"/>
        <pt x="460" y="-19" on="0"/>
        <pt x="339" y="-19" on="1"/>
        <pt x="273" y="-19" on="0"/>
        <pt x="173" y="25" on="0"/>
        <pt x="146" y="60" on="1"/>
        <pt x="91" y="131" on="0"/>
        <pt x="91" y="303" on="0"/>
        <pt x="208" y="447" on="0"/>
        <pt x="311" y="484" on="1"/>
        <pt x="142" y="539" on="0"/>
        <pt x="142" y="689" on="1"/>
        <pt x="142" y="772" on="0"/>
        <pt x="272" y="887" on="0"/>
        <pt x="503" y="887" on="0"/>
        <pt x="604" y="812" on="0"/>
        <pt x="604" y="769" on="1"/>
        <pt x="604" y="741" on="0"/>
        <pt x="571" y="708" on="0"/>
        <pt x="529" y="692" on="1"/>
        <pt x="500" y="827" on="0"/>
        <pt x="389" y="827" on="1"/>
        <pt x="324" y="827" on="0"/>
        <pt x="247" y="742" on="0"/>
        <pt x="247" y="691" on="1"/>
        <pt x="247" y="541" on="0"/>
        <pt x="416" y="522" on="1"/>
        <pt x="439" y="520" on="0"/>
        <pt x="455" y="510" on="0"/>
        <pt x="455" y="478" on="0"/>
        <pt x="448" y="459" on="1"/>
      </contour>
    </TTGlyph>
    <TTGlyph name="apple" xMin="120" yMin="-114" xMax="843" yMax="608">
      <contour>
        <pt x="609" y="-89" on="1"/>
        <pt x="586" y="-88" on="1"/>
        <pt x="572" y="-88" on="0"/>
        <pt x="537" y="-112" on="0"/>
        <pt x="528" y="-112" on="1"/>
        <pt x="482" y="-102" on="1"/>
        <pt x="474" y="-102" on="0"/>
        <pt x="443" y="-114" on="0"/>
        <pt x="426" y="-114" on="0"/>
        <pt x="394" y="-89" on="0"/>
        <pt x="381" y="-89" on="1"/>
        <pt x="357" y="-91" on="1"/>
        <pt x="342" y="-91" on="0"/>
        <pt x="324" y="-74" on="1"/>
        <pt x="306" y="-55" on="1"/>
        <pt x="294" y="-49" on="0"/>
        <pt x="268" y="-47" on="0"/>
        <pt x="250" y="-36" on="0"/>
        <pt x="236" y="-1" on="0"/>
        <pt x="225" y="8" on="0"/>
        <pt x="197" y="19" on="0"/>
        <pt x="191" y="28" on="1"/>
        <pt x="186" y="37" on="0"/>
        <pt x="182" y="66" on="0"/>
        <pt x="174" y="79" on="0"/>
        <pt x="164" y="86" on="1"/>
        <pt x="142" y="104" on="0"/>
        <pt x="142" y="124" on="1"/>
        <pt x="145" y="149" on="1"/>
        <pt x="145" y="158" on="0"/>
        <pt x="120" y="193" on="0"/>
        <pt x="120" y="211" on="0"/>
        <pt x="132" y="240" on="0"/>
        <pt x="132" y="257" on="0"/>
        <pt x="120" y="283" on="0"/>
        <pt x="120" y="301" on="0"/>
        <pt x="145" y="342" on="0"/>
        <pt x="145" y="351" on="1"/>
        <pt x="144" y="376" on="1"/>
        <pt x="144" y="391" on="0"/>
        <pt x="177" y="420" on="0"/>
        <pt x="182" y="430" on="0"/>
        <pt x="186" y="462" on="0"/>
        <pt x="194" y="474" on="0"/>
        <pt x="225" y="486" on="0"/>
        <pt x="235" y="496" on="0"/>
        <pt x="249" y="527" on="0"/>
        <pt x="262" y="538" on="0"/>
        <pt x="300" y="546" on="0"/>
        <pt x="311" y="552" on="0"/>
        <pt x="341" y="586" on="0"/>
        <pt x="355" y="587" on="1"/>
        <pt x="381" y="585" on="1"/>
        <pt x="394" y="585" on="0"/>
        <pt x="425" y="608" on="0"/>
        <pt x="436" y="608" on="1"/>
        <pt x="480" y="596" on="1"/>
        <pt x="525" y="608" on="1"/>
        <pt x="538" y="608" on="0"/>
        <pt x="570" y="583" on="0"/>
        <pt x="582" y="583" on="1"/>
        <pt x="610" y="586" on="1"/>
        <pt x="626" y="586" on="0"/>
        <pt x="652" y="553" on="0"/>
        <pt x="665" y="546" on="0"/>
        <pt x="695" y="540" on="0"/>
        <pt x="710" y="530" on="0"/>
        <pt x="720" y="502" on="0"/>
        <pt x="731" y="492" on="0"/>
        <pt x="771" y="471" on="0"/>
        <pt x="780" y="455" on="0"/>
        <pt x="781" y="423" on="0"/>
        <pt x="786" y="414" on="0"/>
        <pt x="820" y="385" on="0"/>
        <pt x="820" y="369" on="1"/>
        <pt x="819" y="344" on="1"/>
        <pt x="819" y="331" on="0"/>
        <pt x="843" y="294" on="0"/>
        <pt x="843" y="276" on="0"/>
        <pt x="832" y="250" on="0"/>
        <pt x="832" y="236" on="0"/>
        <pt x="843" y="207" on="0"/>
        <pt x="842" y="191" on="0"/>
        <pt x="818" y="166" on="0"/>
        <pt x="818" y="152" on="1"/>
        <pt x="820" y="120" on="1"/>
        <pt x="820" y="104" on="0"/>
        <pt x="788" y="78" on="0"/>
        <pt x="783" y="68" on="0"/>
        <pt x="774" y="30" on="0"/>
        <pt x="763" y="17" on="0"/>
        <pt x="738" y="6" on="0"/>
        <pt x="728" y="-4" on="0"/>
        <pt x="710" y="-37" on="0"/>
        <pt x="696" y="-47" on="0"/>
        <pt x="661" y="-56" on="0"/>
        <pt x="651" y="-62" on="0"/>
        <pt x="624" y="-89" on="0"/>
      </contour>
      <contour>
        <pt x="482" y="-6" on="1"/>
        <pt x="515" y="-13" on="1"/>
        <pt x="521" y="-13" on="0"/>
        <pt x="532" y="-6" on="1"/>
        <pt x="547" y="4" on="0"/>
        <pt x="559" y="4" on="1"/>
        <pt x="574" y="3" on="1"/>
        <pt x="586" y="3" on="0"/>
        <pt x="604" y="23" on="0"/>
        <pt x="611" y="27" on="0"/>
        <pt x="637" y="34" on="0"/>
        <pt x="648" y="42" on="0"/>
        <pt x="661" y="65" on="0"/>
        <pt x="668" y="72" on="0"/>
        <pt x="686" y="80" on="0"/>
        <pt x="694" y="89" on="0"/>
        <pt x="700" y="117" on="0"/>
        <pt x="705" y="125" on="0"/>
        <pt x="727" y="143" on="0"/>
        <pt x="727" y="157" on="1"/>
        <pt x="726" y="177" on="1"/>
        <pt x="726" y="188" on="0"/>
        <pt x="743" y="207" on="0"/>
        <pt x="744" y="213" on="1"/>
        <pt x="736" y="245" on="1"/>
        <pt x="744" y="273" on="1"/>
        <pt x="744" y="281" on="0"/>
        <pt x="726" y="309" on="0"/>
        <pt x="726" y="318" on="1"/>
        <pt x="727" y="335" on="1"/>
        <pt x="727" y="347" on="0"/>
        <pt x="703" y="367" on="0"/>
        <pt x="699" y="375" on="0"/>
        <pt x="698" y="398" on="0"/>
        <pt x="692" y="409" on="0"/>
        <pt x="663" y="424" on="0"/>
        <pt x="655" y="432" on="0"/>
        <pt x="647" y="452" on="0"/>
        <pt x="637" y="460" on="0"/>
        <pt x="615" y="464" on="0"/>
        <pt x="605" y="469" on="0"/>
        <pt x="587" y="493" on="0"/>
        <pt x="575" y="493" on="1"/>
        <pt x="555" y="491" on="1"/>
        <pt x="546" y="491" on="0"/>
        <pt x="524" y="509" on="0"/>
        <pt x="514" y="509" on="1"/>
        <pt x="481" y="500" on="1"/>
        <pt x="449" y="509" on="1"/>
        <pt x="441" y="509" on="0"/>
        <pt x="417" y="492" on="0"/>
        <pt x="407" y="492" on="1"/>
        <pt x="390" y="493" on="1"/>
        <pt x="379" y="493" on="0"/>
        <pt x="358" y="468" on="0"/>
        <pt x="349" y="463" on="0"/>
        <pt x="323" y="458" on="0"/>
        <pt x="313" y="450" on="0"/>
        <pt x="303" y="428" on="0"/>
        <pt x="295" y="420" on="0"/>
        <pt x="274" y="412" on="0"/>
        <pt x="270" y="407" on="1"/>
        <pt x="268" y="403" on="0"/>
        <pt x="264" y="380" on="0"/>
        <pt x="260" y="372" on="0"/>
        <pt x="236" y="351" on="0"/>
        <pt x="236" y="340" on="1"/>
        <pt x="237" y="324" on="1"/>
        <pt x="237" y="316" on="0"/>
        <pt x="220" y="286" on="0"/>
        <pt x="220" y="278" on="1"/>
        <pt x="228" y="248" on="1"/>
        <pt x="220" y="215" on="1"/>
        <pt x="220" y="207" on="0"/>
        <pt x="237" y="182" on="0"/>
        <pt x="237" y="174" on="1"/>
        <pt x="235" y="158" on="1"/>
        <pt x="235" y="147" on="0"/>
        <pt x="260" y="124" on="0"/>
        <pt x="264" y="116" on="0"/>
        <pt x="267" y="95" on="0"/>
        <pt x="275" y="82" on="0"/>
        <pt x="295" y="74" on="0"/>
        <pt x="303" y="67" on="0"/>
        <pt x="314" y="41" on="0"/>
        <pt x="326" y="33" on="0"/>
        <pt x="345" y="33" on="0"/>
        <pt x="357" y="27" on="0"/>
        <pt x="380" y="2" on="0"/>
        <pt x="391" y="2" on="1"/>
        <pt x="406" y="3" on="1"/>
        <pt x="416" y="3" on="0"/>
        <pt x="440" y="-14" on="0"/>
        <pt x="446" y="-15" on="1"/>
      </contour>
      <contour>
        <pt x="412" y="417" on="0"/>
        <pt x="552" y="417" on="0"/>
        <pt x="652" y="318" on="0"/>
        <pt x="652" y="176" on="0"/>
        <pt x="552" y="77" on="0"/>
        <pt x="412" y="77" on="0"/>
        <pt x="312" y="176" on="0"/>
        <pt x="312" y="318" on="0"/>
      </contour>
      <contour>
        <pt x="525" y="292" on="1"/>
        <pt x="577" y="292" on="1"/>
        <pt x="577" y="360" on="1"/>
        <pt x="386" y="360" on="1"/>
        <pt x="386" y="292" on="1"/>
        <pt x="440" y="292" on="1"/>
        <pt x="440" y="117" on="1"/>
        <pt x="525" y="117" on="1"/>
      </contour>
    </TTGlyph>
    <TTGlyph name="approxequal" xMin="49" yMin="233" xMax="501" yMax="634">
      <contour>
        <pt x="68" y="494" on="1"/>
        <pt x="49" y="522" on="0"/>
        <pt x="49" y="585" on="0"/>
        <pt x="93" y="634" on="0"/>
        <pt x="189" y="634" on="0"/>
        <pt x="342" y="574" on="0"/>
        <pt x="404" y="574" on="0"/>
        <pt x="465" y="597" on="0"/>
        <pt x="486" y="615" on="1"/>
        <pt x="501" y="598" on="0"/>
        <pt x="501" y="530" on="0"/>
        <pt x="434" y="477" on="0"/>
        <pt x="332" y="477" on="0"/>
        <pt x="186" y="534" on="0"/>
        <pt x="154" y="534" on="1"/>
        <pt x="98" y="534" on="0"/>
      </contour>
      <contour>
        <pt x="68" y="250" on="1"/>
        <pt x="49" y="278" on="0"/>
        <pt x="49" y="341" on="0"/>
        <pt x="93" y="390" on="0"/>
        <pt x="189" y="390" on="0"/>
        <pt x="342" y="330" on="0"/>
        <pt x="404" y="330" on="0"/>
        <pt x="465" y="353" on="0"/>
        <pt x="486" y="371" on="1"/>
        <pt x="501" y="354" on="0"/>
        <pt x="501" y="286" on="0"/>
        <pt x="434" y="233" on="0"/>
        <pt x="332" y="233" on="0"/>
        <pt x="186" y="290" on="0"/>
        <pt x="154" y="290" on="1"/>
        <pt x="98" y="290" on="0"/>
      </contour>
    </TTGlyph>
    <TTGlyph name="aring" xMin="68" yMin="-14" xMax="613" yMax="974">
      <contour>
        <pt x="215" y="-14" on="1"/>
        <pt x="147" y="-14" on="0"/>
        <pt x="68" y="120" on="0"/>
        <pt x="68" y="237" on="1"/>
        <pt x="68" y="425" on="0"/>
        <pt x="237" y="684" on="0"/>
        <pt x="361" y="684" on="1"/>
        <pt x="446" y="684" on="0"/>
        <pt x="502" y="617" on="1"/>
        <pt x="510" y="648" on="0"/>
        <pt x="535" y="674" on="0"/>
        <pt x="588" y="674" on="0"/>
        <pt x="611" y="648" on="1"/>
        <pt x="593" y="600" on="0"/>
        <pt x="567" y="374" on="0"/>
        <pt x="567" y="179" on="0"/>
        <pt x="588" y="72" on="0"/>
        <pt x="613" y="30" on="1"/>
        <pt x="584" y="-7" on="0"/>
        <pt x="545" y="-7" on="1"/>
        <pt x="459" y="-7" on="0"/>
        <pt x="459" y="204" on="1"/>
        <pt x="459" y="238" on="0"/>
        <pt x="467" y="323" on="1"/>
        <pt x="415" y="178" on="0"/>
        <pt x="272" y="-14" on="0"/>
      </contour>
      <contour>
        <pt x="365" y="615" on="1"/>
        <pt x="280" y="615" on="0"/>
        <pt x="173" y="417" on="0"/>
        <pt x="173" y="262" on="1"/>
        <pt x="173" y="183" on="0"/>
        <pt x="214" y="92" on="0"/>
        <pt x="285" y="92" on="0"/>
        <pt x="394" y="248" on="0"/>
        <pt x="484" y="473" on="0"/>
        <pt x="494" y="563" on="1"/>
        <pt x="426" y="615" on="0"/>
      </contour>
      <contour>
        <pt x="405" y="928" on="1"/>
        <pt x="378" y="928" on="0"/>
        <pt x="353" y="857" on="0"/>
        <pt x="353" y="819" on="1"/>
        <pt x="353" y="755" on="0"/>
        <pt x="395" y="755" on="1"/>
        <pt x="422" y="755" on="0"/>
        <pt x="447" y="826" on="0"/>
        <pt x="447" y="863" on="1"/>
        <pt x="447" y="928" on="0"/>
      </contour>
      <contour>
        <pt x="420" y="974" on="1"/>
        <pt x="440" y="974" on="0"/>
        <pt x="481" y="954" on="0"/>
        <pt x="494" y="942" on="1"/>
        <pt x="523" y="915" on="0"/>
        <pt x="523" y="792" on="0"/>
        <pt x="438" y="708" on="0"/>
        <pt x="384" y="708" on="1"/>
        <pt x="359" y="708" on="0"/>
        <pt x="324" y="728" on="1"/>
        <pt x="305" y="739" on="0"/>
        <pt x="280" y="788" on="0"/>
        <pt x="280" y="822" on="1"/>
        <pt x="280" y="890" on="0"/>
        <pt x="366" y="974" on="0"/>
      </contour>
    </TTGlyph>
    <TTGlyph name="asciicircum" xMin="40" yMin="419" xMax="519" yMax="916">
      <contour>
        <pt x="233" y="891" on="1"/>
        <pt x="232" y="904" on="1"/>
        <pt x="265" y="916" on="0"/>
        <pt x="288" y="916" on="1"/>
        <pt x="329" y="916" on="0"/>
        <pt x="339" y="873" on="1"/>
        <pt x="387" y="669" on="0"/>
        <pt x="463" y="486" on="0"/>
        <pt x="519" y="485" on="1"/>
        <pt x="508" y="451" on="0"/>
        <pt x="460" y="419" on="0"/>
        <pt x="437" y="419" on="1"/>
        <pt x="371" y="419" on="0"/>
        <pt x="335" y="522" on="1"/>
        <pt x="326" y="549" on="0"/>
        <pt x="278" y="747" on="0"/>
        <pt x="260" y="812" on="1"/>
        <pt x="240" y="767" on="0"/>
        <pt x="183" y="645" on="0"/>
        <pt x="170" y="617" on="1"/>
        <pt x="138" y="544" on="0"/>
        <pt x="138" y="470" on="0"/>
        <pt x="149" y="451" on="1"/>
        <pt x="126" y="422" on="0"/>
        <pt x="86" y="422" on="1"/>
        <pt x="40" y="422" on="0"/>
        <pt x="40" y="473" on="1"/>
        <pt x="40" y="507" on="0"/>
        <pt x="136" y="692" on="0"/>
        <pt x="233" y="868" on="0"/>
      </contour>
    </TTGlyph>
    <TTGlyph name="asciitilde" xMin="73" yMin="345" xMax="472" yMax="507">
      <contour>
        <pt x="472" y="472" on="1"/>
        <pt x="472" y="425" on="0"/>
        <pt x="403" y="346" on="0"/>
        <pt x="355" y="346" on="1"/>
        <pt x="297" y="346" on="0"/>
        <pt x="219" y="418" on="0"/>
        <pt x="192" y="418" on="1"/>
        <pt x="137" y="418" on="0"/>
        <pt x="125" y="345" on="1"/>
        <pt x="73" y="345" on="0"/>
        <pt x="73" y="380" on="1"/>
        <pt x="73" y="427" on="0"/>
        <pt x="142" y="506" on="0"/>
        <pt x="190" y="506" on="1"/>
        <pt x="248" y="506" on="0"/>
        <pt x="326" y="434" on="0"/>
        <pt x="353" y="434" on="1"/>
        <pt x="408" y="434" on="0"/>
        <pt x="420" y="507" on="1"/>
        <pt x="472" y="507" on="0"/>
      </contour>
    </TTGlyph>
    <TTGlyph name="asterisk" xMin="53" yMin="447" xMax="505" yMax="911">
      <contour>
        <pt x="437" y="513" on="1"/>
        <pt x="422" y="513" on="0"/>
        <pt x="381" y="538" on="0"/>
        <pt x="353" y="564" on="0"/>
        <pt x="310" y="608" on="0"/>
        <pt x="304" y="614" on="1"/>
        <pt x="302" y="580" on="0"/>
        <pt x="302" y="497" on="0"/>
        <pt x="314" y="471" on="1"/>
        <pt x="288" y="447" on="0"/>
        <pt x="240" y="447" on="1"/>
        <pt x="223" y="447" on="0"/>
        <pt x="208" y="466" on="0"/>
        <pt x="208" y="507" on="0"/>
        <pt x="217" y="551" on="0"/>
        <pt x="233" y="608" on="0"/>
        <pt x="236" y="624" on="1"/>
        <pt x="146" y="583" on="0"/>
        <pt x="116" y="545" on="1"/>
        <pt x="95" y="553" on="0"/>
        <pt x="53" y="594" on="0"/>
        <pt x="53" y="627" on="0"/>
        <pt x="78" y="648" on="0"/>
        <pt x="122" y="665" on="0"/>
        <pt x="141" y="670" on="1"/>
        <pt x="173" y="680" on="0"/>
        <pt x="210" y="689" on="1"/>
        <pt x="127" y="746" on="0"/>
        <pt x="81" y="753" on="1"/>
        <pt x="81" y="780" on="0"/>
        <pt x="100" y="845" on="0"/>
        <pt x="121" y="845" on="1"/>
        <pt x="137" y="845" on="0"/>
        <pt x="177" y="820" on="0"/>
        <pt x="204" y="794" on="0"/>
        <pt x="247" y="749" on="0"/>
        <pt x="253" y="743" on="1"/>
        <pt x="255" y="775" on="0"/>
        <pt x="255" y="847" on="0"/>
        <pt x="244" y="887" on="1"/>
        <pt x="270" y="911" on="0"/>
        <pt x="318" y="911" on="1"/>
        <pt x="335" y="911" on="0"/>
        <pt x="350" y="892" on="0"/>
        <pt x="350" y="850" on="0"/>
        <pt x="341" y="808" on="0"/>
        <pt x="324" y="749" on="0"/>
        <pt x="321" y="734" on="1"/>
        <pt x="411" y="774" on="0"/>
        <pt x="442" y="813" on="1"/>
        <pt x="463" y="806" on="0"/>
        <pt x="505" y="764" on="0"/>
        <pt x="505" y="732" on="0"/>
        <pt x="480" y="711" on="0"/>
        <pt x="435" y="693" on="0"/>
        <pt x="400" y="682" on="0"/>
        <pt x="351" y="670" on="0"/>
        <pt x="348" y="669" on="1"/>
        <pt x="420" y="613" on="0"/>
        <pt x="477" y="605" on="1"/>
        <pt x="477" y="578" on="0"/>
        <pt x="458" y="513" on="0"/>
      </contour>
    </TTGlyph>
    <TTGlyph name="at" xMin="73" yMin="-101" xMax="1042" yMax="929">
      <contour>
        <pt x="788" y="198" on="1"/>
        <pt x="853" y="198" on="0"/>
        <pt x="940" y="349" on="0"/>
        <pt x="940" y="479" on="1"/>
        <pt x="940" y="670" on="0"/>
        <pt x="769" y="861" on="0"/>
        <pt x="591" y="861" on="1"/>
        <pt x="468" y="861" on="0"/>
        <pt x="276" y="720" on="0"/>
        <pt x="176" y="492" on="0"/>
        <pt x="176" y="358" on="1"/>
        <pt x="176" y="-33" on="0"/>
        <pt x="504" y="-33" on="1"/>
        <pt x="654" y="-33" on="0"/>
        <pt x="809" y="63" on="1"/>
        <pt x="839" y="22" on="0"/>
        <pt x="839" y="-47" on="0"/>
        <pt x="622" y="-101" on="0"/>
        <pt x="504" y="-101" on="1"/>
        <pt x="73" y="-101" on="0"/>
        <pt x="73" y="354" on="1"/>
        <pt x="73" y="507" on="0"/>
        <pt x="211" y="770" on="0"/>
        <pt x="461" y="929" on="0"/>
        <pt x="613" y="929" on="1"/>
        <pt x="820" y="929" on="0"/>
        <pt x="1042" y="711" on="0"/>
        <pt x="1042" y="510" on="1"/>
        <pt x="1042" y="415" on="0"/>
        <pt x="983" y="245" on="0"/>
        <pt x="862" y="130" on="0"/>
        <pt x="783" y="130" on="1"/>
        <pt x="705" y="130" on="0"/>
        <pt x="668" y="172" on="1"/>
        <pt x="628" y="219" on="0"/>
        <pt x="628" y="364" on="1"/>
        <pt x="589" y="273" on="0"/>
        <pt x="493" y="158" on="0"/>
        <pt x="454" y="158" on="1"/>
        <pt x="399" y="158" on="0"/>
        <pt x="329" y="262" on="0"/>
        <pt x="329" y="350" on="1"/>
        <pt x="329" y="490" on="0"/>
        <pt x="466" y="687" on="0"/>
        <pt x="561" y="687" on="1"/>
        <pt x="620" y="687" on="0"/>
        <pt x="662" y="645" on="1"/>
        <pt x="673" y="680" on="0"/>
        <pt x="732" y="680" on="0"/>
        <pt x="754" y="654" on="1"/>
        <pt x="741" y="618" on="0"/>
        <pt x="721" y="451" on="0"/>
        <pt x="721" y="329" on="0"/>
        <pt x="723" y="285" on="0"/>
        <pt x="729" y="255" on="1"/>
        <pt x="740" y="198" on="0"/>
      </contour>
      <contour>
        <pt x="430" y="313" on="0"/>
        <pt x="456" y="250" on="0"/>
        <pt x="504" y="250" on="0"/>
        <pt x="580" y="361" on="0"/>
        <pt x="643" y="522" on="0"/>
        <pt x="651" y="587" on="1"/>
        <pt x="605" y="622" on="0"/>
        <pt x="564" y="622" on="1"/>
        <pt x="505" y="622" on="0"/>
        <pt x="430" y="480" on="0"/>
        <pt x="430" y="368" on="1"/>
      </contour>
    </TTGlyph>
    <TTGlyph name="atilde" xMin="68" yMin="-14" xMax="613" yMax="903">
      <contour>
        <pt x="215" y="-14" on="1"/>
        <pt x="147" y="-14" on="0"/>
        <pt x="68" y="120" on="0"/>
        <pt x="68" y="237" on="1"/>
        <pt x="68" y="425" on="0"/>
        <pt x="237" y="684" on="0"/>
        <pt x="361" y="684" on="1"/>
        <pt x="446" y="684" on="0"/>
        <pt x="502" y="617" on="1"/>
        <pt x="510" y="648" on="0"/>
        <pt x="535" y="674" on="0"/>
        <pt x="588" y="674" on="0"/>
        <pt x="611" y="648" on="1"/>
        <pt x="593" y="600" on="0"/>
        <pt x="567" y="374" on="0"/>
        <pt x="567" y="179" on="0"/>
        <pt x="588" y="72" on="0"/>
        <pt x="613" y="30" on="1"/>
        <pt x="584" y="-7" on="0"/>
        <pt x="545" y="-7" on="1"/>
        <pt x="459" y="-7" on="0"/>
        <pt x="459" y="204" on="1"/>
        <pt x="459" y="238" on="0"/>
        <pt x="467" y="323" on="1"/>
        <pt x="415" y="178" on="0"/>
        <pt x="272" y="-14" on="0"/>
      </contour>
      <contour>
        <pt x="365" y="615" on="1"/>
        <pt x="280" y="615" on="0"/>
        <pt x="173" y="417" on="0"/>
        <pt x="173" y="262" on="1"/>
        <pt x="173" y="183" on="0"/>
        <pt x="214" y="92" on="0"/>
        <pt x="285" y="92" on="0"/>
        <pt x="394" y="248" on="0"/>
        <pt x="484" y="473" on="0"/>
        <pt x="494" y="563" on="1"/>
        <pt x="426" y="615" on="0"/>
      </contour>
      <contour>
        <pt x="560" y="871" on="1"/>
        <pt x="560" y="828" on="0"/>
        <pt x="502" y="756" on="0"/>
        <pt x="429" y="756" on="0"/>
        <pt x="378" y="789" on="0"/>
        <pt x="338" y="822" on="0"/>
        <pt x="300" y="822" on="0"/>
        <pt x="272" y="788" on="0"/>
        <pt x="267" y="755" on="1"/>
        <pt x="223" y="755" on="0"/>
        <pt x="223" y="787" on="1"/>
        <pt x="223" y="830" on="0"/>
        <pt x="281" y="902" on="0"/>
        <pt x="354" y="902" on="0"/>
        <pt x="405" y="869" on="0"/>
        <pt x="445" y="836" on="0"/>
        <pt x="483" y="836" on="0"/>
        <pt x="511" y="870" on="0"/>
        <pt x="516" y="903" on="1"/>
        <pt x="560" y="903" on="0"/>
      </contour>
    </TTGlyph>
    <TTGlyph name="b" xMin="91" yMin="-14" xMax="614" yMax="937">
      <contour>
        <pt x="336" y="54" on="1"/>
        <pt x="417" y="54" on="0"/>
        <pt x="510" y="231" on="0"/>
        <pt x="510" y="367" on="1"/>
        <pt x="510" y="458" on="0"/>
        <pt x="467" y="578" on="0"/>
        <pt x="389" y="578" on="0"/>
        <pt x="288" y="422" on="0"/>
        <pt x="210" y="197" on="0"/>
        <pt x="205" y="106" on="1"/>
        <pt x="276" y="54" on="0"/>
      </contour>
      <contour>
        <pt x="112" y="150" on="0"/>
        <pt x="169" y="677" on="0"/>
        <pt x="169" y="823" on="0"/>
        <pt x="161" y="890" on="0"/>
        <pt x="148" y="915" on="1"/>
        <pt x="173" y="937" on="0"/>
        <pt x="251" y="937" on="0"/>
        <pt x="284" y="889" on="0"/>
        <pt x="284" y="777" on="0"/>
        <pt x="218" y="346" on="1"/>
        <pt x="263" y="492" on="0"/>
        <pt x="397" y="684" on="0"/>
        <pt x="453" y="684" on="1"/>
        <pt x="521" y="684" on="0"/>
        <pt x="614" y="541" on="0"/>
        <pt x="614" y="398" on="1"/>
        <pt x="614" y="243" on="0"/>
        <pt x="550" y="120" on="1"/>
        <pt x="518" y="60" on="0"/>
        <pt x="411" y="-14" on="0"/>
        <pt x="344" y="-14" on="1"/>
        <pt x="258" y="-14" on="0"/>
        <pt x="198" y="53" on="1"/>
        <pt x="192" y="20" on="0"/>
        <pt x="168" y="-8" on="0"/>
        <pt x="117" y="-8" on="0"/>
        <pt x="91" y="18" on="1"/>
      </contour>
    </TTGlyph>
    <TTGlyph name="backslash" xMin="-24" yMin="-128" xMax="413" yMax="947">
      <contour>
        <pt x="29" y="947" on="1"/>
        <pt x="103" y="947" on="0"/>
        <pt x="156" y="798" on="1"/>
        <pt x="178" y="734" on="0"/>
        <pt x="298" y="144" on="0"/>
        <pt x="339" y="29" on="1"/>
        <pt x="364" y="-43" on="0"/>
        <pt x="413" y="-101" on="1"/>
        <pt x="387" y="-128" on="0"/>
        <pt x="322" y="-128" on="0"/>
        <pt x="275" y="-76" on="0"/>
        <pt x="232" y="47" on="0"/>
        <pt x="119" y="627" on="0"/>
        <pt x="77" y="753" on="1"/>
        <pt x="59" y="808" on="0"/>
        <pt x="15" y="882" on="0"/>
        <pt x="-24" y="903" on="1"/>
        <pt x="-23" y="926" on="0"/>
        <pt x="11" y="947" on="0"/>
      </contour>
    </TTGlyph>
    <TTGlyph name="bar" xMin="98" yMin="-128" xMax="287" yMax="947">
      <contour>
        <pt x="259" y="947" on="0"/>
        <pt x="287" y="895" on="0"/>
        <pt x="287" y="774" on="0"/>
        <pt x="193" y="192" on="0"/>
        <pt x="193" y="-37" on="0"/>
        <pt x="230" y="-85" on="1"/>
        <pt x="215" y="-128" on="0"/>
        <pt x="172" y="-128" on="1"/>
        <pt x="98" y="-128" on="0"/>
        <pt x="98" y="21" on="1"/>
        <pt x="98" y="86" on="0"/>
        <pt x="187" y="675" on="0"/>
        <pt x="187" y="874" on="0"/>
        <pt x="167" y="919" on="1"/>
        <pt x="176" y="930" on="0"/>
        <pt x="216" y="947" on="0"/>
        <pt x="230" y="947" on="1"/>
      </contour>
    </TTGlyph>
    <TTGlyph name="barra" xMin="44" yMin="376" xMax="448" yMax="488">
      <contour>
        <pt x="342" y="391" on="1"/>
        <pt x="157" y="394" on="1"/>
        <pt x="92" y="394" on="0"/>
        <pt x="63" y="376" on="1"/>
        <pt x="44" y="406" on="0"/>
        <pt x="44" y="432" on="1"/>
        <pt x="44" y="478" on="0"/>
        <pt x="100" y="478" on="1"/>
        <pt x="305" y="467" on="1"/>
        <pt x="334" y="467" on="0"/>
        <pt x="418" y="479" on="0"/>
        <pt x="433" y="488" on="1"/>
        <pt x="448" y="469" on="0"/>
        <pt x="448" y="442" on="1"/>
        <pt x="448" y="391" on="0"/>
      </contour>
    </TTGlyph>
    <TTGlyph name="braceleft" xMin="46" yMin="-126" xMax="452" yMax="970">
      <contour>
        <pt x="145" y="424" on="1"/>
        <pt x="200" y="373" on="0"/>
        <pt x="200" y="274" on="1"/>
        <pt x="200" y="222" on="0"/>
        <pt x="159" y="22" on="0"/>
        <pt x="159" y="-53" on="1"/>
        <pt x="186" y="-53" on="0"/>
        <pt x="308" y="-25" on="0"/>
        <pt x="335" y="-11" on="1"/>
        <pt x="335" y="-53" on="0"/>
        <pt x="331" y="-70" on="1"/>
        <pt x="318" y="-126" on="0"/>
        <pt x="172" y="-126" on="1"/>
        <pt x="120" y="-126" on="0"/>
        <pt x="74" y="-108" on="0"/>
        <pt x="56" y="-75" on="0"/>
        <pt x="56" y="-3" on="0"/>
        <pt x="118" y="240" on="0"/>
        <pt x="118" y="353" on="0"/>
        <pt x="94" y="396" on="1"/>
        <pt x="79" y="391" on="0"/>
        <pt x="70" y="391" on="1"/>
        <pt x="53" y="391" on="0"/>
        <pt x="46" y="422" on="1"/>
        <pt x="165" y="507" on="0"/>
        <pt x="165" y="696" on="1"/>
        <pt x="165" y="731" on="0"/>
        <pt x="150" y="844" on="0"/>
        <pt x="150" y="905" on="0"/>
        <pt x="219" y="951" on="0"/>
        <pt x="292" y="951" on="1"/>
        <pt x="412" y="951" on="0"/>
        <pt x="452" y="970" on="1"/>
        <pt x="452" y="913" on="0"/>
        <pt x="393" y="861" on="0"/>
        <pt x="304" y="861" on="0"/>
        <pt x="264" y="882" on="1"/>
        <pt x="255" y="609" on="0"/>
        <pt x="218" y="520" on="1"/>
        <pt x="193" y="459" on="0"/>
      </contour>
    </TTGlyph>
    <TTGlyph name="braceright" xMin="-60" yMin="-126" xMax="331" yMax="970">
      <contour>
        <pt x="230" y="425" on="1"/>
        <pt x="172" y="468" on="0"/>
        <pt x="172" y="591" on="1"/>
        <pt x="172" y="670" on="0"/>
        <pt x="209" y="882" on="1"/>
        <pt x="162" y="861" on="0"/>
        <pt x="83" y="861" on="0"/>
        <pt x="34" y="899" on="0"/>
        <pt x="34" y="940" on="1"/>
        <pt x="34" y="954" on="0"/>
        <pt x="37" y="970" on="1"/>
        <pt x="73" y="951" on="0"/>
        <pt x="320" y="951" on="0"/>
        <pt x="320" y="882" on="1"/>
        <pt x="320" y="869" on="0"/>
        <pt x="304" y="824" on="1"/>
        <pt x="256" y="687" on="0"/>
        <pt x="256" y="596" on="1"/>
        <pt x="256" y="480" on="0"/>
        <pt x="331" y="422" on="1"/>
        <pt x="316" y="391" on="0"/>
        <pt x="299" y="391" on="1"/>
        <pt x="288" y="391" on="0"/>
        <pt x="275" y="397" on="1"/>
        <pt x="250" y="366" on="0"/>
        <pt x="225" y="289" on="0"/>
        <pt x="222" y="240" on="0"/>
        <pt x="222" y="197" on="1"/>
        <pt x="227" y="30" on="1"/>
        <pt x="227" y="-76" on="0"/>
        <pt x="188" y="-104" on="1"/>
        <pt x="168" y="-118" on="0"/>
        <pt x="126" y="-126" on="0"/>
        <pt x="89" y="-126" on="1"/>
        <pt x="-60" y="-126" on="0"/>
        <pt x="-60" y="-67" on="1"/>
        <pt x="-60" y="-53" on="0"/>
        <pt x="-50" y="-11" on="1"/>
        <pt x="-26" y="-25" on="0"/>
        <pt x="91" y="-53" on="0"/>
        <pt x="118" y="-53" on="1"/>
        <pt x="131" y="18" on="0"/>
        <pt x="132" y="219" on="0"/>
        <pt x="144" y="273" on="1"/>
        <pt x="168" y="373" on="0"/>
      </contour>
    </TTGlyph>
    <TTGlyph name="bracketleft" xMin="47" yMin="-126" xMax="452" yMax="970">
      <contour>
        <pt x="47" y="-49" on="1"/>
        <pt x="47" y="15" on="0"/>
        <pt x="151" y="723" on="0"/>
        <pt x="151" y="825" on="1"/>
        <pt x="151" y="878" on="0"/>
        <pt x="136" y="923" on="1"/>
        <pt x="171" y="951" on="0"/>
        <pt x="412" y="951" on="0"/>
        <pt x="452" y="970" on="1"/>
        <pt x="452" y="913" on="0"/>
        <pt x="393" y="861" on="0"/>
        <pt x="304" y="861" on="0"/>
        <pt x="264" y="882" on="1"/>
        <pt x="264" y="830" on="0"/>
        <pt x="159" y="94" on="0"/>
        <pt x="159" y="-53" on="1"/>
        <pt x="186" y="-53" on="0"/>
        <pt x="308" y="-25" on="0"/>
        <pt x="335" y="-11" on="1"/>
        <pt x="335" y="-53" on="0"/>
        <pt x="331" y="-70" on="1"/>
        <pt x="318" y="-126" on="0"/>
        <pt x="172" y="-126" on="1"/>
        <pt x="99" y="-126" on="0"/>
        <pt x="47" y="-88" on="0"/>
      </contour>
    </TTGlyph>
    <TTGlyph name="bracketright" xMin="-33" yMin="-124" xMax="360" yMax="970">
      <contour>
        <pt x="136" y="861" on="1"/>
        <pt x="51" y="861" on="0"/>
        <pt x="51" y="942" on="1"/>
        <pt x="51" y="953" on="0"/>
        <pt x="56" y="970" on="1"/>
        <pt x="87" y="951" on="0"/>
        <pt x="330" y="951" on="0"/>
        <pt x="360" y="923" on="1"/>
        <pt x="298" y="832" on="0"/>
        <pt x="278" y="295" on="1"/>
        <pt x="264" y="-16" on="0"/>
        <pt x="208" y="-91" on="1"/>
        <pt x="184" y="-124" on="0"/>
        <pt x="151" y="-124" on="1"/>
        <pt x="26" y="-124" on="0"/>
        <pt x="-8" y="-98" on="1"/>
        <pt x="-25" y="-85" on="0"/>
        <pt x="-33" y="-51" on="0"/>
        <pt x="-33" y="-9" on="1"/>
        <pt x="9" y="-31" on="0"/>
        <pt x="127" y="-47" on="1"/>
        <pt x="157" y="31" on="0"/>
        <pt x="188" y="428" on="0"/>
        <pt x="210" y="821" on="0"/>
        <pt x="228" y="882" on="1"/>
        <pt x="181" y="861" on="0"/>
      </contour>
    </TTGlyph>
    <TTGlyph name="breve" xMin="170" yMin="740" xMax="500" yMax="918">
      <contour>
        <pt x="200" y="918" on="0"/>
        <pt x="214" y="918" on="0"/>
        <pt x="244" y="867" on="0"/>
        <pt x="294" y="816" on="0"/>
        <pt x="355" y="816" on="0"/>
        <pt x="417" y="867" on="0"/>
        <pt x="457" y="918" on="0"/>
        <pt x="470" y="918" on="0"/>
        <pt x="493" y="902" on="0"/>
        <pt x="500" y="890" on="1"/>
        <pt x="446" y="806" on="0"/>
        <pt x="375" y="740" on="0"/>
        <pt x="268" y="740" on="0"/>
        <pt x="205" y="811" on="0"/>
        <pt x="170" y="890" on="1"/>
        <pt x="177" y="902" on="0"/>
      </contour>
    </TTGlyph>
    <TTGlyph name="brokenbar" xMin="98" yMin="-128" xMax="287" yMax="947">
      <contour>
        <pt x="287" y="845" on="1"/>
        <pt x="287" y="773" on="0"/>
        <pt x="270" y="662" on="0"/>
        <pt x="252" y="558" on="0"/>
        <pt x="248" y="533" on="1"/>
        <pt x="172" y="533" on="0"/>
        <pt x="172" y="590" on="1"/>
        <pt x="180" y="657" on="1"/>
        <pt x="187" y="724" on="0"/>
        <pt x="187" y="874" on="0"/>
        <pt x="167" y="919" on="1"/>
        <pt x="176" y="930" on="0"/>
        <pt x="216" y="947" on="0"/>
        <pt x="230" y="947" on="1"/>
        <pt x="287" y="947" on="0"/>
      </contour>
      <contour>
        <pt x="193" y="65" on="1"/>
        <pt x="193" y="-37" on="0"/>
        <pt x="230" y="-85" on="1"/>
        <pt x="215" y="-128" on="0"/>
        <pt x="172" y="-128" on="1"/>
        <pt x="98" y="-128" on="0"/>
        <pt x="98" y="21" on="1"/>
        <pt x="98" y="100" on="0"/>
        <pt x="131" y="307" on="1"/>
        <pt x="180" y="307" on="0"/>
        <pt x="204" y="267" on="1"/>
        <pt x="207" y="264" on="1"/>
        <pt x="193" y="136" on="0"/>
      </contour>
    </TTGlyph>
    <TTGlyph name="bullet" xMin="72" yMin="286" xMax="290" yMax="495">
      <contour>
        <pt x="237" y="495" on="0"/>
        <pt x="290" y="460" on="0"/>
        <pt x="290" y="384" on="0"/>
        <pt x="271" y="326" on="1"/>
        <pt x="211" y="286" on="0"/>
        <pt x="112" y="286" on="0"/>
        <pt x="72" y="324" on="0"/>
        <pt x="72" y="396" on="0"/>
        <pt x="83" y="457" on="1"/>
        <pt x="142" y="495" on="0"/>
      </contour>
    </TTGlyph>
    <TTGlyph name="c" xMin="68" yMin="-17" xMax="532" yMax="684">
      <contour>
        <pt x="312" y="-17" on="1"/>
        <pt x="191" y="-17" on="0"/>
        <pt x="68" y="137" on="0"/>
        <pt x="68" y="259" on="1"/>
        <pt x="68" y="332" on="0"/>
        <pt x="114" y="481" on="0"/>
        <pt x="194" y="606" on="0"/>
        <pt x="320" y="684" on="0"/>
        <pt x="393" y="684" on="1"/>
        <pt x="532" y="684" on="0"/>
        <pt x="532" y="603" on="1"/>
        <pt x="532" y="548" on="0"/>
        <pt x="487" y="511" on="1"/>
        <pt x="463" y="558" on="0"/>
        <pt x="398" y="609" on="0"/>
        <pt x="306" y="609" on="0"/>
        <pt x="242" y="560" on="0"/>
        <pt x="207" y="489" on="0"/>
        <pt x="196" y="444" on="1"/>
        <pt x="176" y="366" on="0"/>
        <pt x="176" y="294" on="1"/>
        <pt x="176" y="178" on="0"/>
        <pt x="256" y="57" on="0"/>
        <pt x="331" y="57" on="1"/>
        <pt x="425" y="57" on="0"/>
        <pt x="469" y="158" on="1"/>
        <pt x="490" y="136" on="0"/>
        <pt x="490" y="102" on="1"/>
        <pt x="490" y="46" on="0"/>
        <pt x="375" y="-17" on="0"/>
      </contour>
    </TTGlyph>
    <TTGlyph name="caron" xMin="160" yMin="740" xMax="509" yMax="918">
      <contour>
        <pt x="187" y="918" on="1"/>
        <pt x="210" y="918" on="0"/>
        <pt x="323" y="828" on="1"/>
        <pt x="458" y="918" on="0"/>
        <pt x="482" y="918" on="1"/>
        <pt x="495" y="918" on="0"/>
        <pt x="509" y="890" on="1"/>
        <pt x="413" y="819" on="0"/>
        <pt x="385" y="779" on="1"/>
        <pt x="375" y="765" on="0"/>
        <pt x="364" y="745" on="1"/>
        <pt x="347" y="740" on="0"/>
        <pt x="285" y="740" on="0"/>
        <pt x="270" y="751" on="1"/>
        <pt x="268" y="753" on="0"/>
        <pt x="247" y="785" on="0"/>
        <pt x="235" y="802" on="1"/>
        <pt x="199" y="852" on="0"/>
        <pt x="160" y="890" on="1"/>
        <pt x="176" y="918" on="0"/>
      </contour>
    </TTGlyph>
    <TTGlyph name="caron.case" xMin="160" yMin="911" xMax="509" yMax="1089">
      <contour>
        <pt x="187" y="1089" on="1"/>
        <pt x="210" y="1089" on="0"/>
        <pt x="323" y="999" on="1"/>
        <pt x="458" y="1089" on="0"/>
        <pt x="482" y="1089" on="1"/>
        <pt x="495" y="1089" on="0"/>
        <pt x="509" y="1061" on="1"/>
        <pt x="413" y="990" on="0"/>
        <pt x="385" y="950" on="1"/>
        <pt x="375" y="936" on="0"/>
        <pt x="364" y="916" on="1"/>
        <pt x="347" y="911" on="0"/>
        <pt x="285" y="911" on="0"/>
        <pt x="270" y="922" on="1"/>
        <pt x="268" y="924" on="0"/>
        <pt x="247" y="956" on="0"/>
        <pt x="235" y="973" on="1"/>
        <pt x="199" y="1023" on="0"/>
        <pt x="160" y="1061" on="1"/>
        <pt x="176" y="1089" on="0"/>
      </contour>
    </TTGlyph>
    <TTGlyph name="ccedilla" xMin="68" yMin="-272" xMax="532" yMax="684">
      <contour>
        <pt x="350" y="-76" on="0"/>
        <pt x="404" y="-114" on="0"/>
        <pt x="404" y="-198" on="0"/>
        <pt x="332" y="-272" on="0"/>
        <pt x="257" y="-272" on="1"/>
        <pt x="218" y="-272" on="0"/>
        <pt x="169" y="-238" on="0"/>
        <pt x="169" y="-216" on="1"/>
        <pt x="169" y="-191" on="0"/>
        <pt x="220" y="-172" on="1"/>
        <pt x="222" y="-194" on="0"/>
        <pt x="249" y="-223" on="0"/>
        <pt x="295" y="-223" on="0"/>
        <pt x="327" y="-183" on="0"/>
        <pt x="327" y="-158" on="1"/>
        <pt x="327" y="-119" on="0"/>
        <pt x="287" y="-113" on="1"/>
        <pt x="235" y="-105" on="1"/>
        <pt x="222" y="-103" on="0"/>
        <pt x="222" y="-91" on="0"/>
        <pt x="255" y="-12" on="1"/>
        <pt x="162" y="5" on="0"/>
        <pt x="68" y="152" on="0"/>
        <pt x="68" y="259" on="1"/>
        <pt x="68" y="332" on="0"/>
        <pt x="114" y="481" on="0"/>
        <pt x="194" y="606" on="0"/>
        <pt x="320" y="684" on="0"/>
        <pt x="393" y="684" on="1"/>
        <pt x="532" y="684" on="0"/>
        <pt x="532" y="603" on="1"/>
        <pt x="532" y="548" on="0"/>
        <pt x="487" y="511" on="1"/>
        <pt x="463" y="558" on="0"/>
        <pt x="398" y="609" on="0"/>
        <pt x="306" y="609" on="0"/>
        <pt x="242" y="560" on="0"/>
        <pt x="207" y="489" on="0"/>
        <pt x="196" y="444" on="1"/>
        <pt x="176" y="366" on="0"/>
        <pt x="176" y="294" on="1"/>
        <pt x="176" y="178" on="0"/>
        <pt x="256" y="57" on="0"/>
        <pt x="331" y="57" on="1"/>
        <pt x="425" y="57" on="0"/>
        <pt x="469" y="158" on="1"/>
        <pt x="490" y="136" on="0"/>
        <pt x="490" y="102" on="1"/>
        <pt x="490" y="46" on="0"/>
        <pt x="373" y="-17" on="0"/>
        <pt x="305" y="-17" on="1"/>
        <pt x="285" y="-69" on="1"/>
      </contour>
    </TTGlyph>
    <TTGlyph name="cedilla" xMin="86" yMin="-272" xMax="321" yMax="0">
      <contour>
        <pt x="267" y="-76" on="0"/>
        <pt x="321" y="-114" on="0"/>
        <pt x="321" y="-198" on="0"/>
        <pt x="249" y="-272" on="0"/>
        <pt x="174" y="-272" on="1"/>
        <pt x="135" y="-272" on="0"/>
        <pt x="86" y="-238" on="0"/>
        <pt x="86" y="-216" on="1"/>
        <pt x="86" y="-191" on="0"/>
        <pt x="137" y="-172" on="1"/>
        <pt x="139" y="-194" on="0"/>
        <pt x="166" y="-223" on="0"/>
        <pt x="212" y="-223" on="0"/>
        <pt x="244" y="-183" on="0"/>
        <pt x="244" y="-158" on="1"/>
        <pt x="244" y="-119" on="0"/>
        <pt x="204" y="-113" on="1"/>
        <pt x="152" y="-105" on="1"/>
        <pt x="139" y="-103" on="0"/>
        <pt x="139" y="-92" on="0"/>
        <pt x="177" y="0" on="1"/>
        <pt x="229" y="0" on="1"/>
        <pt x="202" y="-69" on="1"/>
      </contour>
    </TTGlyph>
    <TTGlyph name="cent" xMin="68" yMin="-105" xMax="532" yMax="986">
      <contour>
        <pt x="382" y="791" on="1"/>
        <pt x="393" y="792" on="1"/>
        <pt x="532" y="792" on="0"/>
        <pt x="532" y="711" on="1"/>
        <pt x="532" y="659" on="0"/>
        <pt x="487" y="619" on="1"/>
        <pt x="445" y="703" on="0"/>
        <pt x="375" y="716" on="1"/>
        <pt x="368" y="626" on="0"/>
        <pt x="347" y="217" on="0"/>
        <pt x="344" y="165" on="1"/>
        <pt x="428" y="173" on="0"/>
        <pt x="469" y="266" on="1"/>
        <pt x="490" y="243" on="0"/>
        <pt x="490" y="210" on="1"/>
        <pt x="490" y="160" on="0"/>
        <pt x="398" y="100" on="0"/>
        <pt x="339" y="93" on="1"/>
        <pt x="335" y="46" on="0"/>
        <pt x="332" y="27" on="1"/>
        <pt x="311" y="-105" on="0"/>
        <pt x="239" y="-105" on="1"/>
        <pt x="209" y="-105" on="0"/>
        <pt x="205" y="-69" on="1"/>
        <pt x="250" y="-26" on="0"/>
        <pt x="265" y="68" on="1"/>
        <pt x="269" y="95" on="1"/>
        <pt x="168" y="109" on="0"/>
        <pt x="68" y="256" on="0"/>
        <pt x="68" y="496" on="0"/>
        <pt x="199" y="737" on="0"/>
        <pt x="306" y="776" on="1"/>
        <pt x="309" y="848" on="0"/>
        <pt x="316" y="893" on="1"/>
        <pt x="332" y="986" on="0"/>
        <pt x="388" y="986" on="1"/>
        <pt x="418" y="986" on="0"/>
        <pt x="430" y="963" on="1"/>
        <pt x="401" y="922" on="0"/>
        <pt x="387" y="829" on="1"/>
        <pt x="383" y="808" on="0"/>
      </contour>
      <contour>
        <pt x="176" y="402" on="1"/>
        <pt x="176" y="215" on="0"/>
        <pt x="277" y="175" on="1"/>
        <pt x="281" y="221" on="0"/>
        <pt x="302" y="710" on="1"/>
        <pt x="254" y="691" on="0"/>
        <pt x="193" y="566" on="0"/>
        <pt x="176" y="454" on="0"/>
      </contour>
    </TTGlyph>
    <TTGlyph name="circumflex" xMin="160" yMin="740" xMax="509" yMax="918">
      <contour>
        <pt x="482" y="740" on="1"/>
        <pt x="460" y="740" on="0"/>
        <pt x="346" y="831" on="1"/>
        <pt x="215" y="740" on="0"/>
        <pt x="187" y="740" on="1"/>
        <pt x="176" y="740" on="0"/>
        <pt x="160" y="768" on="1"/>
        <pt x="254" y="838" on="0"/>
        <pt x="284" y="879" on="1"/>
        <pt x="295" y="893" on="0"/>
        <pt x="306" y="913" on="1"/>
        <pt x="323" y="918" on="0"/>
        <pt x="385" y="918" on="0"/>
        <pt x="400" y="907" on="1"/>
        <pt x="401" y="906" on="0"/>
        <pt x="416" y="882" on="0"/>
        <pt x="433" y="857" on="0"/>
        <pt x="446" y="840" on="1"/>
        <pt x="479" y="796" on="0"/>
        <pt x="509" y="768" on="1"/>
        <pt x="495" y="740" on="0"/>
      </contour>
    </TTGlyph>
    <TTGlyph name="circumflex.case" xMin="160" yMin="911" xMax="509" yMax="1089">
      <contour>
        <pt x="482" y="911" on="1"/>
        <pt x="460" y="911" on="0"/>
        <pt x="346" y="1002" on="1"/>
        <pt x="215" y="911" on="0"/>
        <pt x="187" y="911" on="1"/>
        <pt x="176" y="911" on="0"/>
        <pt x="160" y="939" on="1"/>
        <pt x="253" y="1009" on="0"/>
        <pt x="284" y="1050" on="1"/>
        <pt x="295" y="1064" on="0"/>
        <pt x="306" y="1084" on="1"/>
        <pt x="323" y="1089" on="0"/>
        <pt x="385" y="1089" on="0"/>
        <pt x="400" y="1078" on="1"/>
        <pt x="401" y="1077" on="0"/>
        <pt x="416" y="1053" on="0"/>
        <pt x="433" y="1028" on="0"/>
        <pt x="446" y="1012" on="1"/>
        <pt x="479" y="967" on="0"/>
        <pt x="509" y="939" on="1"/>
        <pt x="495" y="911" on="0"/>
      </contour>
    </TTGlyph>
    <TTGlyph name="colon" xMin="71" yMin="-14" xMax="250" yMax="649">
      <contour>
        <pt x="188" y="133" on="0"/>
        <pt x="225" y="108" on="0"/>
        <pt x="225" y="54" on="0"/>
        <pt x="212" y="14" on="1"/>
        <pt x="168" y="-14" on="0"/>
        <pt x="99" y="-14" on="0"/>
        <pt x="71" y="12" on="0"/>
        <pt x="71" y="63" on="0"/>
        <pt x="79" y="106" on="1"/>
        <pt x="121" y="133" on="0"/>
      </contour>
      <contour>
        <pt x="213" y="649" on="0"/>
        <pt x="250" y="624" on="0"/>
        <pt x="250" y="570" on="0"/>
        <pt x="237" y="530" on="1"/>
        <pt x="193" y="502" on="0"/>
        <pt x="124" y="502" on="0"/>
        <pt x="96" y="528" on="0"/>
        <pt x="96" y="579" on="0"/>
        <pt x="104" y="622" on="1"/>
        <pt x="146" y="649" on="0"/>
      </contour>
    </TTGlyph>
    <TTGlyph name="comma" xMin="25" yMin="-137" xMax="240" yMax="133">
      <contour>
        <pt x="41" y="-89" on="1"/>
        <pt x="79" y="-89" on="0"/>
        <pt x="125" y="-26" on="0"/>
        <pt x="125" y="69" on="0"/>
        <pt x="92" y="96" on="1"/>
        <pt x="139" y="133" on="0"/>
        <pt x="186" y="133" on="1"/>
        <pt x="240" y="133" on="0"/>
        <pt x="240" y="-12" on="0"/>
        <pt x="130" y="-137" on="0"/>
        <pt x="59" y="-137" on="1"/>
        <pt x="25" y="-137" on="0"/>
        <pt x="25" y="-109" on="1"/>
        <pt x="25" y="-97" on="0"/>
        <pt x="26" y="-88" on="1"/>
        <pt x="31" y="-89" on="0"/>
      </contour>
    </TTGlyph>
    <TTGlyph name="commaaccent" xMin="45" yMin="-137" xMax="260" yMax="133">
      <contour>
        <pt x="61" y="-89" on="1"/>
        <pt x="99" y="-89" on="0"/>
        <pt x="145" y="-26" on="0"/>
        <pt x="145" y="69" on="0"/>
        <pt x="112" y="96" on="1"/>
        <pt x="159" y="133" on="0"/>
        <pt x="206" y="133" on="1"/>
        <pt x="260" y="133" on="0"/>
        <pt x="260" y="-12" on="0"/>
        <pt x="150" y="-137" on="0"/>
        <pt x="79" y="-137" on="1"/>
        <pt x="45" y="-137" on="0"/>
        <pt x="45" y="-109" on="1"/>
        <pt x="45" y="-97" on="0"/>
        <pt x="46" y="-88" on="1"/>
        <pt x="51" y="-89" on="0"/>
      </contour>
    </TTGlyph>
    <TTGlyph name="copyright" xMin="67" yMin="210" xMax="713" yMax="962">
      <contour>
        <pt x="428" y="822" on="1"/>
        <pt x="465" y="822" on="0"/>
        <pt x="512" y="795" on="0"/>
        <pt x="512" y="741" on="0"/>
        <pt x="479" y="713" on="1"/>
        <pt x="452" y="774" on="0"/>
        <pt x="402" y="774" on="1"/>
        <pt x="371" y="774" on="0"/>
        <pt x="326" y="727" on="0"/>
        <pt x="315" y="691" on="1"/>
        <pt x="294" y="622" on="0"/>
        <pt x="294" y="564" on="1"/>
        <pt x="294" y="402" on="0"/>
        <pt x="393" y="402" on="1"/>
        <pt x="450" y="402" on="0"/>
        <pt x="474" y="475" on="1"/>
        <pt x="495" y="451" on="0"/>
        <pt x="495" y="402" on="0"/>
        <pt x="423" y="356" on="0"/>
        <pt x="379" y="356" on="1"/>
        <pt x="304" y="356" on="0"/>
        <pt x="230" y="458" on="0"/>
        <pt x="230" y="607" on="0"/>
        <pt x="272" y="733" on="0"/>
        <pt x="366" y="822" on="0"/>
      </contour>
      <contour>
        <pt x="635" y="630" on="1"/>
        <pt x="635" y="768" on="0"/>
        <pt x="530" y="904" on="0"/>
        <pt x="421" y="904" on="1"/>
        <pt x="364" y="904" on="0"/>
        <pt x="267" y="848" on="0"/>
        <pt x="206" y="764" on="0"/>
        <pt x="184" y="714" on="1"/>
        <pt x="145" y="621" on="0"/>
        <pt x="145" y="541" on="1"/>
        <pt x="145" y="403" on="0"/>
        <pt x="247" y="267" on="0"/>
        <pt x="357" y="267" on="1"/>
        <pt x="414" y="267" on="0"/>
        <pt x="512" y="323" on="0"/>
        <pt x="573" y="407" on="0"/>
        <pt x="595" y="458" on="1"/>
        <pt x="635" y="549" on="0"/>
      </contour>
      <contour>
        <pt x="326" y="210" on="1"/>
        <pt x="203" y="210" on="0"/>
        <pt x="67" y="380" on="0"/>
        <pt x="67" y="507" on="1"/>
        <pt x="67" y="670" on="0"/>
        <pt x="162" y="810" on="1"/>
        <pt x="208" y="877" on="0"/>
        <pt x="361" y="962" on="0"/>
        <pt x="454" y="962" on="1"/>
        <pt x="577" y="962" on="0"/>
        <pt x="713" y="791" on="0"/>
        <pt x="713" y="664" on="1"/>
        <pt x="713" y="534" on="0"/>
        <pt x="652" y="418" on="1"/>
        <pt x="583" y="288" on="0"/>
        <pt x="466" y="238" on="1"/>
        <pt x="401" y="210" on="0"/>
      </contour>
    </TTGlyph>
    <TTGlyph name="currency" xMin="50" yMin="153" xMax="586" yMax="717">
      <contour>
        <pt x="389" y="245" on="1"/>
        <pt x="341" y="213" on="0"/>
        <pt x="227" y="213" on="0"/>
        <pt x="190" y="242" on="1"/>
        <pt x="133" y="197" on="0"/>
        <pt x="118" y="154" on="1"/>
        <pt x="94" y="155" on="0"/>
        <pt x="50" y="194" on="0"/>
        <pt x="50" y="232" on="0"/>
        <pt x="92" y="277" on="0"/>
        <pt x="141" y="315" on="1"/>
        <pt x="132" y="345" on="0"/>
        <pt x="132" y="382" on="1"/>
        <pt x="132" y="473" on="0"/>
        <pt x="181" y="546" on="1"/>
        <pt x="147" y="593" on="0"/>
        <pt x="101" y="638" on="0"/>
        <pt x="70" y="649" on="1"/>
        <pt x="71" y="673" on="0"/>
        <pt x="110" y="717" on="0"/>
        <pt x="150" y="717" on="0"/>
        <pt x="198" y="669" on="0"/>
        <pt x="243" y="609" on="1"/>
        <pt x="291" y="641" on="0"/>
        <pt x="406" y="641" on="0"/>
        <pt x="442" y="611" on="1"/>
        <pt x="474" y="638" on="0"/>
        <pt x="504" y="684" on="0"/>
        <pt x="506" y="716" on="1"/>
        <pt x="537" y="716" on="0"/>
        <pt x="586" y="688" on="0"/>
        <pt x="586" y="658" on="1"/>
        <pt x="586" y="613" on="0"/>
        <pt x="490" y="536" on="1"/>
        <pt x="500" y="503" on="0"/>
        <pt x="500" y="471" on="1"/>
        <pt x="500" y="381" on="0"/>
        <pt x="452" y="309" on="1"/>
        <pt x="483" y="270" on="0"/>
        <pt x="532" y="234" on="0"/>
        <pt x="566" y="233" on="1"/>
        <pt x="566" y="202" on="0"/>
        <pt x="538" y="153" on="0"/>
        <pt x="508" y="153" on="1"/>
        <pt x="464" y="153" on="0"/>
      </contour>
      <contour>
        <pt x="407" y="447" on="1"/>
        <pt x="407" y="569" on="0"/>
        <pt x="328" y="569" on="1"/>
        <pt x="278" y="569" on="0"/>
        <pt x="224" y="455" on="0"/>
        <pt x="224" y="406" on="1"/>
        <pt x="224" y="284" on="0"/>
        <pt x="303" y="284" on="1"/>
        <pt x="353" y="284" on="0"/>
        <pt x="407" y="398" on="0"/>
      </contour>
    </TTGlyph>
    <TTGlyph name="d" xMin="68" yMin="-14" xMax="621" yMax="937">
      <contour>
        <pt x="506" y="718" on="1"/>
        <pt x="506" y="874" on="0"/>
        <pt x="484" y="915" on="1"/>
        <pt x="509" y="937" on="0"/>
        <pt x="587" y="937" on="0"/>
        <pt x="621" y="887" on="0"/>
        <pt x="621" y="774" on="0"/>
        <pt x="565" y="394" on="0"/>
        <pt x="565" y="190" on="0"/>
        <pt x="585" y="76" on="0"/>
        <pt x="612" y="30" on="1"/>
        <pt x="584" y="-7" on="0"/>
        <pt x="544" y="-7" on="1"/>
        <pt x="459" y="-7" on="0"/>
        <pt x="459" y="206" on="1"/>
        <pt x="459" y="251" on="0"/>
        <pt x="467" y="323" on="1"/>
        <pt x="415" y="177" on="0"/>
        <pt x="271" y="-14" on="0"/>
        <pt x="151" y="-14" on="0"/>
        <pt x="68" y="111" on="0"/>
        <pt x="68" y="237" on="1"/>
        <pt x="68" y="398" on="0"/>
        <pt x="140" y="535" on="1"/>
        <pt x="174" y="601" on="0"/>
        <pt x="290" y="684" on="0"/>
        <pt x="446" y="684" on="0"/>
        <pt x="502" y="617" on="1"/>
        <pt x="506" y="653" on="0"/>
      </contour>
      <contour>
        <pt x="365" y="615" on="1"/>
        <pt x="277" y="615" on="0"/>
        <pt x="173" y="412" on="0"/>
        <pt x="173" y="262" on="1"/>
        <pt x="173" y="187" on="0"/>
        <pt x="211" y="92" on="0"/>
        <pt x="285" y="92" on="0"/>
        <pt x="394" y="247" on="0"/>
        <pt x="484" y="472" on="0"/>
        <pt x="494" y="563" on="1"/>
        <pt x="425" y="615" on="0"/>
      </contour>
    </TTGlyph>
    <TTGlyph name="dagger" xMin="64" yMin="-7" xMax="468" yMax="889">
      <contour>
        <pt x="217" y="678" on="1"/>
        <pt x="219" y="731" on="1"/>
        <pt x="219" y="824" on="0"/>
        <pt x="198" y="866" on="1"/>
        <pt x="225" y="889" on="0"/>
        <pt x="300" y="889" on="0"/>
        <pt x="334" y="840" on="0"/>
        <pt x="334" y="751" on="0"/>
        <pt x="325" y="672" on="1"/>
        <pt x="354" y="672" on="0"/>
        <pt x="438" y="684" on="0"/>
        <pt x="453" y="693" on="1"/>
        <pt x="468" y="674" on="0"/>
        <pt x="468" y="622" on="0"/>
        <pt x="402" y="596" on="0"/>
        <pt x="312" y="596" on="1"/>
        <pt x="309" y="581" on="0"/>
        <pt x="291" y="472" on="0"/>
        <pt x="283" y="424" on="0"/>
        <pt x="269" y="328" on="0"/>
        <pt x="266" y="298" on="1"/>
        <pt x="257" y="210" on="0"/>
        <pt x="257" y="166" on="1"/>
        <pt x="257" y="70" on="0"/>
        <pt x="295" y="29" on="1"/>
        <pt x="264" y="-7" on="0"/>
        <pt x="226" y="-7" on="1"/>
        <pt x="148" y="-7" on="0"/>
        <pt x="148" y="125" on="1"/>
        <pt x="148" y="178" on="0"/>
        <pt x="203" y="537" on="0"/>
        <pt x="210" y="599" on="1"/>
        <pt x="112" y="599" on="0"/>
        <pt x="83" y="581" on="1"/>
        <pt x="64" y="611" on="0"/>
        <pt x="64" y="636" on="1"/>
        <pt x="64" y="683" on="0"/>
        <pt x="120" y="683" on="1"/>
        <pt x="137" y="683" on="0"/>
      </contour>
    </TTGlyph>
    <TTGlyph name="daggerdbl" xMin="16" yMin="-7" xMax="469" yMax="889">
      <contour>
        <pt x="16" y="303" on="0"/>
        <pt x="47" y="324" on="0"/>
        <pt x="94" y="324" on="0"/>
        <pt x="169" y="319" on="1"/>
        <pt x="203" y="533" on="0"/>
        <pt x="210" y="599" on="1"/>
        <pt x="178" y="599" on="1"/>
        <pt x="113" y="599" on="0"/>
        <pt x="84" y="581" on="1"/>
        <pt x="65" y="611" on="0"/>
        <pt x="65" y="636" on="1"/>
        <pt x="65" y="683" on="0"/>
        <pt x="121" y="683" on="1"/>
        <pt x="217" y="678" on="1"/>
        <pt x="219" y="731" on="1"/>
        <pt x="219" y="824" on="0"/>
        <pt x="198" y="866" on="1"/>
        <pt x="225" y="889" on="0"/>
        <pt x="300" y="889" on="0"/>
        <pt x="334" y="840" on="0"/>
        <pt x="334" y="742" on="0"/>
        <pt x="326" y="672" on="1"/>
        <pt x="355" y="672" on="0"/>
        <pt x="439" y="684" on="0"/>
        <pt x="454" y="693" on="1"/>
        <pt x="469" y="674" on="0"/>
        <pt x="469" y="647" on="1"/>
        <pt x="469" y="596" on="0"/>
        <pt x="363" y="596" on="1"/>
        <pt x="312" y="596" on="1"/>
        <pt x="277" y="391" on="0"/>
        <pt x="267" y="313" on="1"/>
        <pt x="302" y="313" on="0"/>
        <pt x="389" y="324" on="0"/>
        <pt x="405" y="334" on="1"/>
        <pt x="420" y="315" on="0"/>
        <pt x="420" y="263" on="0"/>
        <pt x="352" y="237" on="0"/>
        <pt x="260" y="237" on="1"/>
        <pt x="257" y="200" on="0"/>
        <pt x="257" y="166" on="1"/>
        <pt x="257" y="70" on="0"/>
        <pt x="295" y="29" on="1"/>
        <pt x="264" y="-7" on="0"/>
        <pt x="226" y="-7" on="1"/>
        <pt x="148" y="-7" on="0"/>
        <pt x="148" y="125" on="1"/>
        <pt x="148" y="162" on="0"/>
        <pt x="158" y="240" on="1"/>
        <pt x="64" y="240" on="0"/>
        <pt x="35" y="222" on="1"/>
        <pt x="16" y="252" on="0"/>
      </contour>
    </TTGlyph>
    <TTGlyph name="degree" xMin="60" yMin="592" xMax="391" yMax="974">
      <contour>
        <pt x="231" y="919" on="1"/>
        <pt x="208" y="919" on="0"/>
        <pt x="174" y="883" on="0"/>
        <pt x="166" y="855" on="1"/>
        <pt x="149" y="801" on="0"/>
        <pt x="149" y="749" on="1"/>
        <pt x="149" y="648" on="0"/>
        <pt x="215" y="648" on="1"/>
        <pt x="245" y="648" on="0"/>
        <pt x="265" y="680" on="1"/>
        <pt x="298" y="733" on="0"/>
        <pt x="298" y="817" on="1"/>
        <pt x="298" y="919" on="0"/>
      </contour>
      <contour>
        <pt x="251" y="974" on="1"/>
        <pt x="285" y="974" on="0"/>
        <pt x="332" y="946" on="1"/>
        <pt x="357" y="930" on="0"/>
        <pt x="391" y="860" on="0"/>
        <pt x="391" y="812" on="1"/>
        <pt x="391" y="713" on="0"/>
        <pt x="275" y="592" on="0"/>
        <pt x="201" y="592" on="1"/>
        <pt x="166" y="592" on="0"/>
        <pt x="120" y="621" on="1"/>
        <pt x="94" y="637" on="0"/>
        <pt x="60" y="707" on="0"/>
        <pt x="60" y="756" on="1"/>
        <pt x="60" y="854" on="0"/>
        <pt x="177" y="974" on="0"/>
      </contour>
    </TTGlyph>
    <TTGlyph name="dieresis" xMin="5" yMin="757" xMax="373" yMax="884">
      <contour>
        <pt x="139" y="841" on="1"/>
        <pt x="139" y="821" on="0"/>
        <pt x="128" y="780" on="1"/>
        <pt x="91" y="757" on="0"/>
        <pt x="30" y="757" on="0"/>
        <pt x="5" y="779" on="0"/>
        <pt x="5" y="827" on="0"/>
        <pt x="12" y="861" on="1"/>
        <pt x="49" y="884" on="0"/>
        <pt x="81" y="884" on="1"/>
        <pt x="139" y="884" on="0"/>
      </contour>
      <contour>
        <pt x="373" y="841" on="1"/>
        <pt x="373" y="816" on="0"/>
        <pt x="362" y="780" on="1"/>
        <pt x="325" y="757" on="0"/>
        <pt x="264" y="757" on="0"/>
        <pt x="239" y="779" on="0"/>
        <pt x="239" y="819" on="0"/>
        <pt x="246" y="861" on="1"/>
        <pt x="284" y="884" on="0"/>
        <pt x="315" y="884" on="1"/>
        <pt x="373" y="884" on="0"/>
      </contour>
    </TTGlyph>
    <TTGlyph name="dieresis.case" xMin="5" yMin="928" xMax="373" yMax="1055">
      <contour>
        <pt x="139" y="1012" on="1"/>
        <pt x="139" y="992" on="0"/>
        <pt x="128" y="951" on="1"/>
        <pt x="91" y="928" on="0"/>
        <pt x="30" y="928" on="0"/>
        <pt x="5" y="950" on="0"/>
        <pt x="5" y="998" on="0"/>
        <pt x="12" y="1032" on="1"/>
        <pt x="49" y="1055" on="0"/>
        <pt x="81" y="1055" on="1"/>
        <pt x="139" y="1055" on="0"/>
      </contour>
      <contour>
        <pt x="373" y="1012" on="1"/>
        <pt x="373" y="987" on="0"/>
        <pt x="362" y="951" on="1"/>
        <pt x="325" y="928" on="0"/>
        <pt x="264" y="928" on="0"/>
        <pt x="239" y="950" on="0"/>
        <pt x="239" y="990" on="0"/>
        <pt x="246" y="1032" on="1"/>
        <pt x="284" y="1055" on="0"/>
        <pt x="315" y="1055" on="1"/>
        <pt x="373" y="1055" on="0"/>
      </contour>
    </TTGlyph>
    <TTGlyph name="divide" xMin="49" yMin="141" xMax="501" yMax="721">
      <contour>
        <pt x="383" y="386" on="1"/>
        <pt x="174" y="389" on="1"/>
        <pt x="101" y="389" on="0"/>
        <pt x="68" y="372" on="1"/>
        <pt x="49" y="400" on="0"/>
        <pt x="49" y="437" on="1"/>
        <pt x="49" y="457" on="0"/>
        <pt x="82" y="482" on="0"/>
        <pt x="109" y="482" on="1"/>
        <pt x="342" y="472" on="1"/>
        <pt x="374" y="472" on="0"/>
        <pt x="469" y="484" on="0"/>
        <pt x="486" y="493" on="1"/>
        <pt x="501" y="476" on="0"/>
        <pt x="501" y="442" on="1"/>
        <pt x="501" y="386" on="0"/>
      </contour>
      <contour>
        <pt x="292" y="288" on="0"/>
        <pt x="329" y="263" on="0"/>
        <pt x="329" y="209" on="0"/>
        <pt x="316" y="169" on="1"/>
        <pt x="272" y="141" on="0"/>
        <pt x="203" y="141" on="0"/>
        <pt x="175" y="167" on="0"/>
        <pt x="175" y="218" on="0"/>
        <pt x="183" y="261" on="1"/>
        <pt x="225" y="288" on="0"/>
      </contour>
      <contour>
        <pt x="340" y="721" on="0"/>
        <pt x="377" y="696" on="0"/>
        <pt x="377" y="642" on="0"/>
        <pt x="364" y="602" on="1"/>
        <pt x="320" y="574" on="0"/>
        <pt x="251" y="574" on="0"/>
        <pt x="223" y="600" on="0"/>
        <pt x="223" y="651" on="0"/>
        <pt x="231" y="694" on="1"/>
        <pt x="273" y="721" on="0"/>
      </contour>
    </TTGlyph>
    <TTGlyph name="dollar" xMin="67" yMin="-105" xMax="570" yMax="986">
      <contour>
        <pt x="129" y="654" on="1"/>
        <pt x="129" y="748" on="0"/>
        <pt x="237" y="866" on="0"/>
        <pt x="330" y="883" on="1"/>
        <pt x="339" y="939" on="0"/>
        <pt x="374" y="986" on="0"/>
        <pt x="403" y="986" on="1"/>
        <pt x="415" y="986" on="0"/>
        <pt x="440" y="973" on="0"/>
        <pt x="445" y="963" on="1"/>
        <pt x="423" y="931" on="0"/>
        <pt x="413" y="889" on="1"/>
        <pt x="480" y="887" on="0"/>
        <pt x="570" y="830" on="0"/>
        <pt x="570" y="735" on="0"/>
        <pt x="525" y="695" on="1"/>
        <pt x="509" y="734" on="0"/>
        <pt x="443" y="796" on="0"/>
        <pt x="399" y="808" on="1"/>
        <pt x="389" y="731" on="0"/>
        <pt x="376" y="492" on="1"/>
        <pt x="435" y="444" on="0"/>
        <pt x="451" y="430" on="1"/>
        <pt x="512" y="378" on="0"/>
        <pt x="568" y="284" on="0"/>
        <pt x="568" y="123" on="0"/>
        <pt x="440" y="-3" on="0"/>
        <pt x="338" y="-14" on="1"/>
        <pt x="314" y="-105" on="0"/>
        <pt x="254" y="-105" on="1"/>
        <pt x="224" y="-105" on="0"/>
        <pt x="220" y="-69" on="1"/>
        <pt x="243" y="-46" on="0"/>
        <pt x="257" y="-15" on="1"/>
        <pt x="177" y="-8" on="0"/>
        <pt x="67" y="63" on="0"/>
        <pt x="67" y="123" on="1"/>
        <pt x="67" y="169" on="0"/>
        <pt x="119" y="227" on="1"/>
        <pt x="154" y="77" on="0"/>
        <pt x="277" y="53" on="1"/>
        <pt x="294" y="153" on="0"/>
        <pt x="305" y="401" on="1"/>
        <pt x="271" y="427" on="0"/>
        <pt x="248" y="447" on="1"/>
        <pt x="190" y="494" on="0"/>
        <pt x="129" y="588" on="0"/>
      </contour>
      <contour>
        <pt x="401" y="59" on="0"/>
        <pt x="469" y="123" on="0"/>
        <pt x="469" y="229" on="0"/>
        <pt x="423" y="303" on="0"/>
        <pt x="369" y="349" on="1"/>
        <pt x="358" y="121" on="0"/>
        <pt x="350" y="51" on="1"/>
      </contour>
      <contour>
        <pt x="279" y="804" on="0"/>
        <pt x="222" y="737" on="0"/>
        <pt x="222" y="639" on="0"/>
        <pt x="256" y="587" on="0"/>
        <pt x="311" y="544" on="1"/>
        <pt x="320" y="768" on="0"/>
        <pt x="323" y="812" on="1"/>
      </contour>
    </TTGlyph>
    <TTGlyph name="dotaccent" xMin="127" yMin="747" xMax="281" yMax="894">
      <contour>
        <pt x="244" y="894" on="0"/>
        <pt x="281" y="869" on="0"/>
        <pt x="281" y="818" on="0"/>
        <pt x="269" y="774" on="1"/>
        <pt x="227" y="747" on="0"/>
        <pt x="189" y="747" on="1"/>
        <pt x="127" y="747" on="0"/>
        <pt x="127" y="801" on="1"/>
        <pt x="127" y="824" on="0"/>
        <pt x="135" y="867" on="1"/>
        <pt x="177" y="894" on="0"/>
      </contour>
    </TTGlyph>
    <TTGlyph name="dotaccent.case" xMin="127" yMin="918" xMax="281" yMax="1065">
      <contour>
        <pt x="244" y="1065" on="0"/>
        <pt x="281" y="1040" on="0"/>
        <pt x="281" y="988" on="0"/>
        <pt x="269" y="945" on="1"/>
        <pt x="227" y="918" on="0"/>
        <pt x="189" y="918" on="1"/>
        <pt x="127" y="918" on="0"/>
        <pt x="127" y="972" on="1"/>
        <pt x="127" y="995" on="0"/>
        <pt x="135" y="1038" on="1"/>
        <pt x="177" y="1065" on="0"/>
      </contour>
    </TTGlyph>
    <TTGlyph name="dotlessi" xMin="98" yMin="-7" xMax="253" yMax="673">
      <contour>
        <pt x="176" y="-7" on="1"/>
        <pt x="98" y="-7" on="0"/>
        <pt x="98" y="125" on="1"/>
        <pt x="98" y="180" on="0"/>
        <pt x="140" y="442" on="0"/>
        <pt x="140" y="610" on="0"/>
        <pt x="119" y="650" on="1"/>
        <pt x="144" y="673" on="0"/>
        <pt x="180" y="673" on="1"/>
        <pt x="253" y="673" on="0"/>
        <pt x="253" y="597" on="1"/>
        <pt x="253" y="573" on="0"/>
        <pt x="207" y="246" on="0"/>
        <pt x="207" y="70" on="0"/>
        <pt x="245" y="29" on="1"/>
        <pt x="214" y="-7" on="0"/>
      </contour>
    </TTGlyph>
</ttFont>
